<?xml version="1.0" encoding="UTF-8" standalone="no"?>
<!-- Created with Inkscape (http://www.inkscape.org/) -->
<svg
   xmlns:dc="http://purl.org/dc/elements/1.1/"
   xmlns:cc="http://creativecommons.org/ns#"
   xmlns:rdf="http://www.w3.org/1999/02/22-rdf-syntax-ns#"
   xmlns:svg="http://www.w3.org/2000/svg"
   xmlns="http://www.w3.org/2000/svg"
   xmlns:sodipodi="http://sodipodi.sourceforge.net/DTD/sodipodi-0.dtd"
   xmlns:inkscape="http://www.inkscape.org/namespaces/inkscape"
   id="svg2"
   sodipodi:version="0.32"
   inkscape:version="0.46"
   width="765"
   height="990"
   xml:space="preserve"
   sodipodi:docname="Karcius-rede12-demandas.svg"
   inkscape:output_extension="org.inkscape.output.svg.inkscape"><metadata
     id="metadata7"><rdf:RDF><cc:Work
         rdf:about=""><dc:format>image/svg+xml</dc:format><dc:type
           rdf:resource="http://purl.org/dc/dcmitype/StillImage" /></cc:Work></rdf:RDF></metadata><defs
     id="defs5"><inkscape:perspective
       sodipodi:type="inkscape:persp3d"
       inkscape:vp_x="0 : 526.18109 : 1"
       inkscape:vp_y="0 : 1000 : 0"
       inkscape:vp_z="744.09448 : 526.18109 : 1"
       inkscape:persp3d-origin="372.04724 : 350.78739 : 1"
       id="perspective9" /></defs><sodipodi:namedview
     inkscape:window-height="778"
     inkscape:window-width="1280"
     inkscape:pageshadow="2"
     inkscape:pageopacity="0.0"
     guidetolerance="10.0"
     gridtolerance="10.0"
     objecttolerance="10.0"
     borderopacity="1.0"
     bordercolor="#666666"
     pagecolor="#ffffff"
     id="base"
     showgrid="false"
     inkscape:zoom="1.6170604"
     inkscape:cx="394.4602"
     inkscape:cy="416.92355"
     inkscape:window-x="-4"
     inkscape:window-y="-3"
     inkscape:current-layer="g11" /><g
     id="g11"
     inkscape:groupmode="layer"
     inkscape:label="Karcius - 2004 - sbrt - Projeto Integrado"
     transform="matrix(1.25,0,0,-1.25,0,990)">





























<text
   transform="matrix(0.9946649,0,0,-1,132.4006,379.44)"
   id="text259"
   style="-inkscape-font-specification:'Times New Roman,';font-family:Times New Roman;font-weight:normal;font-style:normal;font-stretch:normal;font-variant:normal;font-size:10.42785402px;text-anchor:start;text-align:start;writing-mode:lr;line-height:125%"
   sodipodi:linespacing="125%"><tspan
     style="fill:#000000;fill-opacity:1;fill-rule:nonzero;stroke:none;font-family:Times New Roman;font-variant:normal;font-weight:normal;font-size:10.42785402px;writing-mode:lr;-inkscape-font-specification:'Times New Roman,';font-style:normal;font-stretch:normal;text-anchor:start;text-align:start;line-height:125%"
     x="0 3.9490252 5.5469555 9.4043796 72.38318922 76.33221442 77.93014472 81.77739092 108.69488305 112.64390825 114.24183855 144.88444208 148.83346728 150.43139758 154.91985148 181.0750189 185.0240441 186.6219744 190.4692206 217.26457793 221.21360313 222.81153343 225.29494103 253.57321839 257.52224359 259.12017389 262.94706429 289.76277742 293.71180262 295.30973292 299.13662332 326.07345346 330.02247866 331.62040896 336.10886286 362.38209392 366.33111912 367.92904942 371.74576192"
     y="0"
     sodipodi:role="line"
     id="tspan261">0,920,840,30,490,830,170,280,520,410,32</tspan><tspan
     style="fill:#000000;fill-opacity:1;fill-rule:nonzero;stroke:none;font-family:Times New Roman;font-variant:normal;font-weight:normal;font-size:10.42785402px;writing-mode:lr;-inkscape-font-specification:'Times New Roman,';font-style:normal;font-stretch:normal;text-anchor:start;text-align:start;line-height:125%"
     x="-36.31372941 -32.36470421 -30.76677391 -26.93988351 36.18955903 40.13858423 41.73651453 72.37911806 76.32814326 77.92607356 81.75296396 108.6897941 112.6388193 114.2367496 118.06364 144.88037092 148.82939612 150.42732642 154.27457262 181.07094774 185.01997294 186.61790324 190.44479364 217.26050677 221.20953197 222.80746227 226.66488637 253.57118281 257.52020801 259.11813831 263.60659221 289.76074184 293.70976704 295.30769734 299.12440984 326.07141788 330.02044308 331.61837338 362.38107613 366.33010133 367.92803163 371.78545573"
     y="12.360042"
     sodipodi:role="line"
     id="tspan263">0,230,20,520,290,890,560,970,460,640,30,96</tspan><tspan
     style="fill:#000000;fill-opacity:1;fill-rule:nonzero;stroke:none;font-family:Times New Roman;font-variant:normal;font-weight:normal;font-size:10.42785402px;writing-mode:lr;-inkscape-font-specification:'Times New Roman,';font-style:normal;font-stretch:normal;text-anchor:start;text-align:start;line-height:125%"
     x="-36.31372941 -32.36470421 -30.76677391 -0.00407116 3.94495404 5.54288434 8.02629194 72.37708248 76.32610768 77.92403798 108.68674073 112.63576593 114.23369623 116.71710383 144.87528197 148.82430717 150.42223747 154.26948367 181.064841 185.0138662 186.6117965 190.428509 217.25440003 221.20342523 222.80135553 226.62824593 253.56405828 257.51308348 259.11101378 263.06003898 289.75158173 293.70060693 295.29853723 326.06123998 330.01026518 331.60819548 335.45544168 362.37191602 366.32094122 367.91887152 371.74576192"
     y="24.479885"
     sodipodi:role="line"
     id="tspan265">0,60,170,20,190,820,370,270,060,20,870,72</tspan><tspan
     style="fill:#000000;fill-opacity:1;fill-rule:nonzero;stroke:none;font-family:Times New Roman;font-variant:normal;font-weight:normal;font-size:10.42785402px;writing-mode:lr;-inkscape-font-specification:'Times New Roman,';font-style:normal;font-stretch:normal;text-anchor:start;text-align:start;line-height:125%"
     x="-36.31372941 -32.36470421 -30.76677391 -26.27832001 -0.00203558 3.94698962 5.54491992 36.18752345 40.13654865 41.73447895 108.69081189 112.63983709 114.23776739 118.05447989 144.88037092 148.82939612 150.42732642 154.24403892 181.06992995 185.01895515 186.61688545 217.25948898 221.20851418 222.80644448 226.63333488 253.56914723 257.51817243 259.11610273 262.97352683 289.75972405 293.70874925 295.30667955 299.12339205 326.0693823 330.0184075 331.6163378 335.565363 362.37598718 366.32501238 367.92294268 372.41139658"
     y="36.719828"
     sodipodi:role="line"
     id="tspan267">0,480,40,60,680,640,70,250,980,370,010,41</tspan><tspan
     style="fill:#000000;fill-opacity:1;fill-rule:nonzero;stroke:none;font-family:Times New Roman;font-variant:normal;font-weight:normal;font-size:10.42785402px;writing-mode:lr;-inkscape-font-specification:'Times New Roman,';font-style:normal;font-stretch:normal;text-anchor:start;text-align:start;line-height:125%"
     x="-36.31372941 -32.36470421 -30.76677391 -26.91952771 -0.00203558 3.94698962 5.54491992 9.40234402 36.18752345 40.13654865 41.73447895 45.56136935 72.37708248 76.32610768 77.92403798 81.77128418 144.88037092 148.82939612 150.42732642 154.27457262 181.06891216 185.01793736 186.61586766 190.44275806 217.25948898 221.20851418 222.80644448 226.65369068 253.57016502 257.51919022 259.11712052 262.94401092 289.75972405 293.70874925 295.30667955 299.13356995 326.07040009 330.01942529 331.61735559 335.44424599 362.38005834 366.32908354 367.92701384 371.75390424"
     y="48.839671"
     sodipodi:role="line"
     id="tspan269">0,890,930,270,830,810,540,870,580,780,760,74</tspan><tspan
     style="fill:#000000;fill-opacity:1;fill-rule:nonzero;stroke:none;font-family:Times New Roman;font-variant:normal;font-weight:normal;font-size:10.42785402px;writing-mode:lr;-inkscape-font-specification:'Times New Roman,';font-style:normal;font-stretch:normal;text-anchor:start;text-align:start;line-height:125%"
     x="-36.31372941 -32.36470421 -30.76677391 -26.93988351 -0.00407116 3.94495404 5.54288434 9.40030844 36.18447008 40.13349528 41.73142558 44.21483318 72.37301132 76.32203652 77.91996682 81.86899202 108.6796162 112.6286414 114.2265717 118.0534621 181.06280542 185.01183062 186.60976092 191.09821482 217.25338224 221.20240744 222.80033774 226.62722814 253.56304049 257.51206569 259.10999599 263.59844989 289.75361731 293.70264251 295.30057281 299.11728531 326.06429335 330.01331855 331.61124885 335.46867295 362.37496939 366.32399459 367.92192489 371.74881529"
     y="61.199713"
     sodipodi:role="line"
     id="tspan271">0,760,910,190,010,540,440,730,420,680,970,26</tspan><tspan
     style="fill:#000000;fill-opacity:1;fill-rule:nonzero;stroke:none;font-family:Times New Roman;font-variant:normal;font-weight:normal;font-size:10.42785402px;writing-mode:lr;-inkscape-font-specification:'Times New Roman,';font-style:normal;font-stretch:normal;text-anchor:start;text-align:start;line-height:125%"
     x="-36.31372941 -32.36470421 -30.76677391 -26.27832001 -0.00305337 3.94597183 5.54390213 10.03235603 36.18548787 40.13451307 41.73244337 45.68146857 72.37097574 76.32000094 77.91793124 81.73464374 108.68165178 112.63067698 114.22860728 116.71201488 144.86917523 148.81820043 150.41613073 154.23284323 217.25236445 221.20138965 222.79931995 225.28272755 253.56100491 257.51003011 259.10796041 262.93485081 289.74852836 293.69755356 295.29548386 299.78393776 326.0592044 330.0082296 331.6061599 335.463584 362.37089823 366.31992343 367.91785373 372.40630763"
     y="73.199457"
     sodipodi:role="line"
     id="tspan273">0,450,410,010,680,150,340,130,510,460,990,43</tspan><tspan
     style="fill:#000000;fill-opacity:1;fill-rule:nonzero;stroke:none;font-family:Times New Roman;font-variant:normal;font-weight:normal;font-size:10.42785402px;writing-mode:lr;-inkscape-font-specification:'Times New Roman,';font-style:normal;font-stretch:normal;text-anchor:start;text-align:start;line-height:125%"
     x="-36.31372941 -32.36470421 -30.76677391 -26.81774871 -0.00712453 3.94190067 5.53983097 9.38707717 36.18345229 40.13247749 41.73040779 45.55729819 72.37402911 76.32305431 77.92098461 81.73769711 108.68368736 112.63271256 114.23064286 118.04735536 144.87324639 148.82227159 150.42020189 154.24709229 181.06280542 185.01183062 186.60976092 190.42647342 253.56609386 257.51511906 259.11304936 262.92976186 289.75565289 293.70467809 295.30260839 299.12949879 326.06531114 330.01433634 331.61226664 335.43915704 362.37598718 366.32501238 367.92294268 371.78036678"
     y="85.559499"
     sodipodi:role="line"
     id="tspan275">0,010,890,740,370,690,280,620,330,560,780,93</tspan><tspan
     style="fill:#000000;fill-opacity:1;fill-rule:nonzero;stroke:none;font-family:Times New Roman;font-variant:normal;font-weight:normal;font-size:10.42785402px;writing-mode:lr;-inkscape-font-specification:'Times New Roman,';font-style:normal;font-stretch:normal;text-anchor:start;text-align:start;line-height:125%"
     x="-36.31372941 -32.36470421 -30.76677391 -26.91952771 -0.00305337 3.94597183 5.54390213 9.49292733 36.18447008 40.13349528 41.73142558 46.21987948 72.3750469 76.3240721 77.9220024 81.7692486 108.68572294 112.63474814 114.23267844 118.04939094 144.87528197 148.82430717 150.42223747 154.23894997 181.064841 185.0138662 186.6117965 190.4386869 217.25541782 221.20444302 222.80237332 226.64961952 289.75972405 293.70874925 295.30667955 299.13356995 326.07040009 330.01942529 331.61735559 336.10580949 362.38107613 366.33010133 367.92803163 371.74474413"
     y="97.679342"
     sodipodi:role="line"
     id="tspan277">0,820,050,440,830,370,340,790,890,790,430,68</tspan><tspan
     style="fill:#000000;fill-opacity:1;fill-rule:nonzero;stroke:none;font-family:Times New Roman;font-variant:normal;font-weight:normal;font-size:10.42785402px;writing-mode:lr;-inkscape-font-specification:'Times New Roman,';font-style:normal;font-stretch:normal;text-anchor:start;text-align:start;line-height:125%"
     x="-36.31372941 -32.36470421 -30.76677391 -26.27832001 -0.00203558 3.94698962 5.54491992 9.36163242 36.18752345 40.13654865 41.73447895 45.59190305 72.37708248 76.32610768 77.92403798 108.68674073 112.63576593 114.23369623 118.08094243 144.87629976 148.82532496 150.42325526 154.25014566 181.06585879 185.01488399 186.61281429 190.47023839 217.25643561 221.20546081 222.80339111 225.28679871 253.56609386 257.51511906 259.11304936 262.93993976 326.0693823 330.0184075 331.6163378 336.1047917 362.38107613 366.33010133 367.92803163 371.75492203"
     y="109.91928"
     sodipodi:role="line"
     id="tspan279">0,440,350,930,50,860,530,950,190,220,490,21</tspan><tspan
     style="fill:#000000;fill-opacity:1;fill-rule:nonzero;stroke:none;font-family:Times New Roman;font-variant:normal;font-weight:normal;font-size:10.42785402px;writing-mode:lr;-inkscape-font-specification:'Times New Roman,';font-style:normal;font-stretch:normal;text-anchor:start;text-align:start;line-height:125%"
     x="-36.31372941 -32.36470421 -30.76677391 -26.95006141 -0.00508895 3.94393625 5.54186655 9.38911275 36.18345229 40.13247749 41.73040779 46.21886169 72.37301132 76.32203652 77.91996682 108.68266957 112.63169477 114.22962507 118.07687127 144.8722286 148.8212538 150.4191841 154.2460745 181.06178763 185.01081283 186.60874313 190.43563353 217.25134666 221.20037186 222.79830216 226.62519256 253.5620227 257.5110479 259.1089782 262.9358686 289.75158173 293.70060693 295.29853723 362.37496939 366.32399459 367.92192489 371.76917109"
     y="122.03913"
     sodipodi:role="line"
     id="tspan281">0,610,810,460,70,850,720,520,290,570,60,83</tspan><tspan
     style="fill:#000000;fill-opacity:1;fill-rule:nonzero;stroke:none;font-family:Times New Roman;font-variant:normal;font-weight:normal;font-size:10.42785402px;writing-mode:lr;-inkscape-font-specification:'Times New Roman,';font-style:normal;font-stretch:normal;text-anchor:start;text-align:start;line-height:125%"
     x="-36.31372941 -32.36470421 -30.76677391 -26.93988351 -0.00305337 3.94597183 5.54390213 9.49292733 36.1824345 40.1314597 41.72939 46.2178439 72.37097574 76.32000094 77.91793124 82.40638514 108.68165178 112.63067698 114.22860728 118.05549768 144.8722286 148.8212538 150.4191841 181.06076984 185.00979504 186.60772534 190.45497154 217.25134666 221.20037186 222.79830216 226.61501466 253.56100491 257.51003011 259.10796041 262.93485081 289.75056394 293.69958914 295.29751944 299.24654464 326.05818661 330.00721181 331.60514211 335.42185461"
     y="134.39917"
     sodipodi:role="line"
     id="tspan283">0,790,010,410,420,590,30,880,660,760,050,64</tspan></text>

</g></svg>