<?xml version="1.0" encoding="UTF-8" standalone="no"?>
<!-- Created with Inkscape (http://www.inkscape.org/) -->

<svg
   xmlns:dc="http://purl.org/dc/elements/1.1/"
   xmlns:cc="http://creativecommons.org/ns#"
   xmlns:rdf="http://www.w3.org/1999/02/22-rdf-syntax-ns#"
   xmlns:svg="http://www.w3.org/2000/svg"
   xmlns="http://www.w3.org/2000/svg"
   xmlns:xlink="http://www.w3.org/1999/xlink"
   xmlns:sodipodi="http://sodipodi.sourceforge.net/DTD/sodipodi-0.dtd"
   xmlns:inkscape="http://www.inkscape.org/namespaces/inkscape"
   width="744.09448819"
   height="1052.3622047"
   id="svg3527"
   version="1.1"
   inkscape:version="0.47pre4 r22446"
   sodipodi:docname="OXC.svg">
  <defs
     id="defs3529">
    <inkscape:perspective
       sodipodi:type="inkscape:persp3d"
       inkscape:vp_x="499.76255 : 1420.9468 : 1"
       inkscape:vp_y="579.02307 : -964.16894 : 0"
       inkscape:vp_z="-919.84316 : 818.77129 : 1"
       inkscape:persp3d-origin="-311.59726 : 1288.9682 : 1"
       id="perspective3535" />
    <inkscape:perspective
       id="perspective3198"
       inkscape:persp3d-origin="0.5 : 0.33333333 : 1"
       inkscape:vp_z="1 : 0.5 : 1"
       inkscape:vp_y="0 : 1000 : 0"
       inkscape:vp_x="0 : 0.5 : 1"
       sodipodi:type="inkscape:persp3d" />
    <clipPath
       clipPathUnits="userSpaceOnUse"
       id="clipPath424">
      <path
         d="m 118.984,345.413 373.766,0 0,204.388 -373.766,0 0,-204.388 z"
         id="path426" />
    </clipPath>
    <clipPath
       clipPathUnits="userSpaceOnUse"
       id="clipPath452">
      <path
         d="m 214.628,405.273 -28.301,-30.046 5.221,-4.898 28.279,30.796 c 0.65,2.496 -1.878,4.754 -3.791,4.754 l 0,0 c -0.55,0 -1.048,-0.186 -1.408,-0.606"
         id="path454" />
    </clipPath>
    <linearGradient
       x1="0"
       y1="0"
       x2="1"
       y2="0"
       gradientUnits="userSpaceOnUse"
       gradientTransform="matrix(-5.2210541,4.89711,4.89711,5.2210541,206.46307,386.22974)"
       spreadMethod="pad"
       id="linearGradient460">
      <stop
         style="stop-opacity:1;stop-color:#7b7979"
         offset="0"
         id="stop462" />
      <stop
         style="stop-opacity:1;stop-color:#ffffff"
         offset="0.300003"
         id="stop464" />
      <stop
         style="stop-opacity:1;stop-color:#4f4c4d"
         offset="1"
         id="stop466" />
    </linearGradient>
    <clipPath
       clipPathUnits="userSpaceOnUse"
       id="clipPath474">
      <path
         d="m 118.984,345.413 373.766,0 0,204.388 -373.766,0 0,-204.388 z"
         id="path476" />
    </clipPath>
    <clipPath
       clipPathUnits="userSpaceOnUse"
       id="clipPath500">
      <path
         d="m 270.632,405.273 -28.301,-30.046 5.22,-4.898 28.28,30.796 c 0.65,2.496 -1.877,4.754 -3.792,4.754 l 0,0 c -0.549,0 -1.048,-0.186 -1.407,-0.606"
         id="path502" />
    </clipPath>
    <linearGradient
       x1="0"
       y1="0"
       x2="1"
       y2="0"
       gradientUnits="userSpaceOnUse"
       gradientTransform="matrix(-5.2210541,4.89711,4.89711,5.2210541,262.46606,386.23071)"
       spreadMethod="pad"
       id="linearGradient508">
      <stop
         style="stop-opacity:1;stop-color:#7b7979"
         offset="0"
         id="stop510" />
      <stop
         style="stop-opacity:1;stop-color:#ffffff"
         offset="0.300003"
         id="stop512" />
      <stop
         style="stop-opacity:1;stop-color:#4f4c4d"
         offset="1"
         id="stop514" />
    </linearGradient>
    <clipPath
       clipPathUnits="userSpaceOnUse"
       id="clipPath522">
      <path
         d="m 118.984,345.413 373.766,0 0,204.388 -373.766,0 0,-204.388 z"
         id="path524" />
    </clipPath>
    <clipPath
       clipPathUnits="userSpaceOnUse"
       id="clipPath548">
      <path
         d="m 159.961,405.273 -28.302,-30.046 5.22,-4.898 28.28,30.796 c 0.65,2.496 -1.877,4.754 -3.791,4.754 l 0,0 c -0.55,0 -1.048,-0.186 -1.407,-0.606"
         id="path550" />
    </clipPath>
    <linearGradient
       x1="0"
       y1="0"
       x2="1"
       y2="0"
       gradientUnits="userSpaceOnUse"
       gradientTransform="matrix(-5.2210541,4.89711,4.89711,5.2210541,151.79417,386.22974)"
       spreadMethod="pad"
       id="linearGradient556">
      <stop
         style="stop-opacity:1;stop-color:#7b7979"
         offset="0"
         id="stop558" />
      <stop
         style="stop-opacity:1;stop-color:#ffffff"
         offset="0.300003"
         id="stop560" />
      <stop
         style="stop-opacity:1;stop-color:#4f4c4d"
         offset="1"
         id="stop562" />
    </linearGradient>
    <clipPath
       clipPathUnits="userSpaceOnUse"
       id="clipPath570">
      <path
         d="m 118.984,345.413 373.766,0 0,204.388 -373.766,0 0,-204.388 z"
         id="path572" />
    </clipPath>
    <clipPath
       clipPathUnits="userSpaceOnUse"
       id="clipPath652">
      <path
         d="m 456.093,496.349 c -0.835,-0.5 -1.165,-4.5 0,-5 l 0,0 35.166,0 0,5 -35.166,0 z"
         id="path654" />
    </clipPath>
    <linearGradient
       x1="0"
       y1="0"
       x2="1"
       y2="0"
       gradientUnits="userSpaceOnUse"
       gradientTransform="matrix(0,5,5,0,473.29909,491.34903)"
       spreadMethod="pad"
       id="linearGradient660">
      <stop
         style="stop-opacity:1;stop-color:#7b7979"
         offset="0"
         id="stop662" />
      <stop
         style="stop-opacity:1;stop-color:#ffffff"
         offset="0.300003"
         id="stop664" />
      <stop
         style="stop-opacity:1;stop-color:#4f4c4d"
         offset="1"
         id="stop666" />
    </linearGradient>
    <clipPath
       clipPathUnits="userSpaceOnUse"
       id="clipPath674">
      <path
         d="m 118.984,345.413 373.766,0 0,204.388 -373.766,0 0,-204.388 z"
         id="path676" />
    </clipPath>
    <clipPath
       clipPathUnits="userSpaceOnUse"
       id="clipPath714">
      <path
         d="m 436.343,476.097 c -0.835,-0.5 -1.165,-4.5 0,-5 l 0,0 35.166,0 0,5 -35.166,0 z"
         id="path716" />
    </clipPath>
    <linearGradient
       x1="0"
       y1="0"
       x2="1"
       y2="0"
       gradientUnits="userSpaceOnUse"
       gradientTransform="matrix(0,5,5,0,453.54906,471.09717)"
       spreadMethod="pad"
       id="linearGradient722">
      <stop
         style="stop-opacity:1;stop-color:#7b7979"
         offset="0"
         id="stop724" />
      <stop
         style="stop-opacity:1;stop-color:#ffffff"
         offset="0.300003"
         id="stop726" />
      <stop
         style="stop-opacity:1;stop-color:#4f4c4d"
         offset="1"
         id="stop728" />
    </linearGradient>
    <clipPath
       clipPathUnits="userSpaceOnUse"
       id="clipPath736">
      <path
         d="m 118.984,345.413 373.766,0 0,204.388 -373.766,0 0,-204.388 z"
         id="path738" />
    </clipPath>
    <clipPath
       clipPathUnits="userSpaceOnUse"
       id="clipPath748">
      <path
         d="m 416.843,456.599 c -0.835,-0.5 -1.165,-4.5 0,-5 l 0,0 35.166,0 0,5 -35.166,0 z"
         id="path750" />
    </clipPath>
    <linearGradient
       x1="0"
       y1="0"
       x2="1"
       y2="0"
       gradientUnits="userSpaceOnUse"
       gradientTransform="matrix(0,5,5,0,434.04906,451.59903)"
       spreadMethod="pad"
       id="linearGradient756">
      <stop
         style="stop-opacity:1;stop-color:#7b7979"
         offset="0"
         id="stop758" />
      <stop
         style="stop-opacity:1;stop-color:#ffffff"
         offset="0.300003"
         id="stop760" />
      <stop
         style="stop-opacity:1;stop-color:#4f4c4d"
         offset="1"
         id="stop762" />
    </linearGradient>
    <clipPath
       clipPathUnits="userSpaceOnUse"
       id="clipPath770">
      <path
         d="m 118.984,345.413 373.766,0 0,204.388 -373.766,0 0,-204.388 z"
         id="path772" />
    </clipPath>
    <inkscape:perspective
       id="perspective4331"
       inkscape:persp3d-origin="0.5 : 0.33333333 : 1"
       inkscape:vp_z="1 : 0.5 : 1"
       inkscape:vp_y="0 : 1000 : 0"
       inkscape:vp_x="0 : 0.5 : 1"
       sodipodi:type="inkscape:persp3d" />
    <inkscape:perspective
       id="perspective4720"
       inkscape:persp3d-origin="0.5 : 0.33333333 : 1"
       inkscape:vp_z="1 : 0.5 : 1"
       inkscape:vp_y="0 : 1000 : 0"
       inkscape:vp_x="0 : 0.5 : 1"
       sodipodi:type="inkscape:persp3d" />
    <inkscape:perspective
       id="perspective4777"
       inkscape:persp3d-origin="0.5 : 0.33333333 : 1"
       inkscape:vp_z="1 : 0.5 : 1"
       inkscape:vp_y="0 : 1000 : 0"
       inkscape:vp_x="0 : 0.5 : 1"
       sodipodi:type="inkscape:persp3d" />
    <inkscape:perspective
       id="perspective4813"
       inkscape:persp3d-origin="0.5 : 0.33333333 : 1"
       inkscape:vp_z="1 : 0.5 : 1"
       inkscape:vp_y="0 : 1000 : 0"
       inkscape:vp_x="0 : 0.5 : 1"
       sodipodi:type="inkscape:persp3d" />
    <inkscape:perspective
       id="perspective4813-3"
       inkscape:persp3d-origin="0.5 : 0.33333333 : 1"
       inkscape:vp_z="1 : 0.5 : 1"
       inkscape:vp_y="0 : 1000 : 0"
       inkscape:vp_x="0 : 0.5 : 1"
       sodipodi:type="inkscape:persp3d" />
    <inkscape:perspective
       id="perspective4849"
       inkscape:persp3d-origin="0.5 : 0.33333333 : 1"
       inkscape:vp_z="1 : 0.5 : 1"
       inkscape:vp_y="0 : 1000 : 0"
       inkscape:vp_x="0 : 0.5 : 1"
       sodipodi:type="inkscape:persp3d" />
    <inkscape:perspective
       id="perspective4874"
       inkscape:persp3d-origin="0.5 : 0.33333333 : 1"
       inkscape:vp_z="1 : 0.5 : 1"
       inkscape:vp_y="0 : 1000 : 0"
       inkscape:vp_x="0 : 0.5 : 1"
       sodipodi:type="inkscape:persp3d" />
    <inkscape:perspective
       id="perspective4874-5"
       inkscape:persp3d-origin="0.5 : 0.33333333 : 1"
       inkscape:vp_z="1 : 0.5 : 1"
       inkscape:vp_y="0 : 1000 : 0"
       inkscape:vp_x="0 : 0.5 : 1"
       sodipodi:type="inkscape:persp3d" />
    <inkscape:perspective
       id="perspective4910"
       inkscape:persp3d-origin="0.5 : 0.33333333 : 1"
       inkscape:vp_z="1 : 0.5 : 1"
       inkscape:vp_y="0 : 1000 : 0"
       inkscape:vp_x="0 : 0.5 : 1"
       sodipodi:type="inkscape:persp3d" />
    <inkscape:perspective
       id="perspective4910-6"
       inkscape:persp3d-origin="0.5 : 0.33333333 : 1"
       inkscape:vp_z="1 : 0.5 : 1"
       inkscape:vp_y="0 : 1000 : 0"
       inkscape:vp_x="0 : 0.5 : 1"
       sodipodi:type="inkscape:persp3d" />
    <inkscape:perspective
       id="perspective4946"
       inkscape:persp3d-origin="0.5 : 0.33333333 : 1"
       inkscape:vp_z="1 : 0.5 : 1"
       inkscape:vp_y="0 : 1000 : 0"
       inkscape:vp_x="0 : 0.5 : 1"
       sodipodi:type="inkscape:persp3d" />
    <inkscape:perspective
       id="perspective4946-8"
       inkscape:persp3d-origin="0.5 : 0.33333333 : 1"
       inkscape:vp_z="1 : 0.5 : 1"
       inkscape:vp_y="0 : 1000 : 0"
       inkscape:vp_x="0 : 0.5 : 1"
       sodipodi:type="inkscape:persp3d" />
    <inkscape:perspective
       id="perspective4982"
       inkscape:persp3d-origin="0.5 : 0.33333333 : 1"
       inkscape:vp_z="1 : 0.5 : 1"
       inkscape:vp_y="0 : 1000 : 0"
       inkscape:vp_x="0 : 0.5 : 1"
       sodipodi:type="inkscape:persp3d" />
    <inkscape:perspective
       id="perspective4982-7"
       inkscape:persp3d-origin="0.5 : 0.33333333 : 1"
       inkscape:vp_z="1 : 0.5 : 1"
       inkscape:vp_y="0 : 1000 : 0"
       inkscape:vp_x="0 : 0.5 : 1"
       sodipodi:type="inkscape:persp3d" />
    <inkscape:perspective
       id="perspective4982-6"
       inkscape:persp3d-origin="0.5 : 0.33333333 : 1"
       inkscape:vp_z="1 : 0.5 : 1"
       inkscape:vp_y="0 : 1000 : 0"
       inkscape:vp_x="0 : 0.5 : 1"
       sodipodi:type="inkscape:persp3d" />
    <inkscape:perspective
       id="perspective4982-0"
       inkscape:persp3d-origin="0.5 : 0.33333333 : 1"
       inkscape:vp_z="1 : 0.5 : 1"
       inkscape:vp_y="0 : 1000 : 0"
       inkscape:vp_x="0 : 0.5 : 1"
       sodipodi:type="inkscape:persp3d" />
    <inkscape:perspective
       id="perspective5040"
       inkscape:persp3d-origin="0.5 : 0.33333333 : 1"
       inkscape:vp_z="1 : 0.5 : 1"
       inkscape:vp_y="0 : 1000 : 0"
       inkscape:vp_x="0 : 0.5 : 1"
       sodipodi:type="inkscape:persp3d" />
    <inkscape:perspective
       id="perspective5040-0"
       inkscape:persp3d-origin="0.5 : 0.33333333 : 1"
       inkscape:vp_z="1 : 0.5 : 1"
       inkscape:vp_y="0 : 1000 : 0"
       inkscape:vp_x="0 : 0.5 : 1"
       sodipodi:type="inkscape:persp3d" />
    <inkscape:perspective
       id="perspective5040-03"
       inkscape:persp3d-origin="0.5 : 0.33333333 : 1"
       inkscape:vp_z="1 : 0.5 : 1"
       inkscape:vp_y="0 : 1000 : 0"
       inkscape:vp_x="0 : 0.5 : 1"
       sodipodi:type="inkscape:persp3d" />
    <inkscape:perspective
       id="perspective5087"
       inkscape:persp3d-origin="0.5 : 0.33333333 : 1"
       inkscape:vp_z="1 : 0.5 : 1"
       inkscape:vp_y="0 : 1000 : 0"
       inkscape:vp_x="0 : 0.5 : 1"
       sodipodi:type="inkscape:persp3d" />
    <inkscape:perspective
       id="perspective5087-3"
       inkscape:persp3d-origin="0.5 : 0.33333333 : 1"
       inkscape:vp_z="1 : 0.5 : 1"
       inkscape:vp_y="0 : 1000 : 0"
       inkscape:vp_x="0 : 0.5 : 1"
       sodipodi:type="inkscape:persp3d" />
    <inkscape:perspective
       id="perspective4442"
       inkscape:persp3d-origin="0.5 : 0.33333333 : 1"
       inkscape:vp_z="1 : 0.5 : 1"
       inkscape:vp_y="0 : 1000 : 0"
       inkscape:vp_x="0 : 0.5 : 1"
       sodipodi:type="inkscape:persp3d" />
    <inkscape:perspective
       id="perspective4442-3"
       inkscape:persp3d-origin="0.5 : 0.33333333 : 1"
       inkscape:vp_z="1 : 0.5 : 1"
       inkscape:vp_y="0 : 1000 : 0"
       inkscape:vp_x="0 : 0.5 : 1"
       sodipodi:type="inkscape:persp3d" />
    <inkscape:perspective
       id="perspective4473"
       inkscape:persp3d-origin="0.5 : 0.33333333 : 1"
       inkscape:vp_z="1 : 0.5 : 1"
       inkscape:vp_y="0 : 1000 : 0"
       inkscape:vp_x="0 : 0.5 : 1"
       sodipodi:type="inkscape:persp3d" />
    <inkscape:perspective
       id="perspective5007"
       inkscape:persp3d-origin="0.5 : 0.33333333 : 1"
       inkscape:vp_z="1 : 0.5 : 1"
       inkscape:vp_y="0 : 1000 : 0"
       inkscape:vp_x="0 : 0.5 : 1"
       sodipodi:type="inkscape:persp3d" />
    <inkscape:perspective
       id="perspective5080"
       inkscape:persp3d-origin="0.5 : 0.33333333 : 1"
       inkscape:vp_z="1 : 0.5 : 1"
       inkscape:vp_y="0 : 1000 : 0"
       inkscape:vp_x="0 : 0.5 : 1"
       sodipodi:type="inkscape:persp3d" />
    <inkscape:perspective
       id="perspective5080-6"
       inkscape:persp3d-origin="0.5 : 0.33333333 : 1"
       inkscape:vp_z="1 : 0.5 : 1"
       inkscape:vp_y="0 : 1000 : 0"
       inkscape:vp_x="0 : 0.5 : 1"
       sodipodi:type="inkscape:persp3d" />
    <inkscape:perspective
       id="perspective5111"
       inkscape:persp3d-origin="0.5 : 0.33333333 : 1"
       inkscape:vp_z="1 : 0.5 : 1"
       inkscape:vp_y="0 : 1000 : 0"
       inkscape:vp_x="0 : 0.5 : 1"
       sodipodi:type="inkscape:persp3d" />
    <inkscape:perspective
       id="perspective5111-4"
       inkscape:persp3d-origin="0.5 : 0.33333333 : 1"
       inkscape:vp_z="1 : 0.5 : 1"
       inkscape:vp_y="0 : 1000 : 0"
       inkscape:vp_x="0 : 0.5 : 1"
       sodipodi:type="inkscape:persp3d" />
    <inkscape:perspective
       id="perspective5142"
       inkscape:persp3d-origin="0.5 : 0.33333333 : 1"
       inkscape:vp_z="1 : 0.5 : 1"
       inkscape:vp_y="0 : 1000 : 0"
       inkscape:vp_x="0 : 0.5 : 1"
       sodipodi:type="inkscape:persp3d" />
    <inkscape:perspective
       id="perspective5142-5"
       inkscape:persp3d-origin="0.5 : 0.33333333 : 1"
       inkscape:vp_z="1 : 0.5 : 1"
       inkscape:vp_y="0 : 1000 : 0"
       inkscape:vp_x="0 : 0.5 : 1"
       sodipodi:type="inkscape:persp3d" />
  </defs>
  <sodipodi:namedview
     id="base"
     pagecolor="#ffffff"
     bordercolor="#666666"
     borderopacity="1.0"
     inkscape:pageopacity="0.0"
     inkscape:pageshadow="2"
     inkscape:zoom="2"
     inkscape:cx="437.80646"
     inkscape:cy="851.0266"
     inkscape:document-units="px"
     inkscape:current-layer="layer1"
     showgrid="false"
     inkscape:window-width="1280"
     inkscape:window-height="778"
     inkscape:window-x="-4"
     inkscape:window-y="-3"
     inkscape:window-maximized="1" />
  <metadata
     id="metadata3532">
    <rdf:RDF>
      <cc:Work
         rdf:about="">
        <dc:format>image/svg+xml</dc:format>
        <dc:type
           rdf:resource="http://purl.org/dc/dcmitype/StillImage" />
        <dc:title></dc:title>
      </cc:Work>
    </rdf:RDF>
  </metadata>
  <g
     inkscape:label="Layer 1"
     inkscape:groupmode="layer"
     id="layer1">
    <g
       id="g126"
       transform="matrix(1.25,0,0,-1.25,243.33733,260.25245)">
      <path
         d="m 0,0 56.452,49.375 122.562,0 L 129.433,0 0,0 z"
         style="fill:#d0dcf3;fill-opacity:1;fill-rule:nonzero;stroke:none"
         id="path128" />
    </g>
    <g
       id="g130"
       transform="matrix(1.25,0,0,-1.25,405.12873,265.81008)">
      <path
         d="m 0,0 49.581,50.295 0,3.51 L 0,4.446 0,0 z"
         style="fill:#4f8cd1;fill-opacity:1;fill-rule:nonzero;stroke:none"
         id="path132" />
    </g>
    <path
       d="m 405.12863,260.2522 -162.0575,0 0,5.255 162.0575,0 0,-5.255 z"
       style="fill:#78a3dc;fill-opacity:1;fill-rule:nonzero;stroke:none"
       id="path134" />
    <g
       id="g140"
       transform="matrix(1.25,0,0,-1.25,486.71873,203.47582)">
      <path
         d="M 0,0 2.101,2.5 18.851,2.418 17.017,0 0,0 z"
         style="fill:#b9cced;fill-opacity:1;fill-rule:nonzero;stroke:none"
         id="path142" />
    </g>
    <g
       id="g144"
       transform="matrix(1.25,0,0,-1.25,507.98983,213.09482)">
      <path
         d="m 0,0 1.871,3.337 0,6.761 L 0,7.695 0,0 z"
         style="fill:#4f8cd1;fill-opacity:1;fill-rule:nonzero;stroke:none"
         id="path146" />
    </g>
    <path
       d="m 507.98983,203.47595 -21.12,0 0,9.62875 21.12,0 0,-9.62875 z"
       style="fill:#8db0e1;fill-opacity:1;fill-rule:nonzero;stroke:none"
       id="path148" />
    <g
       id="g150"
       transform="matrix(1.25,0,0,-1.25,509.44873,206.18583)">
      <path
         d="M 0,0 21.333,0"
         style="fill:none;stroke:#287ac8;stroke-width:2;stroke-linecap:butt;stroke-linejoin:miter;stroke-miterlimit:4;stroke-opacity:1;stroke-dasharray:none"
         id="path152" />
    </g>
    <g
       id="g244"
       transform="matrix(1.25,0,0,-1.25,243.33733,214.00432)">
      <path
         d="m 0,0 56.452,49.375 122.562,0 L 129.433,0 0,0 z"
         style="fill:#aaa4a2;fill-opacity:1;fill-rule:nonzero;stroke:none"
         id="path246" />
    </g>
    <g
       id="g344"
       transform="matrix(1.25,0,0,-1.25,405.12873,174.1447)">
      <path
         d="m 0,0 49.581,50.295 0,3.51 L 0,4.445 0,0 z"
         style="fill:#4f8cd1;fill-opacity:1;fill-rule:nonzero;stroke:none"
         id="path346" />
    </g>
    <g
       id="g248"
       transform="matrix(1.25,0,0,-1.25,405.12873,219.5612)">
      <path
         d="m 0,0 49.581,50.295 0,3.51 L 0,4.446 0,0 z"
         style="fill:#585353;fill-opacity:1;fill-rule:nonzero;stroke:none"
         id="path250" />
    </g>
    <rect
       style="fill:#000000;fill-opacity:1;fill-rule:nonzero;stroke:none"
       id="rect4406-0"
       width="2.429594"
       height="78.539841"
       x="-213.40854"
       y="410.56665"
       transform="matrix(0,-1,1,0,0,0)" />
    <path
       d="m 405.12863,214.0047 -162.0575,0 0,5.255 162.0575,0 0,-5.255 z"
       style="fill:#7d7675;fill-opacity:1;fill-rule:nonzero;stroke:none"
       id="path252" />
    <g
       id="g304"
       transform="matrix(1.25,0,0,-1.25,233.84513,245.68507)">
      <path
         d="M 0,0 -16.833,-17.666"
         style="fill:#2e2d2d;fill-opacity:1;fill-rule:nonzero;stroke:none"
         id="path306" />
    </g>
    <g
       id="g340"
       transform="matrix(1.25,0,0,-1.25,243.33733,168.58807)">
      <path
         d="m 0,0 56.452,49.375 122.562,0 L 129.433,0 0,0 z"
         style="fill:#d0dcf3;fill-opacity:1;fill-rule:nonzero;stroke:none"
         id="path342" />
    </g>
    <path
       d="m 405.12863,168.58845 -162.0575,0 0,5.25375 162.0575,0 0,-5.25375 z"
       style="fill:#78a3dc;fill-opacity:1;fill-rule:nonzero;stroke:none"
       id="path348" />
    <path
       d="m 277.21983,303.26595 -8.7537,0 0,-55.41625 8.7537,0 0,55.41625 z"
       style="fill:#8db0e1;fill-opacity:1;fill-rule:nonzero;stroke:none"
       id="path438" />
    <rect
       style="fill:#287ac8;fill-opacity:1;fill-rule:nonzero;stroke:none"
       id="use5029"
       width="4.1957698"
       height="53.914036"
       x="399.72824"
       y="-267.01263"
       transform="matrix(0.3731435,0.92777364,-0.65189543,0.75830887,0,0)"
       ry="0" />
    <g
       id="g434"
       transform="matrix(1.25,0,0,-1.25,268.49363,247.83507)">
      <path
         d="M 0,0 12.781,31.99 19.814,31.813 7.16,-0.219 0,0 z"
         style="fill:#b9cced;fill-opacity:1;fill-rule:nonzero;stroke:none"
         id="path436" />
    </g>
    <rect
       style="fill:#000000;fill-opacity:1;fill-rule:nonzero;stroke:none"
       id="rect4406-0-1-0"
       width="3.5154481"
       height="58.775108"
       x="430.72903"
       y="-234.06429"
       transform="matrix(0.39922418,0.91685334,-0.63936405,0.76890417,0,0)"
       ry="0" />
    <rect
       style="fill:#7d7675;fill-opacity:1;fill-rule:nonzero;stroke:none"
       id="rect4406-0-6-5-1"
       width="3.346236"
       height="57.795403"
       x="470.19345"
       y="-223.66467"
       transform="matrix(0.38715531,0.92201452,-0.6369886,0.77087322,0,0)" />
    <g
       id="g440"
       transform="matrix(1.25,0,0,-1.25,293.26123,207.81045)">
      <path
         d="m 0,0 -0.031,-87.864 -12.801,11.552 0.001,44.272 L 0,0 z"
         style="fill:#6397d6;fill-opacity:1;fill-rule:nonzero;stroke:none"
         id="path442" />
    </g>
    <g
       id="g444"
       transform="matrix(1.25,0,0,-1.25,268.42763,303.20008)">
      <path
         d="m 0,0 12.803,-11.552 7.033,0 L 7.035,0"
         style="fill:#78a3dc;fill-opacity:1;fill-rule:nonzero;stroke:none"
         id="path446" />
    </g>
    <g
       transform="matrix(1.25,0,0,-1.25,2.1523286,777.1372)"
       id="g448">
      <g
         id="g450"
         clip-path="url(#clipPath452)">
        <g
           id="g456">
          <g
             id="g458">
            <path
               d="m 214.628,405.273 -28.301,-30.046 5.221,-4.898 28.279,30.796 c 0.65,2.496 -1.878,4.754 -3.791,4.754 l 0,0 c -0.55,0 -1.048,-0.186 -1.408,-0.606"
               style="fill:url(#linearGradient460);stroke:none"
               id="path468" />
          </g>
        </g>
      </g>
    </g>
    <rect
       style="fill:#287ac8;fill-opacity:1;fill-rule:nonzero;stroke:none"
       id="use5031"
       width="3.7230122"
       height="53.032047"
       x="488.46286"
       y="-376.52353"
       transform="matrix(0.32137224,0.94695295,-0.62577145,0.78000647,0,0)"
       ry="0" />
    <rect
       style="fill:#000000;fill-opacity:1;fill-rule:nonzero;stroke:none"
       id="rect4406-0-1-4"
       width="3.2280056"
       height="58.644016"
       x="508.29874"
       y="-348.79187"
       transform="matrix(0.32936531,0.94420257,-0.65004132,0.75989886,0,0)" />
    <rect
       style="fill:#7d7675;fill-opacity:1;fill-rule:nonzero;stroke:none"
       id="rect4406-0-6-5"
       width="3.0634923"
       height="57.560749"
       x="530.01215"
       y="-292.71793"
       transform="matrix(0.39139094,0.9202245,-0.63343714,0.77379415,0,0)" />
    <g
       transform="matrix(1.25,0,0,-1.25,2.1523286,777.1372)"
       id="g470">
      <g
         id="g472"
         clip-path="url(#clipPath474)">
        <g
           id="g478"
           transform="translate(192.8864,373.3727)">
          <path
             d="m 0,0 c 0.061,-1.898 -1.427,-3.486 -3.324,-3.546 -1.899,-0.06 -3.486,1.428 -3.547,3.325 -0.061,1.898 1.429,3.487 3.327,3.549 C -1.646,3.386 -0.061,1.896 0,0"
             style="fill:#6a6363;fill-opacity:1;fill-rule:nonzero;stroke:none"
             id="path480" />
        </g>
        <g
           id="g482"
           transform="translate(269.0771,423.4417)">
          <path
             d="M 0,0 12.781,31.99 19.814,31.813 7.16,-0.219 0,0 z"
             style="fill:#b9cced;fill-opacity:1;fill-rule:nonzero;stroke:none"
             id="path484" />
        </g>
        <path
           d="m 276.058,379.097 -7.003,0 0,44.333 7.003,0 0,-44.333 z"
           style="fill:#8db0e1;fill-opacity:1;fill-rule:nonzero;stroke:none"
           id="path486" />
        <g
           id="g488"
           transform="translate(288.8911,455.4614)">
          <path
             d="m 0,0 -0.031,-87.864 -12.801,11.552 0.001,44.272 L 0,0 z"
             style="fill:#6397d6;fill-opacity:1;fill-rule:nonzero;stroke:none"
             id="path490" />
        </g>
        <g
           id="g492"
           transform="translate(269.024,379.1497)">
          <path
             d="m 0,0 12.803,-11.552 7.033,0 L 7.035,0"
             style="fill:#78a3dc;fill-opacity:1;fill-rule:nonzero;stroke:none"
             id="path494" />
        </g>
      </g>
    </g>
    <g
       transform="matrix(1.25,0,0,-1.25,2.1523286,777.1372)"
       id="g496">
      <g
         id="g498"
         clip-path="url(#clipPath500)">
        <g
           id="g504">
          <g
             id="g506">
            <path
               d="m 270.632,405.273 -28.301,-30.046 5.22,-4.898 28.28,30.796 c 0.65,2.496 -1.877,4.754 -3.792,4.754 l 0,0 c -0.549,0 -1.048,-0.186 -1.407,-0.606"
               style="fill:url(#linearGradient508);stroke:none"
               id="path516" />
          </g>
        </g>
      </g>
    </g>
    <g
       id="g574"
       transform="matrix(1.25,0,0,-1.25,174.92545,310.42133)">
      <path
         d="m 0,0 c 0.061,-1.898 -1.427,-3.486 -3.324,-3.546 -1.899,-0.06 -3.486,1.428 -3.547,3.325 -0.061,1.898 1.429,3.487 3.327,3.549 C -1.646,3.386 -0.061,1.896 0,0"
         style="fill:#6a6363;fill-opacity:1;fill-rule:nonzero;stroke:none"
         id="path576" />
    </g>
    <g
       id="g578"
       transform="matrix(1.25,0,0,-1.25,392.46995,307.33245)">
      <path
         d="M 0,0 -16.834,-17.666"
         style="fill:none;stroke:#2e2d2d;stroke-width:2;stroke-linecap:butt;stroke-linejoin:miter;stroke-miterlimit:4;stroke-opacity:1;stroke-dasharray:none"
         id="path580" />
    </g>
    <g
       id="g582"
       transform="matrix(1.25,0,0,-1.25,393.67745,314.78757)">
      <path
         d="M 0,0 -2.076,4.801 -6.971,6.642 4.386,11.583 0,0 z"
         style="fill:#2e2d2d;fill-opacity:1;fill-rule:nonzero;stroke:none"
         id="path584" />
    </g>
    <g
       id="g594"
       transform="matrix(1.25,0,0,-1.25,519.8662,280.97757)">
      <path
         d="M 0,0 -21.333,0"
         style="fill:none;stroke:#2e2d2d;stroke-width:2;stroke-linecap:butt;stroke-linejoin:miter;stroke-miterlimit:4;stroke-opacity:1;stroke-dasharray:none"
         id="path596" />
    </g>
    <g
       id="g598"
       transform="matrix(1.25,0,0,-1.25,515.3012,286.99632)">
      <path
         d="M 0,0 2.045,4.815 0,9.63 11.411,4.815 0,0 z"
         style="fill:#2e2d2d;fill-opacity:1;fill-rule:nonzero;stroke:none"
         id="path600" />
    </g>
    <rect
       style="fill:#287ac8;fill-opacity:1;fill-rule:nonzero;stroke:none"
       id="rect4406"
       width="3.2500019"
       height="75.534645"
       x="-115.48721"
       y="462"
       transform="matrix(0,-1,1,0,0,0)" />
    <g
       id="g636"
       transform="matrix(1.25,0,0,-1.25,534.1437,108.73933)">
      <path
         d="m 0,0 0,-90 28.333,23.667 0,44.333 L 0,0 z"
         style="fill:#78a3dc;fill-opacity:1;fill-rule:nonzero;stroke:none"
         id="path638" />
    </g>
    <g
       id="g640"
       transform="matrix(1.25,0,0,-1.25,574.97745,130.92682)">
      <path
         d="m 0,0 -28.333,22 -4.333,-4.334 28.333,-22 L 0,0 z"
         style="fill:#b9cced;fill-opacity:1;fill-rule:nonzero;stroke:none"
         id="path642" />
    </g>
    <g
       id="g644"
       transform="matrix(1.25,0,0,-1.25,574.9762,185.9257)">
      <path
         d="M 0,0 -0.042,43.916 -4.333,39.665 -4.375,-4.626 0,0 z"
         style="fill:#4f8cd1;fill-opacity:1;fill-rule:nonzero;stroke:none"
         id="path646" />
    </g>
    <g
       transform="matrix(1.25,0,0,-1.25,2.1523286,777.1372)"
       id="g648">
      <g
         id="g650"
         clip-path="url(#clipPath652)">
        <g
           id="g656">
          <g
             id="g658">
            <path
               d="m 456.093,496.349 c -0.835,-0.5 -1.165,-4.5 0,-5 l 0,0 35.166,0 0,5 -35.166,0 z"
               style="fill:url(#linearGradient660);stroke:none"
               id="path668" />
          </g>
        </g>
      </g>
    </g>
    <g
       id="g678"
       transform="matrix(1.25,0,0,-1.25,615.18495,159.82582)">
      <path
         d="M 0,0 C 0,-1.427 0.25,-2.25 0.416,-2.584 0.519,-2.79 0.833,-1.427 0.833,0 0.833,1.426 0.647,2.583 0.416,2.583 0.187,2.583 0,1.426 0,0"
         style="fill:#938c8a;fill-opacity:1;fill-rule:nonzero;stroke:none"
         id="path680" />
    </g>
    <use
       x="0"
       y="0"
       xlink:href="#rect4406"
       id="use5049"
       transform="matrix(0.94207956,0,0,1,3.2592433,24)"
       width="744.09448"
       height="1052.3622" />
    <g
       id="g686"
       transform="matrix(1.25,0,0,-1.25,550.28995,156.24195)">
      <path
         d="m 0,0 -28.333,22 -4.333,-4.334 28.333,-22 L 0,0 z"
         style="fill:#b9cced;fill-opacity:1;fill-rule:nonzero;stroke:none"
         id="path688" />
    </g>
    <g
       id="g690"
       transform="matrix(1.25,0,0,-1.25,550.2887,211.2407)">
      <path
         d="M 0,0 -0.042,43.916 -4.333,39.665 -4.375,-4.625 0,0 z"
         style="fill:#4f8cd1;fill-opacity:1;fill-rule:nonzero;stroke:none"
         id="path692" />
    </g>
    <use
       x="0"
       y="0"
       xlink:href="#rect4406-0"
       id="use5066"
       transform="matrix(0.60529586,0,0,1,214.19282,-53.646447)"
       width="744.09448"
       height="1052.3622" />
    <g
       id="g682"
       transform="matrix(1.25,0,0,-1.25,509.4562,134.05445)">
      <path
         d="m 0,0 0,-89.999 28.333,23.666 0,44.333 L 0,0 z"
         style="fill:#78a3dc;fill-opacity:1;fill-rule:nonzero;stroke:none"
         id="path684" />
    </g>
    <use
       x="0"
       y="0"
       xlink:href="#rect4406"
       id="use5051"
       transform="matrix(1.0030947,0,0,1,-52.863104,52)"
       width="744.09448"
       height="1052.3622" />
    <use
       x="0"
       y="0"
       xlink:href="#rect4406-0"
       id="use5064"
       transform="matrix(0.60129356,0,0,1,191.62891,-30)"
       width="744.09448"
       height="1052.3622" />
    <g
       id="g702"
       transform="matrix(1.25,0,0,-1.25,525.9137,235.61383)">
      <path
         d="M 0,0 -0.042,43.917 -4.333,39.666 -4.375,-4.626 0,0 z"
         style="fill:#4f8cd1;fill-opacity:1;fill-rule:nonzero;stroke:none"
         id="path704" />
    </g>
    <g
       transform="matrix(1.25,0,0,-1.25,2.1523286,777.1372)"
       id="g710">
      <g
         id="g712"
         clip-path="url(#clipPath714)">
        <g
           id="g718">
          <g
             id="g720">
            <path
               d="m 436.343,476.097 c -0.835,-0.5 -1.165,-4.5 0,-5 l 0,0 35.166,0 0,5 -35.166,0 z"
               style="fill:url(#linearGradient722);stroke:none"
               id="path730" />
          </g>
        </g>
      </g>
    </g>
    <g
       transform="matrix(1.25,0,0,-1.25,2.1523286,777.1372)"
       id="g732">
      <g
         id="g734"
         clip-path="url(#clipPath736)">
        <g
           id="g740"
           transform="translate(470.676,473.5971)">
          <path
             d="M 0,0 C 0,-1.427 0.25,-2.25 0.416,-2.584 0.519,-2.79 0.833,-1.427 0.833,0 0.833,1.426 0.647,2.583 0.416,2.583 0.187,2.583 0,1.426 0,0"
             style="fill:#938c8a;fill-opacity:1;fill-rule:nonzero;stroke:none"
             id="path742" />
        </g>
      </g>
    </g>
    <g
       transform="matrix(1.25,0,0,-1.25,2.1523286,777.1372)"
       id="g744">
      <g
         id="g746"
         clip-path="url(#clipPath748)">
        <g
           id="g752">
          <g
             id="g754">
            <path
               d="m 416.843,456.599 c -0.835,-0.5 -1.165,-4.5 0,-5 l 0,0 35.166,0 0,5 -35.166,0 z"
               style="fill:url(#linearGradient756);stroke:none"
               id="path764" />
          </g>
        </g>
      </g>
    </g>
    <g
       transform="matrix(1.25,0,0,-1.25,2.1523286,777.1372)"
       id="g766">
      <g
         id="g768"
         clip-path="url(#clipPath770)">
        <g
           id="g774"
           transform="translate(451.176,454.0991)">
          <path
             d="M 0,0 C 0,-1.427 0.25,-2.25 0.416,-2.584 0.519,-2.79 0.833,-1.427 0.833,0 0.833,1.426 0.647,2.583 0.416,2.583 0.187,2.583 0,1.426 0,0"
             style="fill:#938c8a;fill-opacity:1;fill-rule:nonzero;stroke:none"
             id="path776" />
        </g>
      </g>
    </g>
    <text
       xml:space="preserve"
       style="font-size:12px;font-style:normal;font-weight:normal;fill:#000000;fill-opacity:1;stroke:none;font-family:Bitstream Vera Sans;-inkscape-font-specification:Andale Mono"
       x="310.79843"
       y="100.69666"
       id="text4270"><tspan
         sodipodi:role="line"
         id="tspan4272"
         x="310.79843"
         y="100.69666"
         style="font-size:10px;font-weight:normal;-inkscape-font-specification:Andale Mono">Matriz de Comutação Óptica</tspan></text>
    <text
       xml:space="preserve"
       style="font-size:10px;font-style:normal;font-weight:normal;fill:#000000;fill-opacity:1;stroke:none;font-family:Bitstream Vera Sans;-inkscape-font-specification:Andale Mono"
       x="187.37708"
       y="339.29663"
       id="text4274"><tspan
         sodipodi:role="line"
         id="tspan4276"
         x="187.37708"
         y="339.29663">Demultiplexadores WDM</tspan></text>
    <text
       xml:space="preserve"
       style="font-size:10px;font-style:normal;font-weight:normal;fill:#000000;fill-opacity:1;stroke:none;font-family:Bitstream Vera Sans;-inkscape-font-specification:Andale Mono;text-anchor:middle;text-align:center"
       x="573.03198"
       y="94.247803"
       id="text4280"><tspan
         sodipodi:role="line"
         id="tspan4282"
         x="573.03198"
         y="94.247803">Multiplexadores</tspan><tspan
         sodipodi:role="line"
         x="573.03198"
         y="106.7478"
         id="tspan4284">WDM</tspan></text>
    <text
       xml:space="preserve"
       style="font-size:10px;font-style:normal;font-weight:normal;text-align:center;text-anchor:middle;fill:#000000;fill-opacity:1;stroke:none;font-family:Bitstream Vera Sans;-inkscape-font-specification:Andale Mono"
       x="430.71445"
       y="327.09357"
       id="text4317"><tspan
         sodipodi:role="line"
         id="tspan4319"
         x="430.71445"
         y="327.09357">Ligações Físicas</tspan><tspan
         sodipodi:role="line"
         x="430.71445"
         y="339.59357"
         id="tspan4321">de entrada</tspan></text>
    <text
       xml:space="preserve"
       style="font-size:10px;font-style:normal;font-weight:normal;text-align:center;text-anchor:middle;fill:#000000;fill-opacity:1;stroke:none;font-family:Bitstream Vera Sans;-inkscape-font-specification:Andale Mono"
       x="578.81378"
       y="280.93668"
       id="text4317-3"><tspan
         sodipodi:role="line"
         id="tspan4319-1"
         x="578.81378"
         y="280.93668">Ligações Físicas</tspan><tspan
         sodipodi:role="line"
         x="578.81378"
         y="293.43668"
         id="tspan4321-7">de saída</tspan></text>
    <rect
       style="fill:#7d7675;fill-opacity:1;fill-rule:nonzero;stroke:none"
       id="rect4406-0-6"
       width="2.3080602"
       height="79.5"
       x="-258.90686"
       y="410.56665"
       transform="matrix(0,-1,1,0,0,0)" />
    <rect
       style="fill:#287ac8;fill-opacity:1;fill-rule:nonzero;stroke:none"
       id="rect4406-6"
       width="3.9798322"
       height="53.843594"
       x="329.45306"
       y="-156.87427"
       transform="matrix(0.47058915,0.88235245,-0.6311572,0.77565494,0,0)"
       ry="0" />
    <rect
       style="fill:#000000;fill-opacity:1;fill-rule:nonzero;stroke:none"
       id="rect4406-0-1"
       width="3.0975761"
       height="59.306145"
       x="353.60754"
       y="-120.0123"
       transform="matrix(0.5010095,0.86544178,-0.6518671,0.75833323,0,0)" />
    <rect
       style="fill:#7d7675;fill-opacity:1;fill-rule:nonzero;stroke:none"
       id="rect4406-0-6-5-0"
       width="3.065731"
       height="56.169964"
       x="410.00436"
       y="-154.70587"
       transform="matrix(0.37807938,0.92577318,-0.6445304,0.76457868,0,0)" />
    <g
       transform="matrix(1.25,0,0,-1.25,2.1523286,777.1372)"
       id="g518">
      <g
         id="g520"
         clip-path="url(#clipPath522)">
        <g
           id="g526"
           transform="translate(248.8901,373.3727)">
          <path
             d="m 0,0 c 0.061,-1.898 -1.427,-3.486 -3.324,-3.546 -1.898,-0.06 -3.485,1.428 -3.547,3.325 -0.06,1.898 1.429,3.487 3.327,3.549 C -1.646,3.386 -0.06,1.896 0,0"
             style="fill:#6a6363;fill-opacity:1;fill-rule:nonzero;stroke:none"
             id="path528" />
        </g>
        <g
           id="g530"
           transform="translate(158.405,423.4417)">
          <path
             d="M 0,0 12.781,31.99 19.814,31.813 7.16,-0.219 0,0 z"
             style="fill:#b9cced;fill-opacity:1;fill-rule:nonzero;stroke:none"
             id="path532" />
        </g>
        <path
           d="m 165.386,379.097 -7.003,0 0,44.333 7.003,0 0,-44.333 z"
           style="fill:#8db0e1;fill-opacity:1;fill-rule:nonzero;stroke:none"
           id="path534" />
        <g
           id="g536"
           transform="translate(178.2195,455.4614)">
          <path
             d="m 0,0 -0.031,-87.864 -12.801,11.552 0.001,44.272 L 0,0 z"
             style="fill:#78a3dc;fill-opacity:1;fill-rule:nonzero;stroke:none"
             id="path538" />
        </g>
        <g
           id="g540"
           transform="translate(158.3523,379.1497)">
          <path
             d="m 0,0 12.803,-11.552 7.033,0 L 7.035,0"
             style="fill:#78a3dc;fill-opacity:1;fill-rule:nonzero;stroke:none"
             id="path542" />
        </g>
      </g>
    </g>
    <g
       transform="matrix(1.25,0,0,-1.25,2.1523286,777.1372)"
       id="g544">
      <g
         id="g546"
         clip-path="url(#clipPath548)">
        <g
           id="g552">
          <g
             id="g554">
            <path
               d="m 159.961,405.273 -28.302,-30.046 5.22,-4.898 28.28,30.796 c 0.65,2.496 -1.877,4.754 -3.791,4.754 l 0,0 c -0.55,0 -1.048,-0.186 -1.407,-0.606"
               style="fill:url(#linearGradient556);stroke:none"
               id="path564" />
          </g>
        </g>
      </g>
    </g>
    <rect
       style="fill:#7d7675;fill-opacity:1;fill-rule:nonzero;stroke:none"
       id="rect4406-0-6-1"
       width="2.3080602"
       height="50.25"
       x="-230.51622"
       y="438.5"
       transform="matrix(0,-1,1,0,0,0)" />
    <rect
       style="fill:#7d7675;fill-opacity:1;fill-rule:nonzero;stroke:none"
       id="rect4406-0-6-8"
       width="2.3080602"
       height="25.75"
       x="-206.76622"
       y="462"
       transform="matrix(0,-1,1,0,0,0)" />
    <g
       id="g694"
       transform="matrix(1.25,0,0,-1.25,485.0812,158.42682)">
      <path
         d="m 0,0 0,-90 28.333,23.666 0,44.334 L 0,0 z"
         style="fill:#78a3dc;fill-opacity:1;fill-rule:nonzero;stroke:none"
         id="path696" />
    </g>
    <g
       id="g698"
       transform="matrix(1.25,0,0,-1.25,525.91495,180.61445)">
      <path
         d="m 0,0 -28.333,22 -4.333,-4.334 28.333,-22 L 0,0 z"
         style="fill:#b9cced;fill-opacity:1;fill-rule:nonzero;stroke:none"
         id="path700" />
    </g>
  </g>
</svg>
