<?xml version="1.0" encoding="UTF-8" standalone="no"?>
<!-- Created with Inkscape (http://www.inkscape.org/) -->

<svg
   xmlns:dc="http://purl.org/dc/elements/1.1/"
   xmlns:cc="http://creativecommons.org/ns#"
   xmlns:rdf="http://www.w3.org/1999/02/22-rdf-syntax-ns#"
   xmlns:svg="http://www.w3.org/2000/svg"
   xmlns="http://www.w3.org/2000/svg"
   xmlns:sodipodi="http://sodipodi.sourceforge.net/DTD/sodipodi-0.dtd"
   xmlns:inkscape="http://www.inkscape.org/namespaces/inkscape"
   id="svg8179"
   version="1.1"
   inkscape:version="0.47pre4 r22446"
   width="744.1"
   height="1052.3625"
   xml:space="preserve"
   sodipodi:docname="p1.svg"><metadata
     id="metadata8185"><rdf:RDF><cc:Work
         rdf:about=""><dc:format>image/svg+xml</dc:format><dc:type
           rdf:resource="http://purl.org/dc/dcmitype/StillImage" /><dc:title></dc:title></cc:Work></rdf:RDF></metadata><defs
     id="defs8183"><inkscape:perspective
       sodipodi:type="inkscape:persp3d"
       inkscape:vp_x="0 : 0.5 : 1"
       inkscape:vp_y="0 : 1000 : 0"
       inkscape:vp_z="1 : 0.5 : 1"
       inkscape:persp3d-origin="0.5 : 0.33333333 : 1"
       id="perspective8187" /></defs><sodipodi:namedview
     pagecolor="#ffffff"
     bordercolor="#666666"
     borderopacity="1"
     objecttolerance="10"
     gridtolerance="10"
     guidetolerance="10"
     inkscape:pageopacity="0"
     inkscape:pageshadow="2"
     inkscape:window-width="1280"
     inkscape:window-height="778"
     id="namedview8181"
     showgrid="false"
     inkscape:zoom="1.3577887"
     inkscape:cx="374.67619"
     inkscape:cy="769.3589"
     inkscape:window-x="-4"
     inkscape:window-y="-3"
     inkscape:window-maximized="1"
     inkscape:current-layer="g8189" /><g
     id="g8189"
     inkscape:groupmode="layer"
     inkscape:label="dissertacao.fabio_lima"
     transform="matrix(1.25,0,0,-1.25,0,1052.3625)"><g
       id="g8793"><text
         style="font-size:15.89112473px"
         y="-545.08777"
         x="139.47112"
         transform="scale(0.75513848,-1.3242604)"
         id="text8217"
         sodipodi:linespacing="125%"><tspan
           style="font-size:7.91642919px;font-variant:normal;font-weight:normal;writing-mode:lr;fill:#000000;fill-opacity:1;fill-rule:nonzero;stroke:none;font-family:Nimbus Sans L;-inkscape-font-specification:Nimbus Sans L;font-style:normal;font-stretch:normal;text-anchor:start;text-align:start;line-height:125%"
           x="139.47112 143.87263 146.07341 150.47493 154.87648 179.5045 183.90604 188.30756 190.50835 194.90987 199.3114 219.54579 223.94734 228.34886 230.54964 234.95116 239.35269 259.5871 263.98862 268.39017 270.59094 274.99243 279.39398 299.62839 304.02991 306.23068 310.63226 315.03375 339.66968 344.0712 346.272 350.67352 355.07507 379.711 384.11249 388.51398 390.71481 395.11639 399.51788 419.75226 424.15378 428.55533 430.75613 435.15765 439.55914 459.79358 464.1951 468.59662 470.79742 475.19894 479.60046 499.83487 504.23639 506.43723 510.83871 515.24023 539.87622 544.27771 546.47845 550.88 555.28156 579.91748 584.31897 586.51978 590.92139 595.32288 619.9588 624.36035 626.56116 630.96259 635.36414 660.00006 664.40155 666.60242 671.00378 675.40546"
           y="-545.08777"
           sodipodi:role="line"
           id="tspan8219">0.00033.02932.10326.0080.5250.38382.63331.99237.1470.5680.3580.5440.6510.160</tspan><tspan
           style="font-size:7.91642919px;font-variant:normal;font-weight:normal;writing-mode:lr;fill:#000000;fill-opacity:1;fill-rule:nonzero;stroke:none;font-family:Nimbus Sans L;-inkscape-font-specification:Nimbus Sans L;font-style:normal;font-stretch:normal;text-anchor:start;text-align:start;line-height:125%"
           x="139.47112 143.87263 146.07341 150.47493 154.87648 179.5045 183.90604 186.10678 190.50835 194.90987 219.54579 223.94734 226.14809 230.54964 234.95116 259.5871 263.98862 266.18939 270.59094 274.99243 299.62839 304.02991 306.23068 310.63226 315.03375 339.66968 344.0712 346.272 350.67352 355.07507 379.711 384.11249 386.31326 390.71481 395.11639 419.75226 424.15378 428.55533 430.75613 435.15765 439.55914 459.79358 464.1951 466.39587 470.79742 475.19894 499.83487 504.23639 506.43723 510.83871 515.24023 539.87622 544.27771 546.47845 550.88 555.28156 579.91748 584.31897 586.51978 590.92139 595.32288 619.9588 624.36035 626.56116 630.96259 635.36414 660.00006 664.40155 666.60242 671.00378 675.40546"
           y="-535.84442"
           sodipodi:role="line"
           id="tspan8221">0.5460.0000.9840.9020.8660.8400.01362.4640.4750.0010.3420.9250.6560.501</tspan><tspan
           style="font-size:7.91642919px;font-variant:normal;font-weight:normal;writing-mode:lr;fill:#000000;fill-opacity:1;fill-rule:nonzero;stroke:none;font-family:Nimbus Sans L;-inkscape-font-specification:Nimbus Sans L;font-style:normal;font-stretch:normal;text-anchor:start;text-align:start;line-height:125%"
           x="139.47112 143.87263 148.27415 150.47493 154.87648 159.27798 179.5045 183.90604 186.10678 190.50835 194.90987 219.54579 223.94734 226.14809 230.54964 234.95116 259.5871 263.98862 266.18939 270.59094 274.99243 299.62839 304.02991 306.23068 310.63226 315.03375 339.66968 344.0712 346.272 350.67352 355.07507 379.711 384.11249 388.51398 390.71481 395.11639 399.51788 419.75226 424.15378 426.35461 430.75613 435.15765 459.79358 464.1951 466.39587 470.79742 475.19894 499.83487 504.23639 506.43723 510.83871 515.24023 539.87622 544.27771 548.6792 550.88 555.28156 559.68304 579.91748 584.31897 588.72052 590.92139 595.32288 599.7243 619.9588 624.36035 626.56116 630.96259 635.36414 660.00006 664.40155 666.60242 671.00378 675.40546"
           y="-526.61444"
           sodipodi:role="line"
           id="tspan8223">35.3770.4590.0000.7320.2720.41328.2420.6480.9090.99156.15023.6171.5840.935</tspan><tspan
           style="font-size:7.91642919px;font-variant:normal;font-weight:normal;writing-mode:lr;fill:#000000;fill-opacity:1;fill-rule:nonzero;stroke:none;font-family:Nimbus Sans L;-inkscape-font-specification:Nimbus Sans L;font-style:normal;font-stretch:normal;text-anchor:start;text-align:start;line-height:125%"
           x="139.47112 143.87263 146.07341 150.47493 154.87648 179.5045 183.90604 186.10678 190.50835 194.90987 219.54579 223.94734 226.14809 230.54964 234.95116 259.5871 263.98862 266.18939 270.59094 274.99243 299.62839 304.02991 306.23068 310.63226 315.03375 339.66968 344.0712 346.272 350.67352 355.07507 379.711 384.11249 386.31326 390.71481 395.11639 419.75226 424.15378 428.55533 430.75613 435.15765 439.55914 459.79358 464.1951 466.39587 470.79742 475.19894 499.83487 504.23639 506.43723 510.83871 515.24023 539.87622 544.27771 546.47845 550.88 555.28156 579.91748 584.31897 586.51978 590.92139 595.32288 619.9588 624.36035 626.56116 630.96259 635.36414 660.00006 664.40155 666.60242 671.00378 675.40546"
           y="-517.37085"
           sodipodi:role="line"
           id="tspan8225">0.7390.2250.2960.0000.8960.3440.01284.6440.2930.2080.7550.1060.9020.715</tspan><tspan
           style="font-size:7.91642919px;font-variant:normal;font-weight:normal;writing-mode:lr;fill:#000000;fill-opacity:1;fill-rule:nonzero;stroke:none;font-family:Nimbus Sans L;-inkscape-font-specification:Nimbus Sans L;font-style:normal;font-stretch:normal;text-anchor:start;text-align:start;line-height:125%"
           x="139.47112 143.87263 146.07341 150.47493 154.87648 179.5045 183.90604 188.30756 190.50835 194.90987 199.3114 219.54579 223.94734 226.14809 230.54964 234.95116 259.5871 263.98862 268.39017 270.59094 274.99243 279.39398 299.62839 304.02991 306.23068 310.63226 315.03375 339.66968 344.0712 346.272 350.67352 355.07507 379.711 384.11249 386.31326 390.71481 395.11639 419.75226 424.15378 426.35461 430.75613 435.15765 459.79358 464.1951 466.39587 470.79742 475.19894 499.83487 504.23639 506.43723 510.83871 515.24023 539.87622 544.27771 546.47845 550.88 555.28156 579.91748 584.31897 586.51978 590.92139 595.32288 619.9588 624.36035 626.56116 630.96259 635.36414 660.00006 664.40155 666.60242 671.00378 675.40546"
           y="-508.14084"
           sodipodi:role="line"
           id="tspan8227">0.48296.8060.67251.2040.0000.4510.9790.8140.2250.6940.5040.7040.4310.333</tspan><tspan
           style="font-size:7.91642919px;font-variant:normal;font-weight:normal;writing-mode:lr;fill:#000000;fill-opacity:1;fill-rule:nonzero;stroke:none;font-family:Nimbus Sans L;-inkscape-font-specification:Nimbus Sans L;font-style:normal;font-stretch:normal;text-anchor:start;text-align:start;line-height:125%"
           x="139.47112 143.87263 146.07341 150.47493 154.87648 179.5045 183.90604 186.10678 190.50835 194.90987 219.54579 223.94734 226.14809 230.54964 234.95116 259.5871 263.98862 266.18939 270.59094 274.99243 299.62839 304.02991 306.23068 310.63226 315.03375 339.66968 344.0712 346.272 350.67352 355.07507 379.711 384.11249 386.31326 390.71481 395.11639 419.75226 424.15378 426.35461 430.75613 435.15765 459.79358 464.1951 466.39587 470.79742 475.19894 499.83487 504.23639 506.43723 510.83871 515.24023 539.87622 544.27771 546.47845 550.88 555.28156 579.91748 584.31897 586.51978 590.92139 595.32288 619.9588 624.36035 628.76178 630.96259 635.36414 639.76562 660.00006 664.40155 666.60242 671.00378 675.40546"
           y="-498.91071"
           sodipodi:role="line"
           id="tspan8229">0.4560.7070.6260.1520.1090.0000.8040.4760.4290.8530.2800.32290.5030.212</tspan><tspan
           style="font-size:7.91642919px;font-variant:normal;font-weight:normal;writing-mode:lr;fill:#000000;fill-opacity:1;fill-rule:nonzero;stroke:none;font-family:Nimbus Sans L;-inkscape-font-specification:Nimbus Sans L;font-style:normal;font-stretch:normal;text-anchor:start;text-align:start;line-height:125%"
           x="139.47112 143.87263 146.07341 150.47493 154.87648 179.5045 183.90604 186.10678 190.50835 194.90987 219.54579 223.94734 226.14809 230.54964 234.95116 259.5871 263.98862 266.18939 270.59094 274.99243 299.62839 304.02991 306.23068 310.63226 315.03375 339.66968 344.0712 346.272 350.67352 355.07507 379.711 384.11249 386.31326 390.71481 395.11639 419.75226 424.15378 426.35461 430.75613 435.15765 459.79358 464.1951 468.59662 470.79742 475.19894 479.60046 499.83487 504.23639 508.63791 510.83871 515.24023 519.64172 539.87622 544.27771 546.47845 550.88 555.28156 579.91748 584.31897 586.51978 590.92139 595.32288 619.9588 624.36035 628.76178 630.96259 635.36414 639.76562 660.00006 664.40155 666.60242 671.00378 675.40546"
           y="-489.66745"
           sodipodi:role="line"
           id="tspan8231">0.0420.0670.6830.8620.1970.8310.0000.58567.64956.1380.8960.85873.7210.582</tspan><tspan
           style="font-size:7.91642919px;font-variant:normal;font-weight:normal;writing-mode:lr;fill:#000000;fill-opacity:1;fill-rule:nonzero;stroke:none;font-family:Nimbus Sans L;-inkscape-font-specification:Nimbus Sans L;font-style:normal;font-stretch:normal;text-anchor:start;text-align:start;line-height:125%"
           x="139.47112 143.87263 146.07341 150.47493 154.87648 179.5045 183.90604 186.10678 190.50835 194.90987 219.54579 223.94734 226.14809 230.54964 234.95116 259.5871 263.98862 268.39017 270.59094 274.99243 279.39398 299.62839 304.02991 306.23068 310.63226 315.03375 339.66968 344.0712 346.272 350.67352 355.07507 379.711 384.11249 386.31326 390.71481 395.11639 419.75226 424.15378 426.35461 430.75613 435.15765 459.79358 464.1951 466.39587 470.79742 475.19894 499.83487 504.23639 506.43723 510.83871 515.24023 539.87622 544.27771 546.47845 550.88 555.28156 579.91748 584.31897 586.51978 590.92139 595.32288 619.9588 624.36035 628.76178 630.96259 635.36414 639.76562 660.00006 664.40155 666.60242 671.00378 675.40546"
           y="-480.43738"
           sodipodi:role="line"
           id="tspan8233">0.6160.6400.09697.4310.3080.4410.2990.0000.1610.4900.3210.63882.2310.376</tspan><tspan
           style="font-size:7.91642919px;font-variant:normal;font-weight:normal;writing-mode:lr;fill:#000000;fill-opacity:1;fill-rule:nonzero;stroke:none;font-family:Nimbus Sans L;-inkscape-font-specification:Nimbus Sans L;font-style:normal;font-stretch:normal;text-anchor:start;text-align:start;line-height:125%"
           x="139.47112 143.87263 146.07341 150.47493 154.87648 179.5045 183.90604 186.10678 190.50835 194.90987 219.54579 223.94734 226.14809 230.54964 234.95116 259.5871 263.98862 266.18939 270.59094 274.99243 299.62839 304.02991 306.23068 310.63226 315.03375 339.66968 344.0712 348.47269 350.67352 355.07507 359.47656 379.711 384.11249 388.51398 390.71481 395.11639 399.51788 419.75226 424.15378 426.35461 430.75613 435.15765 459.79358 464.1951 466.39587 470.79742 475.19894 499.83487 504.23639 506.43723 510.83871 515.24023 539.87622 544.27771 548.6792 550.88 555.28156 559.68304 579.91748 584.31897 588.72052 590.92139 595.32288 599.7243 619.9588 624.36035 626.56116 630.96259 635.36414 660.00006 664.40155 666.60242 671.00378 675.40546"
           y="-471.19403"
           sodipodi:role="line"
           id="tspan8235">0.7860.3230.6760.3590.01950.12712.1290.6500.0000.48345.22358.1640.8940.613</tspan><tspan
           style="font-size:7.91642919px;font-variant:normal;font-weight:normal;writing-mode:lr;fill:#000000;fill-opacity:1;fill-rule:nonzero;stroke:none;font-family:Nimbus Sans L;-inkscape-font-specification:Nimbus Sans L;font-style:normal;font-stretch:normal;text-anchor:start;text-align:start;line-height:125%"
           x="139.47112 143.87263 146.07341 150.47493 154.87648 179.5045 183.90604 186.10678 190.50835 194.90987 219.54579 223.94734 226.14809 230.54964 234.95116 259.5871 263.98862 266.18939 270.59094 274.99243 299.62839 304.02991 306.23068 310.63226 315.03375 339.66968 344.0712 346.272 350.67352 355.07507 379.711 384.11249 386.31326 390.71481 395.11639 419.75226 424.15378 426.35461 430.75613 435.15765 459.79358 464.1951 466.39587 470.79742 475.19894 499.83487 504.23639 506.43723 510.83871 515.24023 539.87622 544.27771 548.6792 550.88 555.28156 559.68304 579.91748 584.31897 586.51978 590.92139 595.32288 619.9588 624.36035 626.56116 630.96259 635.36414 660.00006 664.40155 668.80304 671.00378 675.40546 679.80695"
           y="-461.96399"
           sodipodi:role="line"
           id="tspan8237">0.0370.3180.3672.9810.9760.6290.5250.2930.6410.00033.9220.2280.99571.905</tspan><tspan
           style="font-size:7.91642919px;font-variant:normal;font-weight:normal;writing-mode:lr;fill:#000000;fill-opacity:1;fill-rule:nonzero;stroke:none;font-family:Nimbus Sans L;-inkscape-font-specification:Nimbus Sans L;font-style:normal;font-stretch:normal;text-anchor:start;text-align:start;line-height:125%"
           x="139.47112 143.87263 148.27415 150.47493 154.87648 159.27798 179.5045 183.90604 186.10678 190.50835 194.90987 219.54579 223.94734 226.14809 230.54964 234.95116 259.5871 263.98862 266.18939 270.59094 274.99243 299.62839 304.02991 306.23068 310.63226 315.03375 339.66968 344.0712 346.272 350.67352 355.07507 379.711 384.11249 388.51398 390.71481 395.11639 399.51788 419.75226 424.15378 426.35461 430.75613 435.15765 459.79358 464.1951 466.39587 470.79742 475.19894 499.83487 504.23639 506.43723 510.83871 515.24023 539.87622 544.27771 546.47845 550.88 555.28156 579.91748 584.31897 586.51978 590.92139 595.32288 619.9588 624.36035 626.56116 630.96259 635.36414 660.00006 664.40155 666.60242 671.00378 675.40546"
           y="-452.73373"
           sodipodi:role="line"
           id="tspan8239">12.6090.4790.1460.1740.1810.07223.0800.6710.6340.7590.0000.7250.5920.445</tspan><tspan
           style="font-size:7.91642919px;font-variant:normal;font-weight:normal;writing-mode:lr;fill:#000000;fill-opacity:1;fill-rule:nonzero;stroke:none;font-family:Nimbus Sans L;-inkscape-font-specification:Nimbus Sans L;font-style:normal;font-stretch:normal;text-anchor:start;text-align:start;line-height:125%"
           x="139.47112 143.87263 146.07341 150.47493 154.87648 179.5045 183.90604 186.10678 190.50835 194.90987 219.54579 223.94734 226.14809 230.54964 234.95116 259.5871 263.98862 266.18939 270.59094 274.99243 299.62839 304.02991 306.23068 310.63226 315.03375 339.66968 344.0712 346.272 350.67352 355.07507 379.711 384.11249 386.31326 390.71481 395.11639 419.75226 424.15378 426.35461 430.75613 435.15765 459.79358 464.1951 466.39587 470.79742 475.19894 499.83487 504.23639 508.63791 510.83871 515.24023 519.64172 539.87622 544.27771 548.6792 550.88 555.28156 559.68304 579.91748 584.31897 586.51978 590.92139 595.32288 619.9588 624.36035 626.56116 630.96259 635.36414 660.00006 664.40155 666.60242 671.00378 675.40546"
           y="-443.49039"
           sodipodi:role="line"
           id="tspan8241">0.8870.0041.6140.4710.1200.2630.5850.0860.15795.63342.8280.0000.5270.021</tspan><tspan
           style="font-size:7.91642919px;font-variant:normal;font-weight:normal;writing-mode:lr;fill:#000000;fill-opacity:1;fill-rule:nonzero;stroke:none;font-family:Nimbus Sans L;-inkscape-font-specification:Nimbus Sans L;font-style:normal;font-stretch:normal;text-anchor:start;text-align:start;line-height:125%"
           x="139.47112 143.87263 146.07341 150.47493 154.87648 179.5045 183.90604 186.10678 190.50835 194.90987 219.54579 223.94734 226.14809 230.54964 234.95116 259.5871 263.98862 266.18939 270.59094 274.99243 299.62839 304.02991 308.43146 310.63226 315.03375 319.4353 339.66968 344.0712 346.272 350.67352 355.07507 379.711 384.11249 386.31326 390.71481 395.11639 419.75226 424.15378 426.35461 430.75613 435.15765 459.79358 464.1951 466.39587 470.79742 475.19894 499.83487 504.23639 506.43723 510.83871 515.24023 539.87622 544.27771 546.47845 550.88 555.28156 579.91748 584.31897 586.51978 590.92139 595.32288 619.9588 624.36035 626.56116 630.96259 635.36414 660.00006 664.40155 666.60242 671.00378 675.40546"
           y="-434.26025"
           sodipodi:role="line"
           id="tspan8243">9.0190.5690.9360.97581.7790.5730.7380.4100.4900.9480.1540.1450.0000.436</tspan><tspan
           style="font-size:7.91642919px;font-variant:normal;font-weight:normal;writing-mode:lr;fill:#000000;fill-opacity:1;fill-rule:nonzero;stroke:none;font-family:Nimbus Sans L;-inkscape-font-specification:Nimbus Sans L;font-style:normal;font-stretch:normal;text-anchor:start;text-align:start;line-height:125%"
           x="139.47112 143.87263 148.27415 150.47493 154.87648 159.27798 179.5045 183.90604 186.10678 190.50835 194.90987 219.54579 223.94734 226.14809 230.54964 234.95116 259.5871 263.98862 266.18939 270.59094 274.99243 299.62839 304.02991 308.43146 310.63226 315.03375 319.4353 339.66968 344.0712 348.47269 350.67352 355.07507 359.47656 379.711 384.11249 386.31326 390.71481 395.11639 419.75226 424.15378 426.35461 430.75613 435.15765 459.79358 464.1951 466.39587 470.79742 475.19894 499.83487 504.23639 506.43723 510.83871 515.24023 539.87622 544.27771 546.47845 550.88 555.28156 579.91748 584.31897 586.51978 590.92139 595.32288 619.9588 624.36035 626.56116 630.96259 635.36414 660.00006 664.40155 666.60242 671.00378 675.40546"
           y="-425.03027"
           sodipodi:role="line"
           id="tspan8245">20.4420.5150.7190.08939.26949.9840.7200.8630.8580.4900.1060.7650.0590.000</tspan></text>
</g></g></svg>