<?xml version="1.0" encoding="UTF-8" standalone="no"?>
<!-- Created with Inkscape (http://www.inkscape.org/) -->

<svg
   xmlns:dc="http://purl.org/dc/elements/1.1/"
   xmlns:cc="http://creativecommons.org/ns#"
   xmlns:rdf="http://www.w3.org/1999/02/22-rdf-syntax-ns#"
   xmlns:svg="http://www.w3.org/2000/svg"
   xmlns="http://www.w3.org/2000/svg"
   xmlns:sodipodi="http://sodipodi.sourceforge.net/DTD/sodipodi-0.dtd"
   xmlns:inkscape="http://www.inkscape.org/namespaces/inkscape"
   width="744.09448819"
   height="1052.3622047"
   id="svg8855"
   version="1.1"
   inkscape:version="0.47pre4 r22446"
   sodipodi:docname="p2.svg">
  <defs
     id="defs8857">
    <inkscape:perspective
       sodipodi:type="inkscape:persp3d"
       inkscape:vp_x="0 : 526.18109 : 1"
       inkscape:vp_y="0 : 1000 : 0"
       inkscape:vp_z="744.09448 : 526.18109 : 1"
       inkscape:persp3d-origin="372.04724 : 350.78739 : 1"
       id="perspective8863" />
    <inkscape:perspective
       id="perspective8835"
       inkscape:persp3d-origin="0.5 : 0.33333333 : 1"
       inkscape:vp_z="1 : 0.5 : 1"
       inkscape:vp_y="0 : 1000 : 0"
       inkscape:vp_x="0 : 0.5 : 1"
       sodipodi:type="inkscape:persp3d" />
  </defs>
  <sodipodi:namedview
     id="base"
     pagecolor="#ffffff"
     bordercolor="#666666"
     borderopacity="1.0"
     inkscape:pageopacity="0.0"
     inkscape:pageshadow="2"
     inkscape:zoom="1.4984375"
     inkscape:cx="361.09824"
     inkscape:cy="804.52426"
     inkscape:document-units="px"
     inkscape:current-layer="layer1"
     showgrid="false"
     inkscape:window-width="1280"
     inkscape:window-height="778"
     inkscape:window-x="-4"
     inkscape:window-y="-3"
     inkscape:window-maximized="1" />
  <metadata
     id="metadata8860">
    <rdf:RDF>
      <cc:Work
         rdf:about="">
        <dc:format>image/svg+xml</dc:format>
        <dc:type
           rdf:resource="http://purl.org/dc/dcmitype/StillImage" />
        <dc:title></dc:title>
      </cc:Work>
    </rdf:RDF>
  </metadata>
  <g
     inkscape:label="Layer 1"
     inkscape:groupmode="layer"
     id="layer1">
    <g
       transform="matrix(1.25,0,0,-1.25,-33.671981,745.62617)"
       id="g8810">
      <text
         style="font-size:15.89112473px"
         y="-371.87445"
         x="150.47574"
         transform="scale(0.75513848,-1.3242604)"
         id="text8259"
         sodipodi:linespacing="125%">
        <tspan
           style="font-size:7.91642919px;font-variant:normal;font-weight:normal;writing-mode:lr;fill:#000000;fill-opacity:1;fill-rule:nonzero;stroke:none;font-family:Nimbus Sans L;-inkscape-font-specification:Nimbus Sans L;font-style:normal;font-stretch:normal;text-anchor:start;text-align:start;line-height:125%"
           x="150.47574 154.87726 157.07803 161.47954 165.8811 190.50909 194.9106 197.11139 201.51294 205.91444 230.5504 234.9519 237.15271 241.55423 245.95575 270.59171 274.99323 277.19397 281.59549 285.99707 306.23148 310.633 312.83374 317.23526 321.63684 346.27267 350.67426 352.87506 357.27658 361.6781 381.91248 386.31403 388.51483 392.91635 397.31784 417.55228 421.9538 424.15457 428.55612 432.95767 457.59357 461.99506 464.19589 468.59744 472.99893 493.23334 497.63489 499.83563 504.23718 508.63867 533.27466 537.67615 539.87695 544.27844 548.67999 568.91443 573.31592 575.51672 579.91821 584.31976 608.95575 613.35724 615.55798 619.95953 624.36102 648.99701 653.39856 655.59924 660.00073 664.4024"
           y="-371.87445"
           sodipodi:role="line"
           id="tspan8261">0.0001.0902.0600.1400.4500.0400.4301.4500.5100.1000.0700.0800.0000.330</tspan>
        <tspan
           style="font-size:7.91642919px;font-variant:normal;font-weight:normal;writing-mode:lr;fill:#000000;fill-opacity:1;fill-rule:nonzero;stroke:none;font-family:Nimbus Sans L;-inkscape-font-specification:Nimbus Sans L;font-style:normal;font-stretch:normal;text-anchor:start;text-align:start;line-height:125%"
           x="150.47574 154.87726 159.27875 161.47954 165.8811 170.28262 190.50909 194.9106 197.11139 201.51294 205.91444 230.5504 234.9519 237.15271 241.55423 245.95575 270.59171 274.99323 277.19397 281.59549 285.99707 306.23148 310.633 315.03448 317.23526 321.63684 326.03833 346.27267 350.67426 352.87506 357.27658 361.6781 381.91248 386.31403 388.51483 392.91635 397.31784 417.55228 421.9538 426.35532 428.55612 432.95767 437.35919 457.59357 461.99506 464.19589 468.59744 472.99893 493.23334 497.63489 502.03641 504.23718 508.63867 513.04028 533.27466 537.67615 539.87695 544.27844 548.67999 568.91443 573.31592 577.71747 579.91821 584.31976 588.72131 608.95575 613.35724 615.55798 619.95953 624.36102 648.99701 653.39856 657.80005 660.00073 664.4024 668.80389"
           y="-362.64441"
           sodipodi:role="line"
           id="tspan8263">11.7100.0008.5600.62011.1207.7703.62015.7903.66016.6102.03037.8104.83013.190</tspan>
        <tspan
           style="font-size:7.91642919px;font-variant:normal;font-weight:normal;writing-mode:lr;fill:#000000;fill-opacity:1;fill-rule:nonzero;stroke:none;font-family:Nimbus Sans L;-inkscape-font-specification:Nimbus Sans L;font-style:normal;font-stretch:normal;text-anchor:start;text-align:start;line-height:125%"
           x="150.47574 154.87726 157.07803 161.47954 165.8811 190.50909 194.9106 197.11139 201.51294 205.91444 230.5504 234.9519 237.15271 241.55423 245.95575 270.59171 274.99323 277.19397 281.59549 285.99707 306.23148 310.633 312.83374 317.23526 321.63684 346.27267 350.67426 352.87506 357.27658 361.6781 381.91248 386.31403 388.51483 392.91635 397.31784 417.55228 421.9538 424.15457 428.55612 432.95767 457.59357 461.99506 464.19589 468.59744 472.99893 493.23334 497.63489 499.83563 504.23718 508.63867 533.27466 537.67615 539.87695 544.27844 548.67999 568.91443 573.31592 575.51672 579.91821 584.31976 608.95575 613.35724 615.55798 619.95953 624.36102 648.99701 653.39856 655.59924 660.00073 664.4024"
           y="-353.40097"
           sodipodi:role="line"
           id="tspan8265">0.0000.0000.0000.0000.0000.0000.0000.0000.0000.0000.0000.0000.0000.000</tspan>
        <tspan
           style="font-size:7.91642919px;font-variant:normal;font-weight:normal;writing-mode:lr;fill:#000000;fill-opacity:1;fill-rule:nonzero;stroke:none;font-family:Nimbus Sans L;-inkscape-font-specification:Nimbus Sans L;font-style:normal;font-stretch:normal;text-anchor:start;text-align:start;line-height:125%"
           x="150.47574 154.87726 157.07803 161.47954 165.8811 190.50909 194.9106 197.11139 201.51294 205.91444 230.5504 234.9519 239.35349 241.55423 245.95575 270.59171 274.99323 277.19397 281.59549 285.99707 306.23148 310.633 312.83374 317.23526 321.63684 346.27267 350.67426 352.87506 357.27658 361.6781 381.91248 386.31403 388.51483 392.91635 397.31784 417.55228 421.9538 424.15457 428.55612 432.95767 457.59357 461.99506 464.19589 468.59744 472.99893 493.23334 497.63489 499.83563 504.23718 508.63867 533.27466 537.67615 539.87695 544.27844 548.67999 568.91443 573.31592 575.51672 579.91821 584.31976 608.95575 613.35724 615.55798 619.95953 624.36102 648.99701 653.39856 655.59924 660.00073 664.4024"
           y="-344.1709"
           sodipodi:role="line"
           id="tspan8267">0.3103.41013.640.0001.9000.6000.7002.8802.0003.2603.0706.6900.0804.010</tspan>
        <tspan
           style="font-size:7.91642919px;font-variant:normal;font-weight:normal;writing-mode:lr;fill:#000000;fill-opacity:1;fill-rule:nonzero;stroke:none;font-family:Nimbus Sans L;-inkscape-font-specification:Nimbus Sans L;font-style:normal;font-stretch:normal;text-anchor:start;text-align:start;line-height:125%"
           x="150.47574 154.87726 157.07803 161.47954 165.8811 190.50909 194.9106 199.31216 201.51294 205.91444 210.31601 230.5504 234.9519 239.35349 241.55423 245.95575 270.59171 274.99323 277.19397 281.59549 285.99707 306.23148 310.633 312.83374 317.23526 321.63684 346.27267 350.67426 352.87506 357.27658 361.6781 381.91248 386.31403 390.71558 392.91635 397.31784 417.55228 421.9538 426.35532 428.55612 432.95767 457.59357 461.99506 466.39661 468.59744 472.99893 493.23334 497.63489 502.03641 504.23718 508.63867 533.27466 537.67615 539.87695 544.27844 548.67999 568.91443 573.31592 577.71747 579.91821 584.31976 608.95575 613.35724 615.55798 619.95953 624.36102 648.99701 653.39856 655.59924 660.00073 664.4024"
           y="-334.9408"
           sodipodi:role="line"
           id="tspan8269">0.28067.51019.023.4300.0004.03010.7762.2224.0217.920.45079.039.9705.290</tspan>
        <tspan
           style="font-size:7.91642919px;font-variant:normal;font-weight:normal;writing-mode:lr;fill:#000000;fill-opacity:1;fill-rule:nonzero;stroke:none;font-family:Nimbus Sans L;-inkscape-font-specification:Nimbus Sans L;font-style:normal;font-stretch:normal;text-anchor:start;text-align:start;line-height:125%"
           x="150.47574 154.87726 157.07803 161.47954 165.8811 190.50909 194.9106 197.11139 201.51294 205.91444 230.5504 234.9519 237.15271 241.55423 245.95575 270.59171 274.99323 277.19397 281.59549 285.99707 306.23148 310.633 312.83374 317.23526 321.63684 346.27267 350.67426 352.87506 357.27658 361.6781 381.91248 386.31403 388.51483 392.91635 397.31784 417.55228 421.9538 424.15457 428.55612 432.95767 457.59357 461.99506 464.19589 468.59744 472.99893 493.23334 497.63489 499.83563 504.23718 508.63867 533.27466 537.67615 539.87695 544.27844 548.67999 568.91443 573.31592 575.51672 579.91821 584.31976 608.95575 613.35724 615.55798 619.95953 624.36102 648.99701 653.39856 655.59924 660.00073 664.4024"
           y="-325.69745"
           sodipodi:role="line"
           id="tspan8271">0.0005.8103.4205.5203.4000.0002.6102.6800.8703.8700.0400.8400.0602.480</tspan>
        <tspan
           style="font-size:7.91642919px;font-variant:normal;font-weight:normal;writing-mode:lr;fill:#000000;fill-opacity:1;fill-rule:nonzero;stroke:none;font-family:Nimbus Sans L;-inkscape-font-specification:Nimbus Sans L;font-style:normal;font-stretch:normal;text-anchor:start;text-align:start;line-height:125%"
           x="150.47574 154.87726 157.07803 161.47954 165.8811 190.50909 194.9106 199.31216 201.51294 205.91444 230.5504 234.9519 239.35349 243.75497 245.95575 250.35728 270.59171 274.99323 277.19397 281.59549 285.99707 306.23148 310.633 315.03448 317.23526 321.63684 346.27267 350.67426 352.87506 357.27658 361.6781 381.91248 386.31403 388.51483 392.91635 397.31784 417.55228 421.9538 426.35532 430.75687 432.95767 457.59357 461.99506 466.39661 468.59744 472.99893 493.23334 497.63489 502.03641 504.23718 508.63867 533.27466 537.67615 539.87695 544.27844 548.67999 568.91443 573.31592 577.71747 579.91821 584.31976 608.95575 613.35724 615.55798 619.95953 624.36102 648.99701 653.39856 657.80005 660.00073 664.4024"
           y="-316.46744"
           sodipodi:role="line"
           id="tspan8273">1.75022.02102.314.47022.037.9000.000114.119.8221.950.78071.400.33032.84</tspan>
        <tspan
           style="font-size:7.91642919px;font-variant:normal;font-weight:normal;writing-mode:lr;fill:#000000;fill-opacity:1;fill-rule:nonzero;stroke:none;font-family:Nimbus Sans L;-inkscape-font-specification:Nimbus Sans L;font-style:normal;font-stretch:normal;text-anchor:start;text-align:start;line-height:125%"
           x="150.47574 154.87726 157.07803 161.47954 165.8811 190.50909 194.9106 199.31216 201.51294 205.91444 230.5504 234.9519 239.35349 243.75497 245.95575 250.35728 270.59171 274.99323 277.19397 281.59549 285.99707 306.23148 310.633 315.03448 317.23526 321.63684 326.03833 346.27267 350.67426 352.87506 357.27658 361.6781 381.91248 386.31403 390.71558 392.91635 397.31784 417.55228 421.9538 424.15457 428.55612 432.95767 457.59357 461.99506 466.39661 468.59744 472.99893 493.23334 497.63489 502.03641 504.23718 508.63867 533.27466 537.67615 542.07764 544.27844 548.67999 568.91443 573.31592 577.71747 579.91821 584.31976 608.95575 613.35724 615.55798 619.95953 624.36102 648.99701 653.39856 657.80005 660.00073 664.4024"
           y="-307.2373"
           sodipodi:role="line"
           id="tspan8275">2.39063.84210.308.52028.2102.66097.080.00043.9533.0011.3748.635.53013.85</tspan>
        <tspan
           style="font-size:7.91642919px;font-variant:normal;font-weight:normal;writing-mode:lr;fill:#000000;fill-opacity:1;fill-rule:nonzero;stroke:none;font-family:Nimbus Sans L;-inkscape-font-specification:Nimbus Sans L;font-style:normal;font-stretch:normal;text-anchor:start;text-align:start;line-height:125%"
           x="150.47574 154.87726 157.07803 161.47954 165.8811 190.50909 194.9106 199.31216 201.51294 205.91444 230.5504 234.9519 239.35349 241.55423 245.95575 270.59171 274.99323 277.19397 281.59549 285.99707 306.23148 310.633 315.03448 317.23526 321.63684 346.27267 350.67426 352.87506 357.27658 361.6781 381.91248 386.31403 390.71558 392.91635 397.31784 417.55228 421.9538 426.35532 428.55612 432.95767 457.59357 461.99506 464.19589 468.59744 472.99893 493.23334 497.63489 502.03641 504.23718 508.63867 533.27466 537.67615 542.07764 544.27844 548.67999 568.91443 573.31592 577.71747 582.11896 584.31976 608.95575 613.35724 617.75879 619.95953 624.36102 648.99701 653.39856 655.59924 660.00073 664.4024"
           y="-297.99399"
           sodipodi:role="line"
           id="tspan8277">6.45018.9337.356.00024.996.81025.0661.020.00039.6214.52127.523.340.760</tspan>
        <tspan
           style="font-size:7.91642919px;font-variant:normal;font-weight:normal;writing-mode:lr;fill:#000000;fill-opacity:1;fill-rule:nonzero;stroke:none;font-family:Nimbus Sans L;-inkscape-font-specification:Nimbus Sans L;font-style:normal;font-stretch:normal;text-anchor:start;text-align:start;line-height:125%"
           x="150.47574 154.87726 157.07803 161.47954 165.8811 190.50909 194.9106 199.31216 201.51294 205.91444 230.5504 234.9519 239.35349 241.55423 245.95575 270.59171 274.99323 277.19397 281.59549 285.99707 306.23148 310.633 315.03448 317.23526 321.63684 346.27267 350.67426 352.87506 357.27658 361.6781 381.91248 386.31403 388.51483 392.91635 397.31784 417.55228 421.9538 426.35532 428.55612 432.95767 457.59357 461.99506 464.19589 468.59744 472.99893 493.23334 497.63489 499.83563 504.23718 508.63867 533.27466 537.67615 539.87695 544.27844 548.67999 568.91443 573.31592 577.71747 579.91821 584.31976 608.95575 613.35724 615.55798 619.95953 624.36102 648.99701 653.39856 655.59924 660.00073 664.4024"
           y="-288.76382"
           sodipodi:role="line"
           id="tspan8279">0.05035.2910.263.73022.349.4804.98057.086.8400.0006.30017.645.9100.760</tspan>
        <tspan
           style="font-size:7.91642919px;font-variant:normal;font-weight:normal;writing-mode:lr;fill:#000000;fill-opacity:1;fill-rule:nonzero;stroke:none;font-family:Nimbus Sans L;-inkscape-font-specification:Nimbus Sans L;font-style:normal;font-stretch:normal;text-anchor:start;text-align:start;line-height:125%"
           x="150.47574 154.87726 157.07803 161.47954 165.8811 190.50909 194.9106 197.11139 201.51294 205.91444 230.5504 234.9519 237.15271 241.55423 245.95575 270.59171 274.99323 277.19397 281.59549 285.99707 306.23148 310.633 312.83374 317.23526 321.63684 346.27267 350.67426 352.87506 357.27658 361.6781 381.91248 386.31403 388.51483 392.91635 397.31784 417.55228 421.9538 424.15457 428.55612 432.95767 457.59357 461.99506 464.19589 468.59744 472.99893 493.23334 497.63489 499.83563 504.23718 508.63867 533.27466 537.67615 539.87695 544.27844 548.67999 568.91443 573.31592 575.51672 579.91821 584.31976 608.95575 613.35724 615.55798 619.95953 624.36102 648.99701 653.39856 655.59924 660.00073 664.4024"
           y="-279.52057"
           sodipodi:role="line"
           id="tspan8281">0.1001.0203.1301.6900.2400.0600.8101.4500.5807.1200.0000.8400.0600.500</tspan>
        <tspan
           style="font-size:7.91642919px;font-variant:normal;font-weight:normal;writing-mode:lr;fill:#000000;fill-opacity:1;fill-rule:nonzero;stroke:none;font-family:Nimbus Sans L;-inkscape-font-specification:Nimbus Sans L;font-style:normal;font-stretch:normal;text-anchor:start;text-align:start;line-height:125%"
           x="150.47574 154.87726 157.07803 161.47954 165.8811 190.50909 194.9106 199.31216 201.51294 205.91444 230.5504 234.9519 237.15271 241.55423 245.95575 270.59171 274.99323 277.19397 281.59549 285.99707 306.23148 310.633 315.03448 317.23526 321.63684 346.27267 350.67426 352.87506 357.27658 361.6781 381.91248 386.31403 388.51483 392.91635 397.31784 417.55228 421.9538 426.35532 428.55612 432.95767 457.59357 461.99506 466.39661 468.59744 472.99893 493.23334 497.63489 502.03641 504.23718 508.63867 533.27466 537.67615 542.07764 544.27844 548.67999 568.91443 573.31592 575.51672 579.91821 584.31976 608.95575 613.35724 615.55798 619.95953 624.36102 648.99701 653.39856 655.59924 660.00073 664.4024"
           y="-270.29047"
           sodipodi:role="line"
           id="tspan8283">1.28026.151.0005.94024.861.3205.49040.5729.5322.3710.500.0001.0100.540</tspan>
        <tspan
           style="font-size:7.91642919px;font-variant:normal;font-weight:normal;writing-mode:lr;fill:#000000;fill-opacity:1;fill-rule:nonzero;stroke:none;font-family:Nimbus Sans L;-inkscape-font-specification:Nimbus Sans L;font-style:normal;font-stretch:normal;text-anchor:start;text-align:start;line-height:125%"
           x="150.47574 154.87726 157.07803 161.47954 165.8811 190.50909 194.9106 197.11139 201.51294 205.91444 230.5504 234.9519 237.15271 241.55423 245.95575 270.59171 274.99323 277.19397 281.59549 285.99707 306.23148 310.633 312.83374 317.23526 321.63684 346.27267 350.67426 352.87506 357.27658 361.6781 381.91248 386.31403 388.51483 392.91635 397.31784 417.55228 421.9538 424.15457 428.55612 432.95767 457.59357 461.99506 464.19589 468.59744 472.99893 493.23334 497.63489 499.83563 504.23718 508.63867 533.27466 537.67615 539.87695 544.27844 548.67999 568.91443 573.31592 575.51672 579.91821 584.31976 608.95575 613.35724 615.55798 619.95953 624.36102 648.99701 653.39856 655.59924 660.00073 664.4024"
           y="-261.0603"
           sodipodi:role="line"
           id="tspan8285">0.0000.0000.0000.0000.0000.0000.0000.0000.0000.0000.0000.0000.0000.000</tspan>
        <tspan
           style="font-size:7.91642919px;font-variant:normal;font-weight:normal;writing-mode:lr;fill:#000000;fill-opacity:1;fill-rule:nonzero;stroke:none;font-family:Nimbus Sans L;-inkscape-font-specification:Nimbus Sans L;font-style:normal;font-stretch:normal;text-anchor:start;text-align:start;line-height:125%"
           x="150.47574 154.87726 157.07803 161.47954 165.8811 190.50909 194.9106 199.31216 201.51294 205.91444 230.5504 234.9519 239.35349 241.55423 245.95575 270.59171 274.99323 277.19397 281.59549 285.99707 306.23148 310.633 315.03448 317.23526 321.63684 346.27267 350.67426 355.07581 357.27658 361.6781 381.91248 386.31403 388.51483 392.91635 397.31784 417.55228 421.9538 426.35532 428.55612 432.95767 457.59357 461.99506 464.19589 468.59744 472.99893 493.23334 497.63489 499.83563 504.23718 508.63867 533.27466 537.67615 539.87695 544.27844 548.67999 568.91443 573.31592 575.51672 579.91821 584.31976 608.95575 613.35724 617.75879 619.95953 624.36102 628.76257 648.99701 653.39856 655.59924 660.00073 664.4024"
           y="-251.81699"
           sodipodi:role="line"
           id="tspan8287">0.73029.0913.639.89035.6112.076.44028.794.6700.0003.9900.00010.7500.000</tspan>
      </text>
    </g>
  </g>
</svg>
