<?xml version="1.0" encoding="UTF-8" standalone="no"?>
<!-- Created with Inkscape (http://www.inkscape.org/) -->
<svg
   xmlns:dc="http://purl.org/dc/elements/1.1/"
   xmlns:cc="http://creativecommons.org/ns#"
   xmlns:rdf="http://www.w3.org/1999/02/22-rdf-syntax-ns#"
   xmlns:svg="http://www.w3.org/2000/svg"
   xmlns="http://www.w3.org/2000/svg"
   xmlns:sodipodi="http://sodipodi.sourceforge.net/DTD/sodipodi-0.dtd"
   xmlns:inkscape="http://www.inkscape.org/namespaces/inkscape"
   id="svg2"
   sodipodi:version="0.32"
   inkscape:version="0.46"
   width="743.75"
   height="1052.5"
   xml:space="preserve"
   sodipodi:docname="RWA.svg"
   inkscape:output_extension="org.inkscape.output.svg.inkscape"><metadata
     id="metadata7"><rdf:RDF><cc:Work
         rdf:about=""><dc:format>image/svg+xml</dc:format><dc:type
           rdf:resource="http://purl.org/dc/dcmitype/StillImage" /></cc:Work></rdf:RDF></metadata><defs
     id="defs5"><marker
       inkscape:stockid="Arrow1Mend"
       orient="auto"
       refY="0.0"
       refX="0.0"
       id="Arrow1Mend"
       style="overflow:visible;"><path
         id="path3711"
         d="M 0.0,0.0 L 5.0,-5.0 L -12.5,0.0 L 5.0,5.0 L 0.0,0.0 z "
         style="fill-rule:evenodd;stroke:#000000;stroke-width:1.0pt;marker-start:none;"
         transform="scale(0.4) rotate(180) translate(10,0)" /></marker><inkscape:perspective
       sodipodi:type="inkscape:persp3d"
       inkscape:vp_x="0 : 526.18109 : 1"
       inkscape:vp_y="0 : 1000 : 0"
       inkscape:vp_z="744.09448 : 526.18109 : 1"
       inkscape:persp3d-origin="372.04724 : 350.78739 : 1"
       id="perspective9" /></defs><sodipodi:namedview
     inkscape:window-height="778"
     inkscape:window-width="1280"
     inkscape:pageshadow="2"
     inkscape:pageopacity="0.0"
     guidetolerance="10.0"
     gridtolerance="10.0"
     objecttolerance="10.0"
     borderopacity="1.0"
     bordercolor="#666666"
     pagecolor="#ffffff"
     id="base"
     showgrid="false"
     inkscape:zoom="1.5210354"
     inkscape:cx="378.79862"
     inkscape:cy="826.38261"
     inkscape:window-x="-4"
     inkscape:window-y="-3"
     inkscape:current-layer="g11" /><g
     id="g11"
     inkscape:groupmode="layer"
     inkscape:label="Gabriel - 2008 - DISSERTACAO"
     transform="matrix(1.25,0,0,-1.25,0,1052.5)"><g
   id="g2852"
   transform="translate(53.701627,23.329023)"><path
     d="M 384.44,571.42 L 384.398,570.781 L 309.334,549.162 L 308.761,548.879 L 252.506,603.076 L 251.974,603.432 L 270.783,679.248 L 270.825,679.886 L 345.888,701.506 L 346.462,701.788 L 402.717,647.592 L 403.248,647.236 L 384.44,571.42"
     style="fill:#ffffff;fill-opacity:1;fill-rule:evenodd;stroke:none"
     id="path67" /><path
     d="M 384.44,571.42 L 384.398,570.781 L 309.334,549.162 L 308.761,548.879 L 252.506,603.076 L 251.974,603.432 L 270.783,679.248 L 270.825,679.886 L 345.888,701.506 L 346.462,701.788 L 402.717,647.592 L 403.248,647.236 L 384.44,571.42 z"
     style="fill:none;stroke:#000000;stroke-width:0.68000001;stroke-linecap:square;stroke-linejoin:bevel;stroke-miterlimit:10;stroke-dasharray:none;stroke-opacity:1"
     id="path69" /><path
     d="M 283.411,678.762 C 283.411,672.059 277.862,666.62 271.026,666.62 C 264.189,666.62 258.64,672.059 258.64,678.762 C 258.64,685.465 264.189,690.905 271.026,690.905 C 277.862,690.905 283.411,685.465 283.411,678.762"
     style="fill:#ffffff;fill-opacity:1;fill-rule:evenodd;stroke:none"
     id="path71" /><path
     d="M 283.411,678.762 C 283.411,672.059 277.862,666.62 271.026,666.62 C 264.189,666.62 258.64,672.059 258.64,678.762 C 258.64,685.465 264.189,690.905 271.026,690.905 C 277.862,690.905 283.411,685.465 283.411,678.762 z"
     style="fill:none;stroke:#000000;stroke-width:0.68000001;stroke-linecap:square;stroke-linejoin:bevel;stroke-miterlimit:10;stroke-dasharray:none;stroke-opacity:1"
     id="path73" /><path
     d="M 357.968,701.591 C 357.968,694.888 352.42,689.448 345.583,689.448 C 338.746,689.448 333.197,694.888 333.197,701.591 C 333.197,708.294 338.746,713.734 345.583,713.734 C 352.42,713.734 357.968,708.294 357.968,701.591"
     style="fill:#ffffff;fill-opacity:1;fill-rule:evenodd;stroke:none"
     id="path75" /><path
     d="M 357.968,701.591 C 357.968,694.888 352.42,689.448 345.583,689.448 C 338.746,689.448 333.197,694.888 333.197,701.591 C 333.197,708.294 338.746,713.734 345.583,713.734 C 352.42,713.734 357.968,708.294 357.968,701.591 z"
     style="fill:none;stroke:#000000;stroke-width:0.68000001;stroke-linecap:square;stroke-linejoin:bevel;stroke-miterlimit:10;stroke-dasharray:none;stroke-opacity:1"
     id="path77" /><path
     d="M 265.683,603.477 C 265.683,596.774 260.134,591.334 253.297,591.334 C 246.46,591.334 240.911,596.774 240.911,603.477 C 240.911,610.179 246.46,615.62 253.297,615.62 C 260.134,615.62 265.683,610.179 265.683,603.477"
     style="fill:#ffffff;fill-opacity:1;fill-rule:evenodd;stroke:none"
     id="path79" /><path
     d="M 265.683,603.477 C 265.683,596.774 260.134,591.334 253.297,591.334 C 246.46,591.334 240.911,596.774 240.911,603.477 C 240.911,610.179 246.46,615.62 253.297,615.62 C 260.134,615.62 265.683,610.179 265.683,603.477 z"
     style="fill:none;stroke:#000000;stroke-width:0.68000001;stroke-linecap:square;stroke-linejoin:bevel;stroke-miterlimit:10;stroke-dasharray:none;stroke-opacity:1"
     id="path81" /><path
     d="M 394.883,571.42 C 394.883,564.717 389.334,559.277 382.497,559.277 C 375.66,559.277 370.111,564.717 370.111,571.42 C 370.111,578.122 375.66,583.562 382.497,583.562 C 389.334,583.562 394.883,578.122 394.883,571.42"
     style="fill:#ffffff;fill-opacity:1;fill-rule:evenodd;stroke:none"
     id="path83" /><path
     d="M 394.883,571.42 C 394.883,564.717 389.334,559.277 382.497,559.277 C 375.66,559.277 370.111,564.717 370.111,571.42 C 370.111,578.122 375.66,583.562 382.497,583.562 C 389.334,583.562 394.883,578.122 394.883,571.42 z"
     style="fill:none;stroke:#000000;stroke-width:0.68000001;stroke-linecap:square;stroke-linejoin:bevel;stroke-miterlimit:10;stroke-dasharray:none;stroke-opacity:1"
     id="path85" /><path
     d="M 413.826,646.22 C 413.826,639.517 408.277,634.077 401.44,634.077 C 394.603,634.077 389.054,639.517 389.054,646.22 C 389.054,652.922 394.603,658.362 401.44,658.362 C 408.277,658.362 413.826,652.922 413.826,646.22"
     style="fill:#ffffff;fill-opacity:1;fill-rule:evenodd;stroke:none"
     id="path87" /><path
     d="M 413.826,646.22 C 413.826,639.517 408.277,634.077 401.44,634.077 C 394.603,634.077 389.054,639.517 389.054,646.22 C 389.054,652.922 394.603,658.362 401.44,658.362 C 408.277,658.362 413.826,652.922 413.826,646.22 z"
     style="fill:none;stroke:#000000;stroke-width:0.68000001;stroke-linecap:square;stroke-linejoin:bevel;stroke-miterlimit:10;stroke-dasharray:none;stroke-opacity:1"
     id="path89" /><path
     d="M 321.054,546.648 C 321.054,539.945 315.505,534.505 308.669,534.505 C 301.832,534.505 296.283,539.945 296.283,546.648 C 296.283,553.351 301.832,558.791 308.669,558.791 C 315.505,558.791 321.054,553.351 321.054,546.648"
     style="fill:#ffffff;fill-opacity:1;fill-rule:evenodd;stroke:none"
     id="path91" /><path
     d="M 321.054,546.648 C 321.054,539.945 315.505,534.505 308.669,534.505 C 301.832,534.505 296.283,539.945 296.283,546.648 C 296.283,553.351 301.832,558.791 308.669,558.791 C 315.505,558.791 321.054,553.351 321.054,546.648 z"
     style="fill:none;stroke:#000000;stroke-width:0.68000001;stroke-linecap:square;stroke-linejoin:bevel;stroke-miterlimit:10;stroke-dasharray:none;stroke-opacity:1"
     id="path93" /><path
     d="M 340.278,690.427 L 337.538,680.393 L 376.904,641.751 L 363.37,592.171 L 314.737,579.966 L 309.145,558.783 L 309.145,558.783"
     style="fill:none;stroke:#000000;stroke-width:0.66436201;stroke-linecap:butt;stroke-linejoin:miter;stroke-miterlimit:10;stroke-dasharray:0.664362, 2.65745;stroke-dashoffset:0;stroke-opacity:1"
     id="path95" /><path
     d="M 310.84,565.207 L 308.949,568.454 L 309.145,558.783 L 314.088,567.098 L 310.84,565.207"
     style="fill:#000000;fill-opacity:1;fill-rule:evenodd;stroke:none"
     id="path97" /><path
     d="M 310.84,565.207 L 308.949,568.454 L 309.145,558.783 L 314.088,567.098 L 310.84,565.207 z"
     style="fill:none;stroke:#000000;stroke-width:0.66436201;stroke-linecap:butt;stroke-linejoin:miter;stroke-miterlimit:10;stroke-dasharray:none;stroke-opacity:1"
     id="path99" /><path
     d="M 308.668,559.277 L 305.754,579.677 L 274.183,616.105 L 291.183,663.22 L 281.954,671.477"
     style="fill:none;stroke:#000000;stroke-width:0.68000001;stroke-linecap:butt;stroke-linejoin:miter;stroke-miterlimit:10;stroke-dasharray:0.68, 2.72;stroke-dashoffset:0;stroke-opacity:1"
     id="path101" /><path
     d="M 287.022,666.943 L 290.862,667.156 L 281.954,671.477 L 287.235,663.102 L 287.022,666.943"
     style="fill:#000000;fill-opacity:1;fill-rule:evenodd;stroke:none"
     id="path103" /><path
     d="M 287.022,666.943 L 290.862,667.156 L 281.954,671.477 L 287.235,663.102 L 287.022,666.943 z"
     style="fill:none;stroke:#000000;stroke-width:0.68000001;stroke-linecap:butt;stroke-linejoin:miter;stroke-miterlimit:10;stroke-dasharray:none;stroke-opacity:1"
     id="path105" /><path
     d="M 357.726,701.591 C 385.573,687.667 419.5,670.685 418.926,649.134 C 419.328,629.666 406.297,606.229 391.24,580.648"
     style="fill:none;stroke:#000000;stroke-width:0.68000001;stroke-linecap:butt;stroke-linejoin:miter;stroke-miterlimit:10;stroke-dasharray:2.04, 2.04;stroke-dashoffset:0;stroke-opacity:1"
     id="path107" /><path
     d="M 394.689,586.508 L 393.725,590.232 L 391.24,580.648 L 398.413,587.473 L 394.689,586.508"
     style="fill:#000000;fill-opacity:1;fill-rule:evenodd;stroke:none"
     id="path109" /><path
     d="M 394.689,586.508 L 393.725,590.232 L 391.24,580.648 L 398.413,587.473 L 394.689,586.508 z"
     style="fill:none;stroke:#000000;stroke-width:0.68000001;stroke-linecap:butt;stroke-linejoin:miter;stroke-miterlimit:10;stroke-dasharray:none;stroke-opacity:1"
     id="path111" /><path
     d="M 378.126,558.791 C 378.126,558.791 313.526,518.477 302.84,522.848 C 292.154,527.22 250.383,591.82 250.383,591.82"
     style="fill:none;stroke:#000000;stroke-width:0.68000001;stroke-linecap:butt;stroke-linejoin:miter;stroke-miterlimit:10;stroke-dasharray:2.72, 2.72;stroke-dashoffset:0;stroke-opacity:1"
     id="path113" /><path
     d="M 254.075,586.109 L 257.836,585.302 L 250.383,591.82 L 253.268,582.348 L 254.075,586.109"
     style="fill:#000000;fill-opacity:1;fill-rule:evenodd;stroke:none"
     id="path115" /><path
     d="M 254.075,586.109 L 257.836,585.302 L 250.383,591.82 L 253.268,582.348 L 254.075,586.109 z"
     style="fill:none;stroke:#000000;stroke-width:0.68000001;stroke-linecap:butt;stroke-linejoin:miter;stroke-miterlimit:10;stroke-dasharray:none;stroke-opacity:1"
     id="path117" /><path
     d="M 343.765,700.382 L 345.189,700.382 L 345.189,705.298 L 343.64,704.988 L 343.64,705.782 L 345.181,706.093 L 346.053,706.093 L 346.053,700.382 L 347.477,700.382 L 347.477,699.648 L 343.765,699.648 L 343.765,700.382"
     style="fill:#000000;fill-opacity:1;fill-rule:nonzero;stroke:none"
     id="path119" /><path
     d="M 401.679,643.068 L 404.722,643.068 L 404.722,642.334 L 400.63,642.334 L 400.63,643.068 C 400.961,643.41 401.412,643.87 401.984,644.446 C 402.555,645.023 402.914,645.396 403.061,645.562 C 403.339,645.876 403.534,646.141 403.645,646.359 C 403.756,646.576 403.811,646.79 403.811,647 C 403.811,647.342 403.691,647.621 403.451,647.837 C 403.211,648.053 402.898,648.161 402.512,648.161 C 402.239,648.161 401.95,648.113 401.647,648.018 C 401.343,647.923 401.019,647.78 400.673,647.587 L 400.673,648.468 C 401.025,648.608 401.353,648.715 401.657,648.787 C 401.962,648.859 402.242,648.895 402.495,648.895 C 403.162,648.895 403.695,648.728 404.092,648.394 C 404.489,648.06 404.688,647.614 404.688,647.056 C 404.688,646.791 404.638,646.54 404.539,646.303 C 404.439,646.065 404.259,645.786 403.997,645.463 C 403.925,645.38 403.696,645.139 403.311,644.74 C 402.925,644.342 402.381,643.784 401.679,643.068 L 401.679,643.068"
     style="fill:#000000;fill-opacity:1;fill-rule:nonzero;stroke:none"
     id="path121" /><path
     d="M 383.655,570.523 C 384.073,570.434 384.398,570.248 384.633,569.966 C 384.868,569.684 384.985,569.336 384.985,568.921 C 384.985,568.286 384.766,567.793 384.329,567.445 C 383.891,567.097 383.27,566.923 382.464,566.923 C 382.194,566.923 381.915,566.95 381.629,567.003 C 381.343,567.056 381.047,567.136 380.742,567.242 L 380.742,568.084 C 380.984,567.943 381.248,567.837 381.536,567.764 C 381.824,567.693 382.125,567.657 382.438,567.657 C 382.985,567.657 383.402,567.764 383.688,567.98 C 383.974,568.196 384.117,568.51 384.117,568.921 C 384.117,569.301 383.984,569.598 383.718,569.813 C 383.452,570.027 383.081,570.134 382.607,570.134 L 381.855,570.134 L 381.855,570.851 L 382.641,570.851 C 383.07,570.851 383.398,570.936 383.625,571.108 C 383.853,571.279 383.966,571.526 383.966,571.848 C 383.966,572.179 383.849,572.433 383.614,572.61 C 383.38,572.787 383.044,572.875 382.607,572.875 C 382.368,572.875 382.112,572.849 381.838,572.798 C 381.565,572.746 381.264,572.665 380.936,572.556 L 380.936,573.333 C 381.267,573.425 381.577,573.494 381.866,573.54 C 382.155,573.586 382.428,573.609 382.684,573.609 C 383.346,573.609 383.87,573.459 384.255,573.158 C 384.641,572.857 384.834,572.451 384.834,571.939 C 384.834,571.582 384.732,571.28 384.527,571.034 C 384.323,570.788 384.032,570.618 383.655,570.523 L 383.655,570.523"
     style="fill:#000000;fill-opacity:1;fill-rule:nonzero;stroke:none"
     id="path123" /><path
     d="M 308.124,548.447 L 305.922,545.007 L 308.124,545.007 L 308.124,548.447 z M 307.895,549.207 L 308.991,549.207 L 308.991,545.007 L 309.911,545.007 L 309.911,544.282 L 308.991,544.282 L 308.991,542.762 L 308.124,542.762 L 308.124,544.282 L 305.214,544.282 L 305.214,545.123 L 307.895,549.207"
     style="fill:#000000;fill-opacity:1;fill-rule:nonzero;stroke:none"
     id="path125" /><path
     d="M 250.851,606.035 L 254.274,606.035 L 254.274,605.302 L 251.65,605.302 L 251.65,603.722 C 251.776,603.765 251.903,603.797 252.029,603.819 C 252.156,603.84 252.283,603.851 252.409,603.851 C 253.129,603.851 253.698,603.654 254.119,603.26 C 254.539,602.866 254.749,602.332 254.749,601.659 C 254.749,600.965 254.533,600.426 254.101,600.042 C 253.67,599.658 253.061,599.466 252.275,599.466 C 252.005,599.466 251.729,599.489 251.449,599.535 C 251.168,599.581 250.879,599.65 250.579,599.742 L 250.579,600.618 C 250.838,600.477 251.106,600.372 251.382,600.303 C 251.658,600.234 251.95,600.2 252.258,600.2 C 252.756,600.2 253.15,600.33 253.441,600.592 C 253.732,600.854 253.877,601.21 253.877,601.659 C 253.877,602.107 253.732,602.463 253.441,602.725 C 253.15,602.986 252.756,603.118 252.258,603.118 C 252.025,603.118 251.793,603.091 251.561,603.04 C 251.329,602.988 251.093,602.907 250.851,602.798 L 250.851,606.035"
     style="fill:#000000;fill-opacity:1;fill-rule:nonzero;stroke:none"
     id="path127" /><path
     d="M 271.272,676.989 C 270.881,676.989 270.571,676.855 270.342,676.588 C 270.113,676.32 269.999,675.953 269.999,675.487 C 269.999,675.024 270.113,674.657 270.342,674.389 C 270.571,674.12 270.881,673.985 271.272,673.985 C 271.664,673.985 271.973,674.12 272.202,674.389 C 272.431,674.657 272.545,675.024 272.545,675.487 C 272.545,675.953 272.431,676.32 272.202,676.588 C 271.973,676.855 271.664,676.989 271.272,676.989 L 271.272,676.989 z M 273.003,679.721 L 273.003,678.927 C 272.784,679.031 272.564,679.11 272.341,679.164 C 272.118,679.219 271.896,679.246 271.678,679.246 C 271.102,679.246 270.663,679.052 270.359,678.664 C 270.055,678.275 269.882,677.688 269.839,676.903 C 270.009,677.153 270.222,677.345 270.478,677.479 C 270.734,677.613 271.016,677.68 271.324,677.68 C 271.971,677.68 272.483,677.483 272.859,677.091 C 273.234,676.698 273.422,676.163 273.422,675.487 C 273.422,674.825 273.226,674.294 272.835,673.894 C 272.443,673.494 271.923,673.294 271.272,673.294 C 270.527,673.294 269.957,673.58 269.563,674.151 C 269.169,674.722 268.971,675.55 268.971,676.635 C 268.971,677.654 269.213,678.466 269.696,679.072 C 270.18,679.677 270.829,679.98 271.643,679.98 C 271.862,679.98 272.083,679.959 272.306,679.916 C 272.529,679.873 272.761,679.808 273.003,679.721 L 273.003,679.721"
     style="fill:#000000;fill-opacity:1;fill-rule:nonzero;stroke:none"
     id="path129" /><path
     d="M 412.755,673.659 L 412.755,671.095 L 411.957,671.095 L 411.957,677.768 L 412.755,677.768 L 412.755,677.034 C 412.923,677.322 413.133,677.536 413.388,677.675 C 413.643,677.815 413.947,677.885 414.301,677.885 C 414.888,677.885 415.365,677.652 415.732,677.186 C 416.099,676.719 416.282,676.106 416.282,675.346 C 416.282,674.587 416.099,673.974 415.732,673.508 C 415.365,673.042 414.888,672.809 414.301,672.809 C 413.947,672.809 413.643,672.879 413.388,673.018 C 413.133,673.157 412.923,673.371 412.755,673.659 L 412.755,673.659 z M 415.458,675.346 C 415.458,675.931 415.338,676.389 415.097,676.721 C 414.857,677.054 414.527,677.22 414.107,677.22 C 413.687,677.22 413.356,677.054 413.116,676.721 C 412.876,676.389 412.755,675.931 412.755,675.346 C 412.755,674.762 412.876,674.304 413.116,673.972 C 413.356,673.639 413.687,673.473 414.107,673.473 C 414.527,673.473 414.857,673.639 415.097,673.972 C 415.338,674.304 415.458,674.762 415.458,675.346 L 415.458,675.346"
     style="fill:#000000;fill-opacity:1;fill-rule:nonzero;stroke:none"
     id="path131" /><path
     d="M 416.369,669.127 L 417.465,669.127 L 417.465,672.909 L 416.273,672.67 L 416.273,673.28 L 417.458,673.52 L 418.129,673.52 L 418.129,669.127 L 419.225,669.127 L 419.225,668.562 L 416.369,668.562 L 416.369,669.127"
     style="fill:#000000;fill-opacity:1;fill-rule:nonzero;stroke:none"
     id="path133" /><path
     d="M 374.141,612.896 L 374.141,610.332 L 373.343,610.332 L 373.343,617.005 L 374.141,617.005 L 374.141,616.271 C 374.308,616.559 374.519,616.773 374.774,616.912 C 375.029,617.052 375.333,617.122 375.687,617.122 C 376.274,617.122 376.751,616.889 377.118,616.423 C 377.484,615.956 377.668,615.343 377.668,614.584 C 377.668,613.824 377.484,613.211 377.118,612.745 C 376.751,612.279 376.274,612.046 375.687,612.046 C 375.333,612.046 375.029,612.116 374.774,612.255 C 374.519,612.395 374.308,612.608 374.141,612.896 L 374.141,612.896 z M 376.843,614.584 C 376.843,615.168 376.723,615.626 376.483,615.959 C 376.243,616.291 375.912,616.457 375.493,616.457 C 375.072,616.457 374.742,616.291 374.502,615.959 C 374.261,615.626 374.141,615.168 374.141,614.584 C 374.141,614 374.261,613.541 374.502,613.209 C 374.742,612.877 375.072,612.711 375.493,612.711 C 375.912,612.711 376.243,612.877 376.483,613.209 C 376.723,613.541 376.843,614 376.843,614.584 L 376.843,614.584"
     style="fill:#000000;fill-opacity:1;fill-rule:nonzero;stroke:none"
     id="path135" /><path
     d="M 378.832,608.906 L 381.407,608.906 L 381.407,608.285 L 377.945,608.285 L 377.945,608.906 C 378.225,609.196 378.607,609.585 379.09,610.073 C 379.573,610.561 379.877,610.876 380.001,611.017 C 380.238,611.282 380.402,611.507 380.496,611.691 C 380.59,611.875 380.637,612.055 380.637,612.233 C 380.637,612.523 380.535,612.759 380.332,612.942 C 380.129,613.125 379.864,613.216 379.538,613.216 C 379.306,613.216 379.062,613.176 378.805,613.095 C 378.548,613.015 378.274,612.893 377.982,612.73 L 377.982,613.475 C 378.279,613.595 378.556,613.684 378.814,613.745 C 379.072,613.806 379.309,613.837 379.523,613.837 C 380.088,613.837 380.538,613.696 380.874,613.413 C 381.21,613.13 381.378,612.753 381.378,612.281 C 381.378,612.057 381.336,611.845 381.252,611.643 C 381.168,611.443 381.015,611.206 380.794,610.933 C 380.733,610.862 380.539,610.659 380.213,610.321 C 379.887,609.984 379.427,609.512 378.832,608.906 L 378.832,608.906"
     style="fill:#000000;fill-opacity:1;fill-rule:nonzero;stroke:none"
     id="path137" /><path
     d="M 328.335,525.21 L 328.335,523.041 L 327.659,523.041 L 327.659,528.687 L 328.335,528.687 L 328.335,528.066 C 328.476,528.31 328.655,528.491 328.87,528.609 C 329.086,528.727 329.343,528.786 329.643,528.786 C 330.139,528.786 330.543,528.589 330.853,528.194 C 331.164,527.8 331.319,527.281 331.319,526.638 C 331.319,525.995 331.164,525.477 330.853,525.082 C 330.543,524.688 330.139,524.491 329.643,524.491 C 329.343,524.491 329.086,524.55 328.87,524.668 C 328.655,524.786 328.476,524.967 328.335,525.21 L 328.335,525.21 z M 330.621,526.638 C 330.621,527.132 330.52,527.52 330.316,527.802 C 330.113,528.083 329.834,528.223 329.478,528.223 C 329.123,528.223 328.843,528.083 328.64,527.802 C 328.437,527.52 328.335,527.132 328.335,526.638 C 328.335,526.144 328.437,525.756 328.64,525.475 C 328.843,525.194 329.123,525.053 329.478,525.053 C 329.834,525.053 330.113,525.194 330.316,525.475 C 330.52,525.756 330.621,526.144 330.621,526.638 L 330.621,526.638"
     style="fill:#000000;fill-opacity:1;fill-rule:nonzero;stroke:none"
     id="path139" /><path
     d="M 333.901,523.651 C 334.254,523.576 334.53,523.418 334.728,523.18 C 334.927,522.941 335.026,522.646 335.026,522.296 C 335.026,521.758 334.841,521.341 334.471,521.047 C 334.1,520.752 333.575,520.605 332.893,520.605 C 332.664,520.605 332.428,520.627 332.186,520.673 C 331.944,520.718 331.694,520.785 331.436,520.875 L 331.436,521.588 C 331.64,521.468 331.864,521.378 332.107,521.317 C 332.351,521.256 332.605,521.226 332.871,521.226 C 333.334,521.226 333.686,521.317 333.928,521.5 C 334.17,521.682 334.291,521.948 334.291,522.296 C 334.291,522.618 334.179,522.869 333.954,523.05 C 333.729,523.232 333.415,523.322 333.013,523.322 L 332.378,523.322 L 332.378,523.929 L 333.043,523.929 C 333.405,523.929 333.683,524.001 333.875,524.146 C 334.068,524.291 334.164,524.5 334.164,524.772 C 334.164,525.052 334.064,525.267 333.866,525.417 C 333.668,525.567 333.383,525.641 333.013,525.641 C 332.811,525.641 332.595,525.62 332.363,525.576 C 332.132,525.532 331.877,525.464 331.6,525.371 L 331.6,526.029 C 331.88,526.107 332.142,526.165 332.387,526.204 C 332.632,526.243 332.862,526.262 333.079,526.262 C 333.639,526.262 334.082,526.135 334.409,525.881 C 334.735,525.627 334.898,525.282 334.898,524.849 C 334.898,524.547 334.811,524.292 334.639,524.084 C 334.466,523.876 334.22,523.731 333.901,523.651 L 333.901,523.651"
     style="fill:#000000;fill-opacity:1;fill-rule:nonzero;stroke:none"
     id="path141" /><path
     d="M 281.273,621.056 L 281.273,618.492 L 280.474,618.492 L 280.474,625.165 L 281.273,625.165 L 281.273,624.432 C 281.44,624.719 281.65,624.933 281.905,625.073 C 282.16,625.212 282.464,625.282 282.818,625.282 C 283.405,625.282 283.882,625.049 284.249,624.582 C 284.616,624.116 284.799,623.504 284.799,622.744 C 284.799,621.984 284.616,621.371 284.249,620.905 C 283.882,620.439 283.405,620.206 282.818,620.206 C 282.464,620.206 282.16,620.275 281.905,620.415 C 281.65,620.555 281.44,620.768 281.273,621.056 L 281.273,621.056 z M 283.975,622.744 C 283.975,623.328 283.855,623.786 283.614,624.119 C 283.374,624.451 283.044,624.617 282.624,624.617 C 282.204,624.617 281.873,624.451 281.633,624.119 C 281.393,623.786 281.273,623.328 281.273,622.744 C 281.273,622.16 281.393,621.702 281.633,621.369 C 281.873,621.037 282.204,620.87 282.624,620.87 C 283.044,620.87 283.374,621.037 283.614,621.369 C 283.855,621.702 283.975,622.16 283.975,622.744 L 283.975,622.744"
     style="fill:#000000;fill-opacity:1;fill-rule:nonzero;stroke:none"
     id="path143" /><path
     d="M 286.87,620.77 L 285.007,617.859 L 286.87,617.859 L 286.87,620.77 z M 286.676,621.412 L 287.604,621.412 L 287.604,617.859 L 288.382,617.859 L 288.382,617.245 L 287.604,617.245 L 287.604,615.959 L 286.87,615.959 L 286.87,617.245 L 284.408,617.245 L 284.408,617.957 L 286.676,621.412"
     style="fill:#000000;fill-opacity:1;fill-rule:nonzero;stroke:none"
     id="path145" /><path
     d="M 335.493,709.659 C 335.493,709.659 315.212,715.64 298.934,709.659 C 287.477,705.45 278.311,690.443 278.311,690.443"
     style="fill:none;stroke:#000000;stroke-width:0.68000001;stroke-linecap:butt;stroke-linejoin:miter;stroke-miterlimit:10;stroke-dasharray:2.04, 2.04;stroke-dashoffset:0;stroke-opacity:1"
     id="path147" /><path
     d="M 281.855,696.246 L 280.952,699.985 L 278.311,690.443 L 285.594,697.149 L 281.855,696.246"
     style="fill:#000000;fill-opacity:1;fill-rule:evenodd;stroke:none"
     id="path149" /><path
     d="M 281.855,696.246 L 280.952,699.985 L 278.311,690.443 L 285.594,697.149 L 281.855,696.246 z"
     style="fill:none;stroke:#000000;stroke-width:0.68000001;stroke-linecap:butt;stroke-linejoin:miter;stroke-miterlimit:10;stroke-dasharray:none;stroke-opacity:1"
     id="path151" /><path
     d="M 298.868,721.253 L 298.868,718.689 L 298.069,718.689 L 298.069,725.362 L 298.868,725.362 L 298.868,724.628 C 299.034,724.916 299.245,725.13 299.5,725.269 C 299.755,725.409 300.059,725.479 300.413,725.479 C 301,725.479 301.477,725.245 301.844,724.779 C 302.211,724.313 302.394,723.7 302.394,722.941 C 302.394,722.181 302.211,721.568 301.844,721.102 C 301.477,720.636 301,720.402 300.413,720.402 C 300.059,720.402 299.755,720.472 299.5,720.612 C 299.245,720.751 299.034,720.965 298.868,721.253 L 298.868,721.253 z M 301.57,722.941 C 301.57,723.525 301.45,723.983 301.209,724.315 C 300.969,724.648 300.639,724.814 300.219,724.814 C 299.798,724.814 299.468,724.648 299.228,724.315 C 298.988,723.983 298.868,723.525 298.868,722.941 C 298.868,722.356 298.988,721.898 299.228,721.566 C 299.468,721.233 299.798,721.067 300.219,721.067 C 300.639,721.067 300.969,721.233 301.209,721.566 C 301.45,721.898 301.57,722.356 301.57,722.941 L 301.57,722.941"
     style="fill:#000000;fill-opacity:1;fill-rule:nonzero;stroke:none"
     id="path153" /><path
     d="M 303.307,720.838 L 306.204,720.838 L 306.204,720.217 L 303.983,720.217 L 303.983,718.88 C 304.09,718.917 304.197,718.945 304.304,718.962 C 304.411,718.981 304.518,718.99 304.626,718.99 C 305.234,718.99 305.716,718.823 306.072,718.49 C 306.427,718.156 306.605,717.704 306.605,717.135 C 306.605,716.548 306.423,716.092 306.057,715.767 C 305.692,715.442 305.177,715.279 304.512,715.279 C 304.284,715.279 304.05,715.299 303.813,715.338 C 303.576,715.377 303.33,715.435 303.077,715.513 L 303.077,716.254 C 303.296,716.135 303.523,716.046 303.756,715.988 C 303.99,715.929 304.237,715.9 304.498,715.9 C 304.919,715.9 305.253,716.011 305.498,716.232 C 305.745,716.454 305.868,716.755 305.868,717.135 C 305.868,717.514 305.745,717.815 305.498,718.037 C 305.253,718.258 304.919,718.369 304.498,718.369 C 304.3,718.369 304.104,718.347 303.908,718.304 C 303.712,718.26 303.512,718.191 303.307,718.099 L 303.307,720.838"
     style="fill:#000000;fill-opacity:1;fill-rule:nonzero;stroke:none"
     id="path155" /></g><g
   id="g2764"
   transform="translate(-132.93057,240.21871)"><g
     id="g157"><text
   transform="translate(289.32,505.54)"
   id="text159"><tspan
     style="font-size:-0.12px;font-variant:normal;font-weight:normal;writing-mode:lr-tb;fill:#231f20;fill-opacity:1;fill-rule:nonzero;stroke:none;font-family:Arial;-inkscape-font-specification:Arial"
     x="0 3.8399999 8.8800001"
     y="0"
     sodipodi:role="line"
     id="tspan161">´´µ</tspan></text>

</g><path
     d="M 316.7,479.861 L 283.39,350.698"
     style="fill:none;stroke:#000000;stroke-width:0.67980498;stroke-linecap:butt;stroke-linejoin:miter;stroke-miterlimit:10;stroke-dasharray:none;stroke-opacity:1"
     id="path163" /><path
     d="M 285.087,357.28 L 283.133,360.593 L 283.389,350.698 L 288.399,359.234 L 285.087,357.28"
     style="fill:#000000;fill-opacity:1;fill-rule:evenodd;stroke:none"
     id="path165" /><path
     d="M 285.087,357.28 L 283.133,360.593 L 283.389,350.698 L 288.399,359.234 L 285.087,357.28 z"
     style="fill:none;stroke:#000000;stroke-width:0.67980498;stroke-linecap:butt;stroke-linejoin:miter;stroke-miterlimit:10;stroke-dasharray:none;stroke-opacity:1"
     id="path167" /><path
     d="M 282.079,349.338 L 248.088,458.307"
     style="fill:none;stroke:#000000;stroke-width:0.67833;stroke-linecap:butt;stroke-linejoin:miter;stroke-miterlimit:10;stroke-dasharray:none;stroke-opacity:1"
     id="path169" /><path
     d="M 250.107,451.831 L 253.505,450.049 L 248.088,458.307 L 248.325,448.433 L 250.107,451.831"
     style="fill:#000000;fill-opacity:1;fill-rule:evenodd;stroke:none"
     id="path171" /><path
     d="M 250.107,451.831 L 253.505,450.049 L 248.088,458.307 L 248.325,448.433 L 250.107,451.831 z"
     style="fill:none;stroke:#000000;stroke-width:0.67833;stroke-linecap:butt;stroke-linejoin:miter;stroke-miterlimit:10;stroke-dasharray:none;stroke-opacity:1"
     id="path173" /><path
     d="M 339.141,363.607 L 238.763,390.133"
     style="fill:none;stroke:#000000;stroke-width:0.66583002;stroke-linecap:butt;stroke-linejoin:miter;stroke-miterlimit:10;stroke-dasharray:none;stroke-opacity:1"
     id="path175" /><path
     d="M 245.2,388.432 L 248.456,390.327 L 238.763,390.133 L 247.095,385.177 L 245.2,388.432"
     style="fill:#000000;fill-opacity:1;fill-rule:evenodd;stroke:none"
     id="path177" /><path
     d="M 245.2,388.432 L 248.456,390.327 L 238.763,390.133 L 247.095,385.177 L 245.2,388.432 z"
     style="fill:none;stroke:#000000;stroke-width:0.66583002;stroke-linecap:butt;stroke-linejoin:miter;stroke-miterlimit:10;stroke-dasharray:none;stroke-opacity:1"
     id="path179" /><path
     d="M 316.048,481.873 L 350.754,376.125"
     style="fill:none;stroke:#000000;stroke-width:0.734438;stroke-linecap:butt;stroke-linejoin:miter;stroke-miterlimit:10;stroke-dasharray:none;stroke-opacity:1"
     id="path181" /><path
     d="M 348.463,383.104 L 344.756,384.979 L 350.754,376.125 L 350.339,386.811 L 348.463,383.104"
     style="fill:#000000;fill-opacity:1;fill-rule:evenodd;stroke:none"
     id="path183" /><path
     d="M 348.463,383.104 L 344.756,384.979 L 350.754,376.125 L 350.339,386.811 L 348.463,383.104 z"
     style="fill:none;stroke:#000000;stroke-width:0.734438;stroke-linecap:butt;stroke-linejoin:miter;stroke-miterlimit:10;stroke-dasharray:none;stroke-opacity:1"
     id="path185" /><path
     d="M 330.146,484.619 C 330.146,477.918 324.599,472.48 317.764,472.48 C 310.929,472.48 305.382,477.918 305.382,484.619 C 305.382,491.32 310.929,496.758 317.764,496.758 C 324.599,496.758 330.146,491.32 330.146,484.619"
     style="fill:#ffffff;fill-opacity:1;fill-rule:evenodd;stroke:none"
     id="path187" /><path
     d="M 330.146,484.619 C 330.146,477.918 324.599,472.48 317.764,472.48 C 310.929,472.48 305.382,477.918 305.382,484.619 C 305.382,491.32 310.929,496.758 317.764,496.758 C 324.599,496.758 330.146,491.32 330.146,484.619 z"
     style="fill:none;stroke:#000000;stroke-width:0.67980498;stroke-linecap:square;stroke-linejoin:bevel;stroke-miterlimit:10;stroke-dasharray:none;stroke-opacity:1"
     id="path189" /><path
     d="M 315.946,483.41 L 317.37,483.41 L 317.37,488.325 L 315.821,488.014 L 315.821,488.809 L 317.362,489.119 L 318.233,489.119 L 318.233,483.41 L 319.657,483.41 L 319.657,482.677 L 315.946,482.677 L 315.946,483.41"
     style="fill:#000000;fill-opacity:1;fill-rule:nonzero;stroke:none"
     id="path191" /><path
     d="M 385.987,437.435 C 385.987,430.734 380.44,425.296 373.605,425.296 C 366.77,425.296 361.223,430.734 361.223,437.435 C 361.223,444.136 366.77,449.575 373.605,449.575 C 380.44,449.575 385.987,444.136 385.987,437.435"
     style="fill:#ffffff;fill-opacity:1;fill-rule:evenodd;stroke:none"
     id="path193" /><path
     d="M 385.987,437.435 C 385.987,430.734 380.44,425.296 373.605,425.296 C 366.77,425.296 361.223,430.734 361.223,437.435 C 361.223,444.136 366.77,449.575 373.605,449.575 C 380.44,449.575 385.987,444.136 385.987,437.435 z"
     style="fill:none;stroke:#000000;stroke-width:0.67980498;stroke-linecap:square;stroke-linejoin:bevel;stroke-miterlimit:10;stroke-dasharray:none;stroke-opacity:1"
     id="path195" /><path
     d="M 373.844,434.284 L 376.886,434.284 L 376.886,433.551 L 372.795,433.551 L 372.795,434.284 C 373.126,434.627 373.577,435.086 374.148,435.663 C 374.719,436.24 375.078,436.612 375.225,436.779 C 375.504,437.092 375.699,437.357 375.809,437.575 C 375.92,437.792 375.976,438.005 375.976,438.216 C 375.976,438.558 375.855,438.837 375.615,439.053 C 375.375,439.268 375.062,439.376 374.677,439.376 C 374.404,439.376 374.115,439.329 373.812,439.234 C 373.508,439.139 373.184,438.995 372.839,438.802 L 372.839,439.682 C 373.189,439.823 373.518,439.93 373.822,440.002 C 374.127,440.074 374.406,440.11 374.659,440.11 C 375.327,440.11 375.859,439.943 376.256,439.609 C 376.653,439.275 376.852,438.83 376.852,438.271 C 376.852,438.007 376.802,437.756 376.703,437.518 C 376.604,437.281 376.423,437.002 376.161,436.679 C 376.089,436.596 375.861,436.355 375.475,435.956 C 375.089,435.558 374.546,435.001 373.844,434.284 L 373.844,434.284"
     style="fill:#000000;fill-opacity:1;fill-rule:nonzero;stroke:none"
     id="path197" /><path
     d="M 364.165,363.138 C 364.165,356.437 358.618,350.998 351.783,350.998 C 344.948,350.998 339.401,356.437 339.401,363.138 C 339.401,369.838 344.948,375.277 351.783,375.277 C 358.618,375.277 364.165,369.838 364.165,363.138"
     style="fill:#ffffff;fill-opacity:1;fill-rule:evenodd;stroke:none"
     id="path199" /><path
     d="M 364.165,363.138 C 364.165,356.437 358.618,350.998 351.783,350.998 C 344.948,350.998 339.401,356.437 339.401,363.138 C 339.401,369.838 344.948,375.277 351.783,375.277 C 358.618,375.277 364.165,369.838 364.165,363.138 z"
     style="fill:none;stroke:#000000;stroke-width:0.67980498;stroke-linecap:square;stroke-linejoin:bevel;stroke-miterlimit:10;stroke-dasharray:none;stroke-opacity:1"
     id="path201" /><path
     d="M 352.941,362.241 C 353.358,362.152 353.684,361.966 353.919,361.684 C 354.153,361.402 354.27,361.054 354.27,360.64 C 354.27,360.004 354.052,359.512 353.614,359.164 C 353.177,358.816 352.556,358.642 351.75,358.642 C 351.48,358.642 351.202,358.669 350.915,358.722 C 350.629,358.775 350.334,358.855 350.029,358.962 L 350.029,359.803 C 350.27,359.662 350.535,359.555 350.823,359.484 C 351.11,359.412 351.411,359.376 351.724,359.376 C 352.271,359.376 352.688,359.484 352.973,359.7 C 353.26,359.915 353.403,360.229 353.403,360.64 C 353.403,361.02 353.27,361.317 353.004,361.531 C 352.738,361.746 352.367,361.853 351.893,361.853 L 351.142,361.853 L 351.142,362.569 L 351.927,362.569 C 352.356,362.569 352.684,362.655 352.911,362.826 C 353.138,362.997 353.252,363.244 353.252,363.566 C 353.252,363.896 353.135,364.15 352.9,364.327 C 352.666,364.504 352.33,364.593 351.893,364.593 C 351.654,364.593 351.398,364.567 351.125,364.515 C 350.851,364.463 350.551,364.383 350.223,364.273 L 350.223,365.05 C 350.554,365.142 350.864,365.211 351.153,365.257 C 351.442,365.304 351.714,365.327 351.97,365.327 C 352.632,365.327 353.155,365.176 353.541,364.875 C 353.927,364.575 354.119,364.168 354.119,363.656 C 354.119,363.3 354.017,362.998 353.813,362.752 C 353.609,362.506 353.318,362.336 352.941,362.241 L 352.941,362.241"
     style="fill:#000000;fill-opacity:1;fill-rule:nonzero;stroke:none"
     id="path203" /><path
     d="M 293.242,337.893 C 293.242,331.191 287.695,325.753 280.86,325.753 C 274.025,325.753 268.478,331.191 268.478,337.893 C 268.478,344.593 274.025,350.032 280.86,350.032 C 287.695,350.032 293.242,344.593 293.242,337.893"
     style="fill:#ffffff;fill-opacity:1;fill-rule:evenodd;stroke:none"
     id="path205" /><path
     d="M 293.242,337.893 C 293.242,331.191 287.695,325.753 280.86,325.753 C 274.025,325.753 268.478,331.191 268.478,337.893 C 268.478,344.593 274.025,350.032 280.86,350.032 C 287.695,350.032 293.242,344.593 293.242,337.893 z"
     style="fill:none;stroke:#000000;stroke-width:0.67980498;stroke-linecap:square;stroke-linejoin:bevel;stroke-miterlimit:10;stroke-dasharray:none;stroke-opacity:1"
     id="path207" /><path
     d="M 280.315,339.691 L 278.114,336.252 L 280.315,336.252 L 280.315,339.691 z M 280.087,340.45 L 281.183,340.45 L 281.183,336.252 L 282.102,336.252 L 282.102,335.527 L 281.183,335.527 L 281.183,334.008 L 280.315,334.008 L 280.315,335.527 L 277.407,335.527 L 277.407,336.368 L 280.087,340.45"
     style="fill:#000000;fill-opacity:1;fill-rule:nonzero;stroke:none"
     id="path209" /><path
     d="M 237.887,394.705 C 237.887,388.004 232.339,382.565 225.504,382.565 C 218.67,382.565 213.122,388.004 213.122,394.705 C 213.122,401.406 218.67,406.844 225.504,406.844 C 232.339,406.844 237.887,401.406 237.887,394.705"
     style="fill:#ffffff;fill-opacity:1;fill-rule:evenodd;stroke:none"
     id="path211" /><path
     d="M 237.887,394.705 C 237.887,388.004 232.339,382.565 225.504,382.565 C 218.67,382.565 213.122,388.004 213.122,394.705 C 213.122,401.406 218.67,406.844 225.504,406.844 C 232.339,406.844 237.887,401.406 237.887,394.705 z"
     style="fill:none;stroke:#000000;stroke-width:0.67980498;stroke-linecap:square;stroke-linejoin:bevel;stroke-miterlimit:10;stroke-dasharray:none;stroke-opacity:1"
     id="path213" /><path
     d="M 223.059,397.262 L 226.481,397.262 L 226.481,396.529 L 223.857,396.529 L 223.857,394.95 C 223.984,394.993 224.111,395.025 224.237,395.047 C 224.364,395.068 224.49,395.079 224.617,395.079 C 225.336,395.079 225.906,394.882 226.326,394.488 C 226.746,394.094 226.956,393.56 226.956,392.887 C 226.956,392.194 226.74,391.655 226.309,391.271 C 225.877,390.887 225.268,390.695 224.483,390.695 C 224.212,390.695 223.937,390.718 223.657,390.764 C 223.376,390.81 223.086,390.879 222.787,390.971 L 222.787,391.847 C 223.046,391.706 223.314,391.601 223.59,391.532 C 223.866,391.463 224.158,391.429 224.466,391.429 C 224.964,391.429 225.358,391.559 225.648,391.821 C 225.939,392.083 226.084,392.438 226.084,392.887 C 226.084,393.336 225.939,393.691 225.648,393.953 C 225.358,394.215 224.964,394.346 224.466,394.346 C 224.233,394.346 224,394.32 223.769,394.268 C 223.538,394.216 223.301,394.136 223.059,394.026 L 223.059,397.262"
     style="fill:#000000;fill-opacity:1;fill-rule:nonzero;stroke:none"
     id="path215" /><path
     d="M 255.61,469.969 C 255.61,463.268 250.063,457.83 243.228,457.83 C 236.393,457.83 230.846,463.268 230.846,469.969 C 230.846,476.67 236.393,482.108 243.228,482.108 C 250.063,482.108 255.61,476.67 255.61,469.969"
     style="fill:#ffffff;fill-opacity:1;fill-rule:evenodd;stroke:none"
     id="path217" /><path
     d="M 255.61,469.969 C 255.61,463.268 250.063,457.83 243.228,457.83 C 236.393,457.83 230.846,463.268 230.846,469.969 C 230.846,476.67 236.393,482.108 243.228,482.108 C 250.063,482.108 255.61,476.67 255.61,469.969 z"
     style="fill:none;stroke:#000000;stroke-width:0.67980498;stroke-linecap:square;stroke-linejoin:bevel;stroke-miterlimit:10;stroke-dasharray:none;stroke-opacity:1"
     id="path219" /><path
     d="M 243.474,468.196 C 243.083,468.196 242.773,468.062 242.545,467.795 C 242.316,467.527 242.201,467.161 242.201,466.695 C 242.201,466.231 242.316,465.865 242.545,465.596 C 242.773,465.327 243.083,465.193 243.474,465.193 C 243.866,465.193 244.175,465.327 244.404,465.596 C 244.633,465.865 244.747,466.231 244.747,466.695 C 244.747,467.161 244.633,467.527 244.404,467.795 C 244.175,468.062 243.866,468.196 243.474,468.196 L 243.474,468.196 z M 245.205,470.928 L 245.205,470.134 C 244.986,470.237 244.765,470.316 244.542,470.371 C 244.32,470.426 244.098,470.453 243.88,470.453 C 243.305,470.453 242.865,470.259 242.562,469.87 C 242.258,469.482 242.085,468.895 242.042,468.11 C 242.211,468.36 242.424,468.552 242.68,468.686 C 242.936,468.82 243.218,468.887 243.526,468.887 C 244.173,468.887 244.685,468.69 245.06,468.298 C 245.436,467.905 245.623,467.371 245.623,466.695 C 245.623,466.033 245.428,465.502 245.036,465.102 C 244.645,464.702 244.125,464.502 243.474,464.502 C 242.729,464.502 242.16,464.788 241.766,465.359 C 241.371,465.93 241.174,466.758 241.174,467.842 C 241.174,468.861 241.416,469.673 241.899,470.278 C 242.382,470.884 243.031,471.187 243.845,471.187 C 244.064,471.187 244.285,471.165 244.508,471.122 C 244.731,471.079 244.963,471.014 245.205,470.928 L 245.205,470.928"
     style="fill:#000000;fill-opacity:1;fill-rule:nonzero;stroke:none"
     id="path221" /><path
     d="M 305.253,483.881 L 256.703,472.825"
     style="fill:none;stroke:#000000;stroke-width:0.67980498;stroke-linecap:butt;stroke-linejoin:miter;stroke-miterlimit:10;stroke-dasharray:none;stroke-opacity:1"
     id="path223" /><path
     d="M 263.331,474.334 L 265.379,477.589 L 256.703,472.825 L 266.586,472.287 L 263.331,474.334"
     style="fill:#000000;fill-opacity:1;fill-rule:evenodd;stroke:none"
     id="path225" /><path
     d="M 263.331,474.334 L 265.379,477.589 L 256.703,472.825 L 266.586,472.287 L 263.331,474.334 z"
     style="fill:none;stroke:#000000;stroke-width:0.67980498;stroke-linecap:butt;stroke-linejoin:miter;stroke-miterlimit:10;stroke-dasharray:none;stroke-opacity:1"
     id="path227" /></g><g
   id="g5232"
   transform="translate(-27.2,0)"><path
     d="M 472.67233,758.50284 C 550.87233,758.50284 550.87233,758.98884 550.87233,758.98884"
     style="fill:none;stroke:#000000;stroke-width:0.68000001;stroke-linecap:butt;stroke-linejoin:miter;stroke-miterlimit:10;stroke-dasharray:none;stroke-opacity:1"
     id="path29" /><g
     transform="translate(291.35833,16.59275)"
     id="g5016"><path
       id="path55"
       style="fill:none;stroke:#000000;stroke-width:0.68000001;stroke-linecap:butt;stroke-linejoin:miter;stroke-miterlimit:10;stroke-dasharray:0.68, 4.08;stroke-dashoffset:0;stroke-opacity:1"
       d="M 181.314,725.877 C 259.514,725.877 259.514,726.362 259.514,726.362" /></g><path
     d="M 472.67233,726.43564 C 550.87233,726.43564 550.87233,726.92164 550.87233,726.92164"
     style="fill:none;stroke:#000000;stroke-width:0.68000001;stroke-linecap:butt;stroke-linejoin:miter;stroke-miterlimit:10;stroke-dasharray:2.04, 2.04;stroke-dashoffset:0;stroke-opacity:1"
     id="path61" /><g
     transform="translate(149.61333,20.131193)"
     id="g4994"><path
       id="path31"
       style="fill:#000000;fill-opacity:1;fill-rule:nonzero;stroke:none"
       d="M 269.339,738.498 L 269.339,738.11 L 265.688,738.11 C 265.722,737.563 265.887,737.146 266.182,736.86 C 266.477,736.574 266.888,736.43 267.414,736.43 C 267.72,736.43 268.015,736.468 268.302,736.543 C 268.588,736.618 268.872,736.73 269.154,736.879 L 269.154,736.129 C 268.869,736.007 268.577,735.915 268.278,735.852 C 267.979,735.789 267.675,735.757 267.367,735.757 C 266.596,735.757 265.985,735.982 265.535,736.43 C 265.084,736.879 264.859,737.487 264.859,738.252 C 264.859,739.043 265.073,739.671 265.5,740.136 C 265.927,740.601 266.504,740.833 267.229,740.833 C 267.879,740.833 268.394,740.624 268.772,740.205 C 269.15,739.786 269.339,739.218 269.339,738.498 L 269.339,738.498 z M 268.545,738.731 C 268.539,739.166 268.418,739.512 268.18,739.771 C 267.943,740.03 267.629,740.16 267.238,740.16 C 266.795,740.16 266.44,740.035 266.173,739.784 C 265.907,739.534 265.754,739.182 265.714,738.727 L 268.545,738.731" /><path
       id="path33"
       style="fill:#000000;fill-opacity:1;fill-rule:nonzero;stroke:none"
       d="M 274.662,738.8 L 274.662,735.882 L 273.868,735.882 L 273.868,738.774 C 273.868,739.232 273.778,739.574 273.6,739.802 C 273.421,740.029 273.154,740.143 272.797,740.143 C 272.368,740.143 272.03,740.006 271.783,739.732 C 271.535,739.459 271.411,739.087 271.411,738.614 L 271.411,735.882 L 270.613,735.882 L 270.613,740.717 L 271.411,740.717 L 271.411,739.966 C 271.602,740.256 271.825,740.473 272.083,740.618 C 272.34,740.761 272.638,740.833 272.974,740.833 C 273.529,740.833 273.95,740.661 274.234,740.318 C 274.519,739.973 274.662,739.468 274.662,738.8 L 274.662,738.8" /><path
       id="path35"
       style="fill:#000000;fill-opacity:1;fill-rule:nonzero;stroke:none"
       d="M 276.254,735.882 L 277.04853,735.882 L 277.04853,742.59841 L 276.254,742.59841 L 276.254,735.882 z" /><path
       id="path37"
       style="fill:#000000;fill-opacity:1;fill-rule:nonzero;stroke:none"
       d="M 280.903,738.312 C 280.262,738.312 279.817,738.239 279.57,738.092 C 279.322,737.946 279.198,737.695 279.198,737.341 C 279.198,737.059 279.291,736.836 279.477,736.67 C 279.662,736.505 279.915,736.422 280.234,736.422 C 280.675,736.422 281.028,736.578 281.294,736.89 C 281.56,737.202 281.693,737.618 281.693,738.136 L 281.693,738.312 L 280.903,738.312 z M 282.488,738.641 L 282.488,735.882 L 281.693,735.882 L 281.693,736.616 C 281.512,736.323 281.286,736.106 281.016,735.966 C 280.745,735.827 280.414,735.757 280.023,735.757 C 279.528,735.757 279.134,735.896 278.842,736.174 C 278.55,736.452 278.404,736.823 278.404,737.289 C 278.404,737.833 278.586,738.243 278.95,738.52 C 279.314,738.796 279.857,738.934 280.58,738.934 L 281.693,738.934 L 281.693,739.012 C 281.693,739.377 281.573,739.66 281.333,739.86 C 281.093,740.06 280.755,740.16 280.321,740.16 C 280.044,740.16 279.775,740.127 279.513,740.061 C 279.252,739.995 279,739.895 278.758,739.763 L 278.758,740.496 C 279.048,740.609 279.33,740.693 279.604,740.749 C 279.877,740.805 280.144,740.833 280.403,740.833 C 281.102,740.833 281.624,740.652 281.97,740.289 C 282.315,739.927 282.488,739.377 282.488,738.641 L 282.488,738.641" /><path
       id="path39"
       style="fill:#000000;fill-opacity:1;fill-rule:nonzero;stroke:none"
       d="M 287.607,740.531 L 287.607,739.789 C 287.382,739.912 287.157,740.005 286.931,740.067 C 286.705,740.129 286.477,740.16 286.247,740.16 C 285.732,740.16 285.332,739.996 285.047,739.67 C 284.762,739.343 284.62,738.885 284.62,738.295 C 284.62,737.705 284.762,737.247 285.047,736.92 C 285.332,736.594 285.732,736.43 286.247,736.43 C 286.477,736.43 286.705,736.461 286.931,736.523 C 287.157,736.585 287.382,736.678 287.607,736.802 L 287.607,736.068 C 287.385,735.964 287.155,735.887 286.918,735.835 C 286.681,735.783 286.428,735.757 286.161,735.757 C 285.432,735.757 284.854,735.986 284.425,736.443 C 283.996,736.901 283.782,737.518 283.782,738.295 C 283.782,739.084 283.999,739.704 284.432,740.155 C 284.865,740.607 285.459,740.833 286.212,740.833 C 286.457,740.833 286.696,740.808 286.929,740.758 C 287.162,740.707 287.388,740.632 287.607,740.531 L 287.607,740.531" /><path
       id="path41"
       style="fill:#000000;fill-opacity:1;fill-rule:nonzero;stroke:none"
       d="M 293.132,738.498 L 293.132,738.11 L 289.48,738.11 C 289.514,737.563 289.679,737.146 289.974,736.86 C 290.269,736.574 290.68,736.43 291.207,736.43 C 291.512,736.43 291.807,736.468 292.093,736.543 C 292.38,736.618 292.664,736.73 292.946,736.879 L 292.946,736.129 C 292.661,736.007 292.369,735.915 292.07,735.852 C 291.771,735.789 291.467,735.757 291.159,735.757 C 290.388,735.757 289.777,735.982 289.327,736.43 C 288.876,736.879 288.651,737.487 288.651,738.252 C 288.651,739.043 288.865,739.671 289.292,740.136 C 289.72,740.601 290.296,740.833 291.021,740.833 C 291.671,740.833 292.186,740.624 292.564,740.205 C 292.943,739.786 293.132,739.218 293.132,738.498 L 293.132,738.498 z M 292.338,738.731 C 292.332,739.166 292.21,739.512 291.973,739.771 C 291.735,740.03 291.421,740.16 291.03,740.16 C 290.586,740.16 290.232,740.035 289.966,739.784 C 289.699,739.534 289.546,739.182 289.506,738.727 L 292.338,738.731" /><path
       id="path43"
       style="fill:#000000;fill-opacity:1;fill-rule:nonzero;stroke:none"
       d="M 299.697,742.599 L 299.697,741.938 L 298.937,741.938 C 298.652,741.938 298.454,741.881 298.344,741.766 C 298.233,741.65 298.177,741.443 298.177,741.144 L 298.177,740.717 L 299.486,740.717 L 299.486,740.1 L 298.177,740.1 L 298.177,735.882 L 297.379,735.882 L 297.379,740.1 L 296.619,740.1 L 296.619,740.717 L 297.379,740.717 L 297.379,741.054 C 297.379,741.591 297.504,741.984 297.755,742.23 C 298.005,742.476 298.402,742.599 298.946,742.599 L 299.697,742.599" /><path
       id="path45"
       style="fill:#000000;fill-opacity:1;fill-rule:nonzero;stroke:none"
       d="M 300.357,740.717 L 301.152,740.717 L 301.152,735.882 L 300.357,735.882 L 300.357,740.717 z M 301.35,742.953 L 302.209,742.953 L 300.802,741.33 L 300.141,741.33 L 301.35,742.953" /><path
       id="path47"
       style="fill:#000000;fill-opacity:1;fill-rule:nonzero;stroke:none"
       d="M 305.891,740.574 L 305.891,739.823 C 305.666,739.938 305.433,740.025 305.192,740.082 C 304.95,740.14 304.7,740.168 304.441,740.168 C 304.046,740.168 303.751,740.108 303.554,739.987 C 303.357,739.866 303.258,739.685 303.258,739.443 C 303.258,739.259 303.329,739.114 303.47,739.009 C 303.611,738.905 303.894,738.805 304.32,738.709 L 304.592,738.649 C 305.156,738.528 305.556,738.358 305.794,738.138 C 306.031,737.918 306.15,737.61 306.15,737.216 C 306.15,736.767 305.972,736.412 305.617,736.15 C 305.261,735.888 304.773,735.757 304.152,735.757 C 303.893,735.757 303.623,735.782 303.342,735.833 C 303.061,735.883 302.766,735.959 302.455,736.059 L 302.455,736.879 C 302.748,736.727 303.038,736.612 303.323,736.536 C 303.607,736.46 303.889,736.422 304.169,736.422 C 304.543,736.422 304.83,736.486 305.032,736.614 C 305.233,736.742 305.334,736.923 305.334,737.155 C 305.334,737.371 305.261,737.537 305.116,737.652 C 304.971,737.767 304.652,737.878 304.16,737.984 L 303.884,738.049 C 303.392,738.153 303.036,738.312 302.818,738.526 C 302.599,738.741 302.489,739.035 302.489,739.409 C 302.489,739.864 302.651,740.214 302.973,740.462 C 303.295,740.709 303.753,740.833 304.346,740.833 C 304.639,740.833 304.915,740.812 305.174,740.768 C 305.433,740.725 305.672,740.661 305.891,740.574 L 305.891,740.574" /><path
       id="path49"
       style="fill:#000000;fill-opacity:1;fill-rule:nonzero;stroke:none"
       d="M 307.419,740.717 L 308.213,740.717 L 308.213,735.882 L 307.419,735.882 L 307.419,740.717 z M 307.419,742.599 L 308.213,742.599 L 308.213,741.593 L 307.419,741.593 L 307.419,742.599" /><path
       id="path51"
       style="fill:#000000;fill-opacity:1;fill-rule:nonzero;stroke:none"
       d="M 313.35,740.531 L 313.35,739.789 C 313.125,739.912 312.9,740.005 312.674,740.067 C 312.448,740.129 312.22,740.16 311.99,740.16 C 311.475,740.16 311.075,739.996 310.79,739.67 C 310.505,739.343 310.363,738.885 310.363,738.295 C 310.363,737.705 310.505,737.247 310.79,736.92 C 311.075,736.594 311.475,736.43 311.99,736.43 C 312.22,736.43 312.448,736.461 312.674,736.523 C 312.9,736.585 313.125,736.678 313.35,736.802 L 313.35,736.068 C 313.128,735.964 312.898,735.887 312.661,735.835 C 312.424,735.783 312.171,735.757 311.904,735.757 C 311.176,735.757 310.597,735.986 310.168,736.443 C 309.74,736.901 309.525,737.518 309.525,738.295 C 309.525,739.084 309.742,739.704 310.175,740.155 C 310.608,740.607 311.202,740.833 311.955,740.833 C 312.2,740.833 312.439,740.808 312.672,740.758 C 312.905,740.707 313.131,740.632 313.35,740.531 L 313.35,740.531" /><path
       id="path53"
       style="fill:#000000;fill-opacity:1;fill-rule:nonzero;stroke:none"
       d="M 316.613,740.16 C 316.187,740.16 315.85,739.994 315.603,739.661 C 315.355,739.329 315.232,738.873 315.232,738.295 C 315.232,737.717 315.355,737.261 315.601,736.929 C 315.847,736.597 316.184,736.43 316.613,736.43 C 317.036,736.43 317.371,736.597 317.619,736.931 C 317.866,737.265 317.99,737.72 317.99,738.295 C 317.99,738.868 317.866,739.322 317.619,739.657 C 317.371,739.992 317.036,740.16 316.613,740.16 L 316.613,740.16 z M 316.613,740.833 C 317.304,740.833 317.846,740.609 318.24,740.16 C 318.634,739.711 318.832,739.089 318.832,738.295 C 318.832,737.504 318.634,736.883 318.24,736.433 C 317.846,735.982 317.304,735.757 316.613,735.757 C 315.92,735.757 315.376,735.982 314.984,736.433 C 314.591,736.883 314.394,737.504 314.394,738.295 C 314.394,739.089 314.591,739.711 314.984,740.16 C 315.376,740.609 315.92,740.833 316.613,740.833 L 316.613,740.833" /></g><g
     transform="translate(196.45733,16.587167)"
     id="g5008"><path
       id="path57"
       style="fill:#000000;fill-opacity:1;fill-rule:nonzero;stroke:none"
       d="M 262.314,730.711 L 263.108,730.711 L 264.101,726.938 L 265.089,730.711 L 266.026,730.711 L 267.019,726.938 L 268.007,730.711 L 268.802,730.711 L 267.537,725.877 L 266.6,725.877 L 265.56,729.839 L 264.515,725.877 L 263.579,725.877 L 262.314,730.711" /><path
       id="path59"
       style="fill:#000000;fill-opacity:1;fill-rule:nonzero;stroke:none"
       d="M 270.445,726.419 C 270.135,726.419 269.901,726.266 269.745,725.961 C 269.588,725.655 269.51,725.195 269.51,724.581 C 269.51,723.97 269.588,723.511 269.745,723.205 C 269.901,722.9 270.135,722.746 270.445,722.746 C 270.758,722.746 270.993,722.9 271.149,723.205 C 271.305,723.511 271.384,723.97 271.384,724.581 C 271.384,725.195 271.305,725.655 271.149,725.961 C 270.993,726.266 270.758,726.419 270.445,726.419 L 270.445,726.419 z M 270.445,726.897 C 270.945,726.897 271.327,726.7 271.591,726.304 C 271.855,725.909 271.987,725.334 271.988,724.581 C 271.987,723.83 271.855,723.257 271.591,722.862 C 271.327,722.466 270.945,722.268 270.445,722.268 C 269.945,722.268 269.563,722.466 269.299,722.862 C 269.036,723.257 268.904,723.83 268.904,724.581 C 268.904,725.334 269.036,725.909 269.299,726.304 C 269.563,726.7 269.945,726.897 270.445,726.897 L 270.445,726.897" /></g><g
     transform="translate(195.88833,16.830641)"
     id="g5012"><path
       id="path63"
       style="fill:#000000;fill-opacity:1;fill-rule:nonzero;stroke:none"
       d="M 262.8,713.225 L 263.594,713.225 L 264.587,709.453 L 265.575,713.225 L 266.512,713.225 L 267.505,709.453 L 268.493,713.225 L 269.288,713.225 L 268.023,708.391 L 267.086,708.391 L 266.046,712.354 L 265.001,708.391 L 264.064,708.391 L 262.8,713.225" /><path
       id="path65"
       style="fill:#000000;fill-opacity:1;fill-rule:nonzero;stroke:none"
       d="M 269.988,706.956 L 270.974,706.956 L 270.974,710.36 L 269.901,710.145 L 269.901,710.695 L 270.968,710.909 L 271.571,710.909 L 271.571,706.956 L 272.557,706.956 L 272.557,706.448 L 269.988,706.448 L 269.988,706.956" /></g></g><g
   id="g5019"
   transform="translate(-98.354056,-0.415209)"><text
   sodipodi:linespacing="125%"
   transform="scale(1,-1)"
   id="text2925"
   y="-756.46112"
   x="261.82846"
   style="font-size:32px;font-style:normal;font-weight:normal;line-height:125%;fill:#000000;fill-opacity:1;stroke:none;stroke-width:1px;stroke-linecap:butt;stroke-linejoin:miter;stroke-opacity:1;font-family:Bitstream Vera Sans"
   xml:space="preserve"><tspan
     style="font-size:8.80000019px;font-style:normal;font-variant:normal;font-weight:normal;font-stretch:normal;text-align:start;line-height:125%;writing-mode:lr-tb;text-anchor:start;font-family:Bitstream Vera Sans;-inkscape-font-specification:Bitstream Vera Sans"
     y="-756.46112"
     x="261.82846"
     id="tspan2927"
     sodipodi:role="line">enlace lógico</tspan></text>

<path
   sodipodi:nodetypes="cc"
   id="path4477"
   d="M 180.64092,757.57686 C 180.26902,757.94877 257.254,757.94877 257.254,757.94877"
   style="fill:none;fill-rule:evenodd;stroke:#000000;stroke-width:0.80000001px;stroke-linecap:butt;stroke-linejoin:miter;marker-end:url(#Arrow1Mend);stroke-opacity:1" /></g><text
   xml:space="preserve"
   style="font-size:12.8px;font-style:normal;font-weight:normal;line-height:125%;fill:#000000;fill-opacity:1;stroke:none;stroke-width:1px;stroke-linecap:butt;stroke-linejoin:miter;stroke-opacity:1;font-family:Bitstream Vera Sans;-inkscape-font-specification:Bitstream Vera Sans;font-stretch:normal;font-variant:normal;text-anchor:start;text-align:start;writing-mode:lr"
   x="84.020447"
   y="-527.23193"
   id="text5257"
   transform="scale(1,-1)"
   sodipodi:linespacing="125%"><tspan
     sodipodi:role="line"
     id="tspan5259"
     x="84.020447"
     y="-527.23193"
     style="font-size:12.8px;font-style:normal;font-variant:normal;font-weight:normal;font-stretch:normal;text-align:start;line-height:125%;writing-mode:lr;text-anchor:start;font-family:Bitstream Vera Sans;-inkscape-font-specification:Bitstream Vera Sans">a) Topologia Lógica</tspan></text>

<text
   xml:space="preserve"
   style="font-size:12.8px;font-style:normal;font-weight:normal;line-height:125%;fill:#000000;fill-opacity:1;stroke:none;stroke-width:1px;stroke-linecap:butt;stroke-linejoin:miter;stroke-opacity:1;font-family:Bitstream Vera Sans;-inkscape-font-specification:Bitstream Vera Sans;font-stretch:normal;font-variant:normal;text-anchor:start;text-align:start;writing-mode:lr"
   x="294.9696"
   y="-527.4339"
   id="text5261"
   sodipodi:linespacing="125%"
   transform="scale(1,-1)"><tspan
     sodipodi:role="line"
     id="tspan5263"
     x="294.9696"
     y="-527.4339"
     style="font-size:12.8px;font-style:normal;font-variant:normal;font-weight:normal;font-stretch:normal;text-align:start;line-height:125%;writing-mode:lr;text-anchor:start;font-family:Bitstream Vera Sans;-inkscape-font-specification:Bitstream Vera Sans">b) Solução para o RWA</tspan></text>

</g></svg>