<?xml version="1.0" encoding="UTF-8" standalone="no"?>
<!-- Created with Inkscape (http://www.inkscape.org/) -->

<svg
   xmlns:dc="http://purl.org/dc/elements/1.1/"
   xmlns:cc="http://creativecommons.org/ns#"
   xmlns:rdf="http://www.w3.org/1999/02/22-rdf-syntax-ns#"
   xmlns:svg="http://www.w3.org/2000/svg"
   xmlns="http://www.w3.org/2000/svg"
   xmlns:sodipodi="http://sodipodi.sourceforge.net/DTD/sodipodi-0.dtd"
   xmlns:inkscape="http://www.inkscape.org/namespaces/inkscape"
   id="svg2"
   sodipodi:version="0.32"
   inkscape:version="0.47pre4 r22446"
   width="743.75"
   height="1052.5"
   xml:space="preserve"
   sodipodi:docname="topologia_fisica.svg"
   inkscape:output_extension="org.inkscape.output.svg.inkscape"
   version="1.1"><metadata
     id="metadata7"><rdf:RDF><cc:Work
         rdf:about=""><dc:format>image/svg+xml</dc:format><dc:type
           rdf:resource="http://purl.org/dc/dcmitype/StillImage" /><dc:title /></cc:Work></rdf:RDF></metadata><defs
     id="defs5"><marker
   inkscape:stockid="Arrow1Mend"
   orient="auto"
   refY="0.0"
   refX="0.0"
   id="Arrow1Mend"
   style="overflow:visible;"><path
     id="path3711"
     d="M 0.0,0.0 L 5.0,-5.0 L -12.5,0.0 L 5.0,5.0 L 0.0,0.0 z "
     style="fill-rule:evenodd;stroke:#000000;stroke-width:1.0pt;marker-start:none;"
     transform="scale(0.4) rotate(180) translate(10,0)" /></marker><inkscape:perspective
   sodipodi:type="inkscape:persp3d"
   inkscape:vp_x="0 : 526.18109 : 1"
   inkscape:vp_y="0 : 1000 : 0"
   inkscape:vp_z="744.09448 : 526.18109 : 1"
   inkscape:persp3d-origin="372.04724 : 350.78739 : 1"
   id="perspective9" /><inkscape:perspective
   id="perspective3796"
   inkscape:persp3d-origin="0.5 : 0.33333333 : 1"
   inkscape:vp_z="1 : 0.5 : 1"
   inkscape:vp_y="0 : 1000 : 0"
   inkscape:vp_x="0 : 0.5 : 1"
   sodipodi:type="inkscape:persp3d" /><inkscape:perspective
   id="perspective3827"
   inkscape:persp3d-origin="0.5 : 0.33333333 : 1"
   inkscape:vp_z="1 : 0.5 : 1"
   inkscape:vp_y="0 : 1000 : 0"
   inkscape:vp_x="0 : 0.5 : 1"
   sodipodi:type="inkscape:persp3d" /><inkscape:perspective
   id="perspective3827-0"
   inkscape:persp3d-origin="0.5 : 0.33333333 : 1"
   inkscape:vp_z="1 : 0.5 : 1"
   inkscape:vp_y="0 : 1000 : 0"
   inkscape:vp_x="0 : 0.5 : 1"
   sodipodi:type="inkscape:persp3d" /><inkscape:perspective
   id="perspective3827-1"
   inkscape:persp3d-origin="0.5 : 0.33333333 : 1"
   inkscape:vp_z="1 : 0.5 : 1"
   inkscape:vp_y="0 : 1000 : 0"
   inkscape:vp_x="0 : 0.5 : 1"
   sodipodi:type="inkscape:persp3d" /><inkscape:perspective
   id="perspective3827-9"
   inkscape:persp3d-origin="0.5 : 0.33333333 : 1"
   inkscape:vp_z="1 : 0.5 : 1"
   inkscape:vp_y="0 : 1000 : 0"
   inkscape:vp_x="0 : 0.5 : 1"
   sodipodi:type="inkscape:persp3d" /><inkscape:perspective
   id="perspective3827-90"
   inkscape:persp3d-origin="0.5 : 0.33333333 : 1"
   inkscape:vp_z="1 : 0.5 : 1"
   inkscape:vp_y="0 : 1000 : 0"
   inkscape:vp_x="0 : 0.5 : 1"
   sodipodi:type="inkscape:persp3d" /><inkscape:perspective
   id="perspective3827-17"
   inkscape:persp3d-origin="0.5 : 0.33333333 : 1"
   inkscape:vp_z="1 : 0.5 : 1"
   inkscape:vp_y="0 : 1000 : 0"
   inkscape:vp_x="0 : 0.5 : 1"
   sodipodi:type="inkscape:persp3d" /><inkscape:perspective
   id="perspective3914"
   inkscape:persp3d-origin="0.5 : 0.33333333 : 1"
   inkscape:vp_z="1 : 0.5 : 1"
   inkscape:vp_y="0 : 1000 : 0"
   inkscape:vp_x="0 : 0.5 : 1"
   sodipodi:type="inkscape:persp3d" /><inkscape:perspective
   id="perspective3942"
   inkscape:persp3d-origin="0.5 : 0.33333333 : 1"
   inkscape:vp_z="1 : 0.5 : 1"
   inkscape:vp_y="0 : 1000 : 0"
   inkscape:vp_x="0 : 0.5 : 1"
   sodipodi:type="inkscape:persp3d" /><inkscape:perspective
   id="perspective3970"
   inkscape:persp3d-origin="0.5 : 0.33333333 : 1"
   inkscape:vp_z="1 : 0.5 : 1"
   inkscape:vp_y="0 : 1000 : 0"
   inkscape:vp_x="0 : 0.5 : 1"
   sodipodi:type="inkscape:persp3d" /><inkscape:perspective
   id="perspective3998"
   inkscape:persp3d-origin="0.5 : 0.33333333 : 1"
   inkscape:vp_z="1 : 0.5 : 1"
   inkscape:vp_y="0 : 1000 : 0"
   inkscape:vp_x="0 : 0.5 : 1"
   sodipodi:type="inkscape:persp3d" /><inkscape:perspective
   id="perspective4026"
   inkscape:persp3d-origin="0.5 : 0.33333333 : 1"
   inkscape:vp_z="1 : 0.5 : 1"
   inkscape:vp_y="0 : 1000 : 0"
   inkscape:vp_x="0 : 0.5 : 1"
   sodipodi:type="inkscape:persp3d" /><inkscape:perspective
   id="perspective4054"
   inkscape:persp3d-origin="0.5 : 0.33333333 : 1"
   inkscape:vp_z="1 : 0.5 : 1"
   inkscape:vp_y="0 : 1000 : 0"
   inkscape:vp_x="0 : 0.5 : 1"
   sodipodi:type="inkscape:persp3d" /><inkscape:perspective
   id="perspective4054-8"
   inkscape:persp3d-origin="0.5 : 0.33333333 : 1"
   inkscape:vp_z="1 : 0.5 : 1"
   inkscape:vp_y="0 : 1000 : 0"
   inkscape:vp_x="0 : 0.5 : 1"
   sodipodi:type="inkscape:persp3d" /><inkscape:perspective
   id="perspective4085"
   inkscape:persp3d-origin="0.5 : 0.33333333 : 1"
   inkscape:vp_z="1 : 0.5 : 1"
   inkscape:vp_y="0 : 1000 : 0"
   inkscape:vp_x="0 : 0.5 : 1"
   sodipodi:type="inkscape:persp3d" /><inkscape:perspective
   id="perspective4379"
   inkscape:persp3d-origin="0.5 : 0.33333333 : 1"
   inkscape:vp_z="1 : 0.5 : 1"
   inkscape:vp_y="0 : 1000 : 0"
   inkscape:vp_x="0 : 0.5 : 1"
   sodipodi:type="inkscape:persp3d" /><inkscape:perspective
   id="perspective4518"
   inkscape:persp3d-origin="0.5 : 0.33333333 : 1"
   inkscape:vp_z="1 : 0.5 : 1"
   inkscape:vp_y="0 : 1000 : 0"
   inkscape:vp_x="0 : 0.5 : 1"
   sodipodi:type="inkscape:persp3d" /><inkscape:perspective
   id="perspective4518-1"
   inkscape:persp3d-origin="0.5 : 0.33333333 : 1"
   inkscape:vp_z="1 : 0.5 : 1"
   inkscape:vp_y="0 : 1000 : 0"
   inkscape:vp_x="0 : 0.5 : 1"
   sodipodi:type="inkscape:persp3d" /><inkscape:perspective
   id="perspective4518-9"
   inkscape:persp3d-origin="0.5 : 0.33333333 : 1"
   inkscape:vp_z="1 : 0.5 : 1"
   inkscape:vp_y="0 : 1000 : 0"
   inkscape:vp_x="0 : 0.5 : 1"
   sodipodi:type="inkscape:persp3d" /><inkscape:perspective
   id="perspective4518-3"
   inkscape:persp3d-origin="0.5 : 0.33333333 : 1"
   inkscape:vp_z="1 : 0.5 : 1"
   inkscape:vp_y="0 : 1000 : 0"
   inkscape:vp_x="0 : 0.5 : 1"
   sodipodi:type="inkscape:persp3d" /><inkscape:perspective
   id="perspective4518-0"
   inkscape:persp3d-origin="0.5 : 0.33333333 : 1"
   inkscape:vp_z="1 : 0.5 : 1"
   inkscape:vp_y="0 : 1000 : 0"
   inkscape:vp_x="0 : 0.5 : 1"
   sodipodi:type="inkscape:persp3d" /><inkscape:perspective
   id="perspective4518-6"
   inkscape:persp3d-origin="0.5 : 0.33333333 : 1"
   inkscape:vp_z="1 : 0.5 : 1"
   inkscape:vp_y="0 : 1000 : 0"
   inkscape:vp_x="0 : 0.5 : 1"
   sodipodi:type="inkscape:persp3d" /><inkscape:perspective
   id="perspective4518-4"
   inkscape:persp3d-origin="0.5 : 0.33333333 : 1"
   inkscape:vp_z="1 : 0.5 : 1"
   inkscape:vp_y="0 : 1000 : 0"
   inkscape:vp_x="0 : 0.5 : 1"
   sodipodi:type="inkscape:persp3d" /><inkscape:perspective
   id="perspective4518-04"
   inkscape:persp3d-origin="0.5 : 0.33333333 : 1"
   inkscape:vp_z="1 : 0.5 : 1"
   inkscape:vp_y="0 : 1000 : 0"
   inkscape:vp_x="0 : 0.5 : 1"
   sodipodi:type="inkscape:persp3d" />

<inkscape:perspective
   id="perspective5149"
   inkscape:persp3d-origin="0.5 : 0.33333333 : 1"
   inkscape:vp_z="1 : 0.5 : 1"
   inkscape:vp_y="0 : 1000 : 0"
   inkscape:vp_x="0 : 0.5 : 1"
   sodipodi:type="inkscape:persp3d" /><inkscape:perspective
   id="perspective5308"
   inkscape:persp3d-origin="0.5 : 0.33333333 : 1"
   inkscape:vp_z="1 : 0.5 : 1"
   inkscape:vp_y="0 : 1000 : 0"
   inkscape:vp_x="0 : 0.5 : 1"
   sodipodi:type="inkscape:persp3d" /><inkscape:perspective
   id="perspective2877"
   inkscape:persp3d-origin="0.5 : 0.33333333 : 1"
   inkscape:vp_z="1 : 0.5 : 1"
   inkscape:vp_y="0 : 1000 : 0"
   inkscape:vp_x="0 : 0.5 : 1"
   sodipodi:type="inkscape:persp3d" /><inkscape:perspective
   id="perspective2899"
   inkscape:persp3d-origin="0.5 : 0.33333333 : 1"
   inkscape:vp_z="1 : 0.5 : 1"
   inkscape:vp_y="0 : 1000 : 0"
   inkscape:vp_x="0 : 0.5 : 1"
   sodipodi:type="inkscape:persp3d" /><inkscape:perspective
   id="perspective2921"
   inkscape:persp3d-origin="0.5 : 0.33333333 : 1"
   inkscape:vp_z="1 : 0.5 : 1"
   inkscape:vp_y="0 : 1000 : 0"
   inkscape:vp_x="0 : 0.5 : 1"
   sodipodi:type="inkscape:persp3d" /><inkscape:perspective
   id="perspective2943"
   inkscape:persp3d-origin="0.5 : 0.33333333 : 1"
   inkscape:vp_z="1 : 0.5 : 1"
   inkscape:vp_y="0 : 1000 : 0"
   inkscape:vp_x="0 : 0.5 : 1"
   sodipodi:type="inkscape:persp3d" /><inkscape:perspective
   id="perspective2965"
   inkscape:persp3d-origin="0.5 : 0.33333333 : 1"
   inkscape:vp_z="1 : 0.5 : 1"
   inkscape:vp_y="0 : 1000 : 0"
   inkscape:vp_x="0 : 0.5 : 1"
   sodipodi:type="inkscape:persp3d" /><inkscape:perspective
   id="perspective2987"
   inkscape:persp3d-origin="0.5 : 0.33333333 : 1"
   inkscape:vp_z="1 : 0.5 : 1"
   inkscape:vp_y="0 : 1000 : 0"
   inkscape:vp_x="0 : 0.5 : 1"
   sodipodi:type="inkscape:persp3d" /><inkscape:perspective
   id="perspective3009"
   inkscape:persp3d-origin="0.5 : 0.33333333 : 1"
   inkscape:vp_z="1 : 0.5 : 1"
   inkscape:vp_y="0 : 1000 : 0"
   inkscape:vp_x="0 : 0.5 : 1"
   sodipodi:type="inkscape:persp3d" /></defs><sodipodi:namedview
     inkscape:window-height="778"
     inkscape:window-width="1280"
     inkscape:pageshadow="2"
     inkscape:pageopacity="0.0"
     guidetolerance="10.0"
     gridtolerance="10.0"
     objecttolerance="10.0"
     borderopacity="1.0"
     bordercolor="#666666"
     pagecolor="#ffffff"
     id="base"
     showgrid="false"
     inkscape:zoom="2"
     inkscape:cx="195.81675"
     inkscape:cy="811.6662"
     inkscape:window-x="-4"
     inkscape:window-y="-3"
     inkscape:current-layer="g11"
     inkscape:window-maximized="1" /><g
     id="g11"
     inkscape:groupmode="layer"
     inkscape:label="Gabriel - 2008 - DISSERTACAO"
     transform="matrix(1.25,0,0,-1.25,0,1052.5)">



<path
   id="path69-4"
   style="fill:none;stroke:#000000;stroke-width:0.71472347;stroke-linecap:square;stroke-linejoin:bevel;stroke-miterlimit:10;stroke-opacity:1;stroke-dasharray:none"
   d="m 226.62131,592.01909 -0.0443,-0.67061 -79.01646,-22.68861 -0.60317,-0.29701 -59.217086,56.87844 -0.560012,0.37361 19.799378,79.56704 0.0443,0.66957 79.01542,22.68967 0.60422,0.29595 59.2171,-56.87738 0.55895,-0.37362 -19.79833,-79.56705 z" /><path
   id="path29"
   style="fill:none;stroke:#000000;stroke-width:0.68000001;stroke-linecap:butt;stroke-linejoin:miter;stroke-miterlimit:10;stroke-opacity:1;stroke-dasharray:none"
   d="m 155.33065,750.50284 c 78.2,0 78.2,0.486 78.2,0.486" /><path
   id="path227-0"
   style="fill:#a6a6a6;fill-opacity:1;stroke:#000000;stroke-width:0.67980498000000000;stroke-linecap:butt;stroke-linejoin:miter;stroke-miterlimit:10;stroke-opacity:1;stroke-dasharray:none;opacity:1"
   d="m 229.03011,750.8832 -2.74098,2.69746 9.53838,-2.64345 -9.49508,-2.79403 2.69768,2.74002 z" /><path
   id="path69"
   style="fill:none;stroke:#000000;stroke-width:0.68000001;stroke-linecap:square;stroke-linejoin:bevel;stroke-miterlimit:10;stroke-opacity:1;stroke-dasharray:none"
   d="m 223.72053,594.74902 -0.042,-0.639 -75.064,-21.619 -0.573,-0.283 -56.255,54.197 -0.532,0.356 18.809,75.816 0.042,0.638 75.063,21.62 0.574,0.282 56.255,-54.196 0.531,-0.356 -18.808,-75.816 z" /><path
   id="path71"
   style="fill:#ffffff;fill-opacity:1;fill-rule:evenodd;stroke:none"
   d="m 122.69153,702.09102 c 0,-6.703 -5.549,-12.142 -12.385,-12.142 -6.837,0 -12.386,5.439 -12.386,12.142 0,6.703 5.549,12.143 12.386,12.143 6.836,0 12.385,-5.44 12.385,-12.143" /><path
   id="path73"
   style="fill:none;stroke:#000000;stroke-width:0.68000001;stroke-linecap:square;stroke-linejoin:bevel;stroke-miterlimit:10;stroke-opacity:1;stroke-dasharray:none"
   d="m 122.69153,702.09102 c 0,-6.703 -5.549,-12.142 -12.385,-12.142 -6.837,0 -12.386,5.439 -12.386,12.142 0,6.703 5.549,12.143 12.386,12.143 6.836,0 12.385,-5.44 12.385,-12.143 z" /><path
   id="path75"
   style="fill:#ffffff;fill-opacity:1;fill-rule:evenodd;stroke:none"
   d="m 197.24853,724.92002 c 0,-6.703 -5.548,-12.143 -12.385,-12.143 -6.837,0 -12.386,5.44 -12.386,12.143 0,6.703 5.549,12.143 12.386,12.143 6.837,0 12.385,-5.44 12.385,-12.143" /><path
   id="path77"
   style="fill:none;stroke:#000000;stroke-width:0.68000001;stroke-linecap:square;stroke-linejoin:bevel;stroke-miterlimit:10;stroke-opacity:1;stroke-dasharray:none"
   d="m 197.24853,724.92002 c 0,-6.703 -5.548,-12.143 -12.385,-12.143 -6.837,0 -12.386,5.44 -12.386,12.143 0,6.703 5.549,12.143 12.386,12.143 6.837,0 12.385,-5.44 12.385,-12.143 z" /><path
   id="path79"
   style="fill:#ffffff;fill-opacity:1;fill-rule:evenodd;stroke:none"
   d="m 104.96353,626.80602 c 0,-6.703 -5.549,-12.143 -12.386,-12.143 -6.837,0 -12.386,5.44 -12.386,12.143 0,6.702 5.549,12.143 12.386,12.143 6.837,0 12.386,-5.441 12.386,-12.143" /><path
   id="path81"
   style="fill:none;stroke:#000000;stroke-width:0.68000001;stroke-linecap:square;stroke-linejoin:bevel;stroke-miterlimit:10;stroke-opacity:1;stroke-dasharray:none"
   d="m 104.96353,626.80602 c 0,-6.703 -5.549,-12.143 -12.386,-12.143 -6.837,0 -12.386,5.44 -12.386,12.143 0,6.702 5.549,12.143 12.386,12.143 6.837,0 12.386,-5.441 12.386,-12.143 z" /><path
   id="path83"
   style="fill:#ffffff;fill-opacity:1;fill-rule:evenodd;stroke:none"
   d="m 234.16353,594.74902 c 0,-6.703 -5.549,-12.143 -12.386,-12.143 -6.837,0 -12.386,5.44 -12.386,12.143 0,6.702 5.549,12.142 12.386,12.142 6.837,0 12.386,-5.44 12.386,-12.142" /><path
   id="path85"
   style="fill:none;stroke:#000000;stroke-width:0.68000001;stroke-linecap:square;stroke-linejoin:bevel;stroke-miterlimit:10;stroke-opacity:1;stroke-dasharray:none"
   d="m 234.16353,594.74902 c 0,-6.703 -5.549,-12.143 -12.386,-12.143 -6.837,0 -12.386,5.44 -12.386,12.143 0,6.702 5.549,12.142 12.386,12.142 6.837,0 12.386,-5.44 12.386,-12.142 z" /><path
   id="path87"
   style="fill:#ffffff;fill-opacity:1;fill-rule:evenodd;stroke:none"
   d="m 253.10653,669.54902 c 0,-6.703 -5.549,-12.143 -12.386,-12.143 -6.837,0 -12.386,5.44 -12.386,12.143 0,6.702 5.549,12.142 12.386,12.142 6.837,0 12.386,-5.44 12.386,-12.142" /><path
   id="path89"
   style="fill:none;stroke:#000000;stroke-width:0.68000001;stroke-linecap:square;stroke-linejoin:bevel;stroke-miterlimit:10;stroke-opacity:1;stroke-dasharray:none"
   d="m 253.10653,669.54902 c 0,-6.703 -5.549,-12.143 -12.386,-12.143 -6.837,0 -12.386,5.44 -12.386,12.143 0,6.702 5.549,12.142 12.386,12.142 6.837,0 12.386,-5.44 12.386,-12.142 z" /><path
   id="path91"
   style="fill:#ffffff;fill-opacity:1;fill-rule:evenodd;stroke:none"
   d="m 160.33453,569.97702 c 0,-6.703 -5.549,-12.143 -12.385,-12.143 -6.837,0 -12.386,5.44 -12.386,12.143 0,6.703 5.549,12.143 12.386,12.143 6.836,0 12.385,-5.44 12.385,-12.143" /><path
   id="path93"
   style="fill:none;stroke:#000000;stroke-width:0.68000001;stroke-linecap:square;stroke-linejoin:bevel;stroke-miterlimit:10;stroke-opacity:1;stroke-dasharray:none"
   d="m 160.33453,569.97702 c 0,-6.703 -5.549,-12.143 -12.385,-12.143 -6.837,0 -12.386,5.44 -12.386,12.143 0,6.703 5.549,12.143 12.386,12.143 6.836,0 12.385,-5.44 12.385,-12.143 z" /><path
   id="path119"
   style="fill:#000000;fill-opacity:1;fill-rule:nonzero;stroke:none"
   d="m 183.06953,722.43152 1.424,0 0,4.916 -1.549,-0.31 0,0.794 1.541,0.311 0.872,0 0,-5.711 1.424,0 0,-0.734 -3.712,0 0,0.734" /><path
   id="path121"
   style="fill:#000000;fill-opacity:1;fill-rule:nonzero;stroke:none"
   d="m 239.72353,667.00202 3.043,0 0,-0.734 -4.092,0 0,0.734 c 0.331,0.342 0.782,0.802 1.354,1.378 0.571,0.577 0.93,0.95 1.077,1.116 0.278,0.314 0.473,0.579 0.584,0.797 0.111,0.217 0.166,0.431 0.166,0.641 0,0.342 -0.12,0.621 -0.36,0.837 -0.24,0.216 -0.553,0.324 -0.939,0.324 -0.273,0 -0.562,-0.048 -0.865,-0.143 -0.304,-0.095 -0.628,-0.238 -0.974,-0.431 l 0,0.881 c 0.352,0.14 0.68,0.247 0.984,0.319 0.305,0.072 0.585,0.108 0.838,0.108 0.667,0 1.2,-0.167 1.597,-0.501 0.397,-0.334 0.596,-0.78 0.596,-1.338 0,-0.265 -0.05,-0.516 -0.149,-0.753 -0.1,-0.238 -0.28,-0.517 -0.542,-0.84 -0.072,-0.083 -0.301,-0.324 -0.686,-0.723 -0.386,-0.398 -0.93,-0.956 -1.632,-1.672 l 0,0" /><path
   id="path123"
   style="fill:#000000;fill-opacity:1;fill-rule:nonzero;stroke:none"
   d="m 222.56903,595.00552 c 0.418,-0.089 0.743,-0.275 0.978,-0.557 0.235,-0.282 0.352,-0.63 0.352,-1.045 0,-0.635 -0.219,-1.128 -0.656,-1.476 -0.438,-0.348 -1.059,-0.522 -1.865,-0.522 -0.27,0 -0.549,0.027 -0.835,0.08 -0.286,0.053 -0.582,0.133 -0.887,0.239 l 0,0.842 c 0.242,-0.141 0.506,-0.247 0.794,-0.32 0.288,-0.071 0.589,-0.107 0.902,-0.107 0.547,0 0.964,0.107 1.25,0.323 0.286,0.216 0.429,0.53 0.429,0.941 0,0.38 -0.133,0.677 -0.399,0.892 -0.266,0.214 -0.637,0.321 -1.111,0.321 l -0.752,0 0,0.717 0.786,0 c 0.429,0 0.757,0.085 0.984,0.257 0.228,0.171 0.341,0.418 0.341,0.74 0,0.331 -0.117,0.585 -0.352,0.762 -0.234,0.177 -0.57,0.265 -1.007,0.265 -0.239,0 -0.495,-0.026 -0.769,-0.077 -0.273,-0.052 -0.574,-0.133 -0.902,-0.242 l 0,0.777 c 0.331,0.092 0.641,0.161 0.93,0.207 0.289,0.046 0.562,0.069 0.818,0.069 0.662,0 1.186,-0.15 1.571,-0.451 0.386,-0.301 0.579,-0.707 0.579,-1.219 0,-0.357 -0.102,-0.659 -0.307,-0.905 -0.204,-0.246 -0.495,-0.416 -0.872,-0.511 l 0,0" /><path
   id="path125"
   style="fill:#000000;fill-opacity:1;fill-rule:nonzero;stroke:none"
   d="m 148.51053,572.43952 -2.202,-3.44 2.202,0 0,3.44 z m -0.229,0.76 1.096,0 0,-4.2 0.92,0 0,-0.725 -0.92,0 0,-1.52 -0.867,0 0,1.52 -2.91,0 0,0.841 2.681,4.084" /><path
   id="path127"
   style="fill:#000000;fill-opacity:1;fill-rule:nonzero;stroke:none"
   d="m 90.76453,630.09052 3.423,0 0,-0.733 -2.624,0 0,-1.58 c 0.126,0.043 0.253,0.075 0.379,0.097 0.127,0.021 0.254,0.032 0.38,0.032 0.72,0 1.289,-0.197 1.71,-0.591 0.42,-0.394 0.63,-0.928 0.63,-1.601 0,-0.694 -0.216,-1.233 -0.648,-1.617 -0.431,-0.384 -1.04,-0.576 -1.826,-0.576 -0.27,0 -0.546,0.023 -0.826,0.069 -0.281,0.046 -0.57,0.115 -0.87,0.207 l 0,0.876 c 0.259,-0.141 0.527,-0.246 0.803,-0.315 0.276,-0.069 0.568,-0.103 0.876,-0.103 0.498,0 0.892,0.13 1.183,0.392 0.291,0.262 0.436,0.618 0.436,1.067 0,0.448 -0.145,0.804 -0.436,1.066 -0.291,0.261 -0.685,0.393 -1.183,0.393 -0.233,0 -0.465,-0.027 -0.697,-0.078 -0.232,-0.052 -0.468,-0.133 -0.71,-0.242 l 0,3.237" /><path
   id="path129"
   style="fill:#000000;fill-opacity:1;fill-rule:nonzero;stroke:none"
   d="m 110.38153,702.44352 c -0.391,0 -0.701,-0.134 -0.93,-0.401 -0.229,-0.268 -0.343,-0.635 -0.343,-1.101 0,-0.463 0.114,-0.83 0.343,-1.098 0.229,-0.269 0.539,-0.404 0.93,-0.404 0.392,0 0.701,0.135 0.93,0.404 0.229,0.268 0.343,0.635 0.343,1.098 0,0.466 -0.114,0.833 -0.343,1.101 -0.229,0.267 -0.538,0.401 -0.93,0.401 l 0,0 z m 1.731,2.732 0,-0.794 c -0.219,0.104 -0.439,0.183 -0.662,0.237 -0.223,0.055 -0.445,0.082 -0.663,0.082 -0.576,0 -1.015,-0.194 -1.319,-0.582 -0.304,-0.389 -0.477,-0.976 -0.52,-1.761 0.17,0.25 0.383,0.442 0.639,0.576 0.256,0.134 0.538,0.201 0.846,0.201 0.647,0 1.159,-0.197 1.535,-0.589 0.375,-0.393 0.563,-0.928 0.563,-1.604 0,-0.662 -0.196,-1.193 -0.587,-1.593 -0.392,-0.4 -0.912,-0.6 -1.563,-0.6 -0.745,0 -1.315,0.286 -1.709,0.857 -0.394,0.571 -0.592,1.399 -0.592,2.484 0,1.019 0.242,1.831 0.725,2.437 0.484,0.605 1.133,0.908 1.947,0.908 0.219,0 0.44,-0.021 0.663,-0.064 0.223,-0.043 0.455,-0.108 0.697,-0.195 l 0,0" /><path
   id="path227-0-1"
   style="fill:#a6a6a6;fill-opacity:1;stroke:#000000;stroke-width:0.67980498000000000;stroke-linecap:butt;stroke-linejoin:miter;stroke-miterlimit:10;stroke-opacity:1;stroke-dasharray:none"
   d="m 129.55756,708.82398 1.85503,3.3687 -8.38393,-5.26102 9.89753,0.0383 -3.36863,1.85403 z"
   inkscape:transform-center-y="3.0435165"
   inkscape:transform-center-x="0.4011" /><path
   id="path227-0-6"
   style="fill:#a6a6a6;fill-opacity:1;stroke:#000000;stroke-width:0.67980498000000000;stroke-linecap:butt;stroke-linejoin:miter;stroke-miterlimit:10;stroke-opacity:1;stroke-dasharray:none"
   d="m 227.92154,684.75076 -3.84556,0.0308 8.61389,-4.87541 -4.7384,8.68969 -0.0299,-3.84504 z" /><path
   id="path227-0-5"
   style="fill:#a6a6a6;fill-opacity:1;stroke:#000000;stroke-width:0.67980498000000000;stroke-linecap:butt;stroke-linejoin:miter;stroke-miterlimit:10;stroke-opacity:1;stroke-dasharray:none"
   d="m 228.65756,613.43686 -1.90388,3.34134 0.10762,-9.89733 5.13672,8.46034 -3.34046,-1.90435 z" /><path
   id="path227-0-4"
   style="fill:#a6a6a6;fill-opacity:1;stroke:#000000;stroke-width:0.67980498000000000;stroke-linecap:butt;stroke-linejoin:miter;stroke-miterlimit:10;stroke-opacity:1;stroke-dasharray:none"
   d="m 166.7297,577.80744 1.84724,3.37299 -8.37175,-5.28039 9.89744,0.0612 -3.37293,1.84624 z" /><path
   id="path227-0-9"
   style="fill:#a6a6a6;fill-opacity:1;stroke:#000000;stroke-width:0.67980498;stroke-linecap:butt;stroke-linejoin:miter;stroke-miterlimit:10;stroke-opacity:1;stroke-dasharray:none"
   d="m 106.18202,612.45008 3.8456,0.0267 -8.68578,4.74615 4.86773,-8.61791 -0.0276,3.84505 z" /><path
   id="path227-0-7-1"
   style="fill:#a6a6a6;fill-opacity:1;stroke:#000000;stroke-width:0.67980498000000000;stroke-linecap:butt;stroke-linejoin:miter;stroke-miterlimit:10;stroke-opacity:1;stroke-dasharray:none"
   d="m 105.12616,682.94634 1.94737,-3.31618 -0.23692,9.89507 -5.02575,-8.52672 3.3153,1.94783 z" /><text
   xml:space="preserve"
   style="font-size:8.80000019px;font-style:normal;font-weight:normal;fill:#000000;fill-opacity:1;stroke:none;font-family:Bitstream Vera Sans"
   x="94.874344"
   y="-747.83612"
   id="text5137"
   transform="scale(1,-1)"><tspan
     sodipodi:role="line"
     id="tspan5139"
     x="94.874344"
     y="-747.83612">ligação física</tspan></text>

<path
   id="path227-0-1-7"
   style="fill:#a6a6a6;fill-opacity:1;stroke:#000000;stroke-width:0.67980498;stroke-linecap:butt;stroke-linejoin:miter;stroke-miterlimit:10;stroke-opacity:1;stroke-dasharray:none"
   d="m 164.86424,722.73819 -1.85504,-3.3687 8.38394,5.26102 -9.89754,-0.0383 3.36864,-1.85403 z"
   inkscape:transform-center-y="2.4348163"
   inkscape:transform-center-x="-0.32087987" /><path
   id="path227-0-6-4"
   style="fill:#a6a6a6;fill-opacity:1;stroke:#000000;stroke-width:0.67980498;stroke-linecap:butt;stroke-linejoin:miter;stroke-miterlimit:10;stroke-opacity:1;stroke-dasharray:none"
   d="m 201.50986,714.43788 3.84556,-0.0308 -8.61389,4.87541 4.7384,-8.68969 0.0299,3.84504 z" /><path
   id="path227-0-5-4"
   style="fill:#a6a6a6;fill-opacity:1;stroke:#000000;stroke-width:0.67980498;stroke-linecap:butt;stroke-linejoin:miter;stroke-miterlimit:10;stroke-opacity:1;stroke-dasharray:none"
   d="m 240.94881,650.01792 1.90388,-3.34134 -0.10762,9.89733 -5.13672,-8.46034 3.34046,1.90435 z" /><path
   id="path227-0-4-3"
   style="fill:#a6a6a6;fill-opacity:1;stroke:#000000;stroke-width:0.67980498;stroke-linecap:butt;stroke-linejoin:miter;stroke-miterlimit:10;stroke-opacity:1;stroke-dasharray:none"
   d="m 204.0065,585.1829 -1.84724,-3.37299 8.37175,5.28039 -9.89744,-0.0612 3.37293,-1.84624 z" /><path
   id="path227-0-9-0"
   style="fill:#a6a6a6;fill-opacity:1;stroke:#000000;stroke-width:0.67980498;stroke-linecap:butt;stroke-linejoin:miter;stroke-miterlimit:10;stroke-opacity:1;stroke-dasharray:none"
   d="m 132.29737,582.55419 -3.8456,-0.0267 8.68578,-4.74615 -4.86773,8.61791 0.0276,-3.84505 z" /><path
   id="path227-0-7-1-7"
   style="fill:#a6a6a6;fill-opacity:1;stroke:#000000;stroke-width:0.67980498;stroke-linecap:butt;stroke-linejoin:miter;stroke-miterlimit:10;stroke-opacity:1;stroke-dasharray:none"
   d="m 92.460018,646.88431 -1.94737,3.31618 0.23692,-9.89507 5.02575,8.52672 -3.3153,-1.94783 z" /></g></svg>