<?xml version="1.0" encoding="UTF-8" standalone="no"?>
<!-- Created with Inkscape (http://www.inkscape.org/) -->
<svg
   xmlns:dc="http://purl.org/dc/elements/1.1/"
   xmlns:cc="http://creativecommons.org/ns#"
   xmlns:rdf="http://www.w3.org/1999/02/22-rdf-syntax-ns#"
   xmlns:svg="http://www.w3.org/2000/svg"
   xmlns="http://www.w3.org/2000/svg"
   xmlns:sodipodi="http://sodipodi.sourceforge.net/DTD/sodipodi-0.dtd"
   xmlns:inkscape="http://www.inkscape.org/namespaces/inkscape"
   id="svg2"
   sodipodi:version="0.32"
   inkscape:version="0.46"
   width="765"
   height="990"
   xml:space="preserve"
   sodipodi:docname="Karcius-rede6-demandas.svg"
   inkscape:output_extension="org.inkscape.output.svg.inkscape"><metadata
     id="metadata7"><rdf:RDF><cc:Work
         rdf:about=""><dc:format>image/svg+xml</dc:format><dc:type
           rdf:resource="http://purl.org/dc/dcmitype/StillImage" /></cc:Work></rdf:RDF></metadata><defs
     id="defs5"><inkscape:perspective
       sodipodi:type="inkscape:persp3d"
       inkscape:vp_x="0 : 526.18109 : 1"
       inkscape:vp_y="0 : 1000 : 0"
       inkscape:vp_z="744.09448 : 526.18109 : 1"
       inkscape:persp3d-origin="372.04724 : 350.78739 : 1"
       id="perspective9" /><clipPath
       clipPathUnits="userSpaceOnUse"
       id="clipPath17"><path
         d="M 243.521,675.36 L 283.001,675.36 L 283.001,687.6 L 243.521,687.6 L 243.521,675.36 z"
         id="path19" /></clipPath><clipPath
       clipPathUnits="userSpaceOnUse"
       id="clipPath165"><path
         d="M 248.441,540.12 L 297.161,540.12 L 297.161,551.88 L 248.441,551.88 L 248.441,540.12 z"
         id="path167" /></clipPath><clipPath
       clipPathUnits="userSpaceOnUse"
       id="clipPath313"><path
         d="M 248.441,415.92 L 294.401,415.92 L 294.401,428.16 L 248.441,428.16 L 248.441,415.92 z"
         id="path315" /></clipPath></defs><sodipodi:namedview
     inkscape:window-height="778"
     inkscape:window-width="1280"
     inkscape:pageshadow="2"
     inkscape:pageopacity="0.0"
     guidetolerance="10.0"
     gridtolerance="10.0"
     objecttolerance="10.0"
     borderopacity="1.0"
     bordercolor="#666666"
     pagecolor="#ffffff"
     id="base"
     showgrid="false"
     inkscape:zoom="1.6170604"
     inkscape:cx="405.21859"
     inkscape:cy="736.27351"
     inkscape:window-x="-4"
     inkscape:window-y="-3"
     inkscape:current-layer="g11" /><g
     id="g11"
     inkscape:groupmode="layer"
     inkscape:label="Karcius - 2004 - sbrt - Projeto Integrado"
     transform="matrix(1.25,0,0,-1.25,0,990)"><text
       transform="matrix(1.0605336,0,-0.3277629,-0.9429216,0,0)"
       id="text33"
       x="10.076635"
       y="-690.01288"
       style="font-size:17.36962318px"><tspan
         style="font-size:12.18075848px;font-variant:normal;font-weight:normal;writing-mode:lr-tb;fill:#000000;fill-opacity:1;fill-rule:nonzero;stroke:none;font-family:Symbol;-inkscape-font-specification:Symbol"
         x="10.076635"
         y="-690.01288"
         id="tspan35">Λ</tspan></text>
<text
       transform="scale(1.0605336,-0.9429216)"
       id="text37"
       x="231.87308"
       y="-689.28564"
       style="font-size:18.18023491px"><tspan
         style="font-size:7.6356988px;font-style:italic;font-variant:normal;writing-mode:lr-tb;fill:#000000;fill-opacity:1;fill-rule:nonzero;stroke:none;font-family:Garamond;-inkscape-font-specification:Garamond-Italic"
         x="231.87308 234.05841"
         y="-689.28564"
         sodipodi:role="line"
         id="tspan39">sd</tspan></text>
<text
       transform="scale(1.0605336,-0.9429216)"
       id="text41"
       x="260.77966"
       y="-691.83026"
       style="font-size:18.18023491px"><tspan
         style="font-size:12.18075752px;font-style:italic;font-variant:normal;writing-mode:lr-tb;fill:#000000;fill-opacity:1;fill-rule:nonzero;stroke:none;font-family:Garamond;-inkscape-font-specification:Garamond-Italic"
         x="260.77966 266.41812 290.59814 296.23663 320.59814 326.23663 350.77963 356.41809 380.7796 386.41809 410.96109 416.59958"
         y="-691.83026"
         sodipodi:role="line"
         id="tspan43">0 1 2 3 4 5 </tspan></text>
<path
       d="M 236.84787,662.97052 L 268.27549,662.97052 L 268.27549,661.94197 L 236.84787,661.94197 L 236.84787,662.97052 z"
       style="fill:#000000;fill-opacity:1;fill-rule:nonzero;stroke:none"
       id="path45" /><path
       d="M 268.27549,662.97052 L 269.43234,662.97052 L 269.43234,661.94197 L 268.27549,661.94197 L 268.27549,662.97052 z"
       style="fill:#000000;fill-opacity:1;fill-rule:nonzero;stroke:none"
       id="path47" /><path
       d="M 269.43234,662.97052 L 300.66715,662.97052 L 300.66715,661.94197 L 269.43234,661.94197 L 269.43234,662.97052 z"
       style="fill:#000000;fill-opacity:1;fill-rule:nonzero;stroke:none"
       id="path49" /><path
       d="M 300.66715,662.97052 L 301.824,662.97052 L 301.824,661.94197 L 300.66715,661.94197 L 300.66715,662.97052 z"
       style="fill:#000000;fill-opacity:1;fill-rule:nonzero;stroke:none"
       id="path51" /><path
       d="M 301.824,662.97052 L 332.48039,662.97052 L 332.48039,661.94197 L 301.824,661.94197 L 301.824,662.97052 z"
       style="fill:#000000;fill-opacity:1;fill-rule:nonzero;stroke:none"
       id="path53" /><path
       d="M 332.48039,662.97052 L 333.63723,662.97052 L 333.63723,661.94197 L 332.48039,661.94197 L 332.48039,662.97052 z"
       style="fill:#000000;fill-opacity:1;fill-rule:nonzero;stroke:none"
       id="path55" /><path
       d="M 333.63723,662.97052 L 364.48644,662.97052 L 364.48644,661.94197 L 333.63723,661.94197 L 333.63723,662.97052 z"
       style="fill:#000000;fill-opacity:1;fill-rule:nonzero;stroke:none"
       id="path57" /><path
       d="M 364.48644,662.97052 L 365.64328,662.97052 L 365.64328,661.94197 L 364.48644,661.94197 L 364.48644,662.97052 z"
       style="fill:#000000;fill-opacity:1;fill-rule:nonzero;stroke:none"
       id="path59" /><path
       d="M 365.64328,662.97052 L 396.29967,662.97052 L 396.29967,661.94197 L 365.64328,661.94197 L 365.64328,662.97052 z"
       style="fill:#000000;fill-opacity:1;fill-rule:nonzero;stroke:none"
       id="path61" /><path
       d="M 396.29967,662.97052 L 397.45652,662.97052 L 397.45652,661.94197 L 396.29967,661.94197 L 396.29967,662.97052 z"
       style="fill:#000000;fill-opacity:1;fill-rule:nonzero;stroke:none"
       id="path63" /><path
       d="M 397.45652,662.97052 L 428.30572,662.97052 L 428.30572,661.94197 L 397.45652,661.94197 L 397.45652,662.97052 z"
       style="fill:#000000;fill-opacity:1;fill-rule:nonzero;stroke:none"
       id="path65" /><path
       d="M 428.30572,662.97052 L 429.46256,662.97052 L 429.46256,661.94197 L 428.30572,661.94197 L 428.30572,662.97052 z"
       style="fill:#000000;fill-opacity:1;fill-rule:nonzero;stroke:none"
       id="path67" /><path
       d="M 429.46256,662.97052 L 460.11896,662.97052 L 460.11896,661.94197 L 429.46256,661.94197 L 429.46256,662.97052 z"
       style="fill:#000000;fill-opacity:1;fill-rule:nonzero;stroke:none"
       id="path69" /><path
       d="M 268.27549,661.94197 L 269.43234,661.94197 L 269.43234,638.28527 L 268.27549,638.28527 L 268.27549,661.94197 z"
       style="fill:#000000;fill-opacity:1;fill-rule:nonzero;stroke:none"
       id="path71" /><text
       transform="scale(1.0605336,-0.9429216)"
       id="text73"
       x="230.05505"
       y="-665.65118"
       style="font-size:18.18023491px"><tspan
         style="font-size:12.18075752px;font-variant:normal;font-weight:normal;writing-mode:lr-tb;fill:#000000;fill-opacity:1;fill-rule:nonzero;stroke:none;font-family:Garamond;-inkscape-font-specification:Garamond"
         x="230.05505 235.69353 261.69092 265.51447 283.51276 289.15121 291.88092 297.51938 303.15787 313.52005 319.15851 321.88821 327.5267 333.16516 343.71005 349.34851 352.07822 357.71671 363.35516 373.71735 379.3558 382.08551 387.724 393.36249 403.90735 409.54581 412.27554 417.914 423.55249"
         y="-665.65118"
         sodipodi:role="line"
         id="tspan75">0 - 0,90 0,62 0,51 0,28 0,52 </tspan></text>
<path
       d="M 236.84787,638.28527 L 268.27549,638.28527 L 268.27549,637.25671 L 236.84787,637.25671 L 236.84787,638.28527 z"
       style="fill:#000000;fill-opacity:1;fill-rule:nonzero;stroke:none"
       id="path77" /><path
       d="M 268.27549,638.28527 L 269.43234,638.28527 L 269.43234,637.25671 L 268.27549,637.25671 L 268.27549,638.28527 z"
       style="fill:#000000;fill-opacity:1;fill-rule:nonzero;stroke:none"
       id="path79" /><path
       d="M 269.43234,638.28527 L 300.66715,638.28527 L 300.66715,637.25671 L 269.43234,637.25671 L 269.43234,638.28527 z"
       style="fill:#000000;fill-opacity:1;fill-rule:nonzero;stroke:none"
       id="path81" /><path
       d="M 300.66715,638.28527 L 301.824,638.28527 L 301.824,637.25671 L 300.66715,637.25671 L 300.66715,638.28527 z"
       style="fill:#000000;fill-opacity:1;fill-rule:nonzero;stroke:none"
       id="path83" /><path
       d="M 301.824,638.28527 L 332.48039,638.28527 L 332.48039,637.25671 L 301.824,637.25671 L 301.824,638.28527 z"
       style="fill:#000000;fill-opacity:1;fill-rule:nonzero;stroke:none"
       id="path85" /><path
       d="M 332.48039,638.28527 L 333.63723,638.28527 L 333.63723,637.25671 L 332.48039,637.25671 L 332.48039,638.28527 z"
       style="fill:#000000;fill-opacity:1;fill-rule:nonzero;stroke:none"
       id="path87" /><path
       d="M 333.63723,638.28527 L 364.48644,638.28527 L 364.48644,637.25671 L 333.63723,637.25671 L 333.63723,638.28527 z"
       style="fill:#000000;fill-opacity:1;fill-rule:nonzero;stroke:none"
       id="path89" /><path
       d="M 364.48644,638.28527 L 365.64328,638.28527 L 365.64328,637.25671 L 364.48644,637.25671 L 364.48644,638.28527 z"
       style="fill:#000000;fill-opacity:1;fill-rule:nonzero;stroke:none"
       id="path91" /><path
       d="M 365.64328,638.28527 L 396.29967,638.28527 L 396.29967,637.25671 L 365.64328,637.25671 L 365.64328,638.28527 z"
       style="fill:#000000;fill-opacity:1;fill-rule:nonzero;stroke:none"
       id="path93" /><path
       d="M 396.29967,638.28527 L 397.45652,638.28527 L 397.45652,637.25671 L 396.29967,637.25671 L 396.29967,638.28527 z"
       style="fill:#000000;fill-opacity:1;fill-rule:nonzero;stroke:none"
       id="path95" /><path
       d="M 397.45652,638.28527 L 428.30572,638.28527 L 428.30572,637.25671 L 397.45652,637.25671 L 397.45652,638.28527 z"
       style="fill:#000000;fill-opacity:1;fill-rule:nonzero;stroke:none"
       id="path97" /><path
       d="M 428.30572,638.28527 L 429.46256,638.28527 L 429.46256,637.25671 L 428.30572,637.25671 L 428.30572,638.28527 z"
       style="fill:#000000;fill-opacity:1;fill-rule:nonzero;stroke:none"
       id="path99" /><path
       d="M 429.46256,638.28527 L 460.11896,638.28527 L 460.11896,637.25671 L 429.46256,637.25671 L 429.46256,638.28527 z"
       style="fill:#000000;fill-opacity:1;fill-rule:nonzero;stroke:none"
       id="path101" /><path
       d="M 268.27549,637.25671 L 269.43234,637.25671 L 269.43234,622.68556 L 268.27549,622.68556 L 268.27549,637.25671 z"
       style="fill:#000000;fill-opacity:1;fill-rule:nonzero;stroke:none"
       id="path103" /><text
       transform="scale(1.0605336,-0.9429216)"
       id="text105"
       x="230.05505"
       y="-650.198"
       style="font-size:18.18023491px"><tspan
         style="font-size:12.18075752px;font-variant:normal;font-weight:normal;writing-mode:lr-tb;fill:#000000;fill-opacity:1;fill-rule:nonzero;stroke:none;font-family:Garamond;-inkscape-font-specification:Garamond"
         x="230.05505 235.69353 256.60059 262.23904 264.96875 291.5155 313.52005 319.15851 321.88821 327.5267 343.71005 349.34851 352.07822 357.71671 373.71857 379.35703 382.08676 387.72522 403.90857 409.54706 412.27676 417.91522"
         y="-650.198"
         sodipodi:role="line"
         id="tspan107">1 0,5-0,390,920,260,15</tspan></text>
<path
       d="M 268.27549,622.68556 L 269.43234,622.68556 L 269.43234,606.91442 L 268.27549,606.91442 L 268.27549,622.68556 z"
       style="fill:#000000;fill-opacity:1;fill-rule:nonzero;stroke:none"
       id="path109" /><text
       transform="scale(1.0605336,-0.9429216)"
       id="text111"
       x="230.05505"
       y="-633.47217"
       style="font-size:18.18023491px"><tspan
         style="font-size:12.18075752px;font-variant:normal;font-weight:normal;writing-mode:lr-tb;fill:#000000;fill-opacity:1;fill-rule:nonzero;stroke:none;font-family:Garamond;-inkscape-font-specification:Garamond"
         x="230.05505 235.69353 256.60059 262.23904 264.96875 283.51517 289.15366 291.88336 297.52182 321.5228 343.70883 349.34729 352.077 357.71548 373.71735 379.3558 382.08551 387.724 403.90735 409.54581 412.27554 417.914"
         y="-633.47217"
         sodipodi:role="line"
         id="tspan113">2 0,40,31-0,340,210,14</tspan></text>
<path
       d="M 268.27549,606.91442 L 269.43234,606.91442 L 269.43234,591.14329 L 268.27549,591.14329 L 268.27549,606.91442 z"
       style="fill:#000000;fill-opacity:1;fill-rule:nonzero;stroke:none"
       id="path115" /><text
       transform="scale(1.0605336,-0.9429216)"
       id="text117"
       x="230.05505"
       y="-616.7464"
       style="font-size:18.18023491px"><tspan
         style="font-size:12.18075752px;font-variant:normal;font-weight:normal;writing-mode:lr-tb;fill:#000000;fill-opacity:1;fill-rule:nonzero;stroke:none;font-family:Garamond;-inkscape-font-specification:Garamond"
         x="230.05505 235.69353 256.60059 262.23904 264.96875 283.51517 289.15366 291.88336 297.52182 313.52368 319.16217 321.89188 327.53033 351.7128 373.71735 379.3558 382.08551 387.724 403.90735 409.54581 412.27554 417.914"
         y="-616.7464"
         sodipodi:role="line"
         id="tspan119">3 0,20,480,34-0,990,36</tspan></text>
<path
       d="M 268.27549,591.14329 L 269.43234,591.14329 L 269.43234,575.54358 L 268.27549,575.54358 L 268.27549,591.14329 z"
       style="fill:#000000;fill-opacity:1;fill-rule:nonzero;stroke:none"
       id="path121" /><text
       transform="scale(1.0605336,-0.9429216)"
       id="text123"
       x="230.05505"
       y="-600.20233"
       style="font-size:18.18023491px"><tspan
         style="font-size:12.18075752px;font-variant:normal;font-weight:normal;writing-mode:lr-tb;fill:#000000;fill-opacity:1;fill-rule:nonzero;stroke:none;font-family:Garamond;-inkscape-font-specification:Garamond"
         x="230.05505 235.69353 256.60059 262.23904 264.96875 283.51517 289.15366 291.88336 297.52182 313.52368 319.16217 321.89188 327.53033 343.71371 349.35217 352.08188 357.72034 381.72131 403.90735 409.54581 412.27554 417.914"
         y="-600.20233"
         sodipodi:role="line"
         id="tspan125">4 0,10,440,140,84-0,99</tspan></text>
<path
       d="M 268.27549,575.54358 L 269.43234,575.54358 L 269.43234,559.77245 L 268.27549,559.77245 L 268.27549,575.54358 z"
       style="fill:#000000;fill-opacity:1;fill-rule:nonzero;stroke:none"
       id="path127" /><text
       transform="scale(1.0605336,-0.9429216)"
       id="text129"
       x="230.05505"
       y="-583.47656"
       style="font-size:18.18023491px"><tspan
         style="font-size:12.18075752px;font-variant:normal;font-weight:normal;writing-mode:lr-tb;fill:#000000;fill-opacity:1;fill-rule:nonzero;stroke:none;font-family:Garamond;-inkscape-font-specification:Garamond"
         x="230.05505 235.69353 256.60059 262.23904 264.96875 283.51517 289.15366 291.88336 297.52182 313.52368 319.16217 321.89188 327.53033 343.71371 349.35217 352.08188 357.72034 373.72223 379.36069 382.09039 387.72885 411.91132"
         y="-583.47656"
         sodipodi:role="line"
         id="tspan131">5 0,40,190,990,750,18-</tspan></text>
<path
       d="M 236.84787,544.00131 L 268.27549,544.00131 L 268.27549,541.94421 L 236.84787,541.94421 L 236.84787,544.00131 z"
       style="fill:#000000;fill-opacity:1;fill-rule:nonzero;stroke:none"
       id="path133" /><path
       d="M 268.27549,559.77245 L 269.43234,559.77245 L 269.43234,544.00131 L 268.27549,544.00131 L 268.27549,559.77245 z"
       style="fill:#000000;fill-opacity:1;fill-rule:nonzero;stroke:none"
       id="path135" /><path
       d="M 268.27549,544.00131 L 270.58918,544.00131 L 270.58918,541.94421 L 268.27549,541.94421 L 268.27549,544.00131 z"
       style="fill:#000000;fill-opacity:1;fill-rule:nonzero;stroke:none"
       id="path137" /><path
       d="M 270.58918,544.00131 L 300.66715,544.00131 L 300.66715,541.94421 L 270.58918,541.94421 L 270.58918,544.00131 z"
       style="fill:#000000;fill-opacity:1;fill-rule:nonzero;stroke:none"
       id="path139" /><path
       d="M 300.66715,544.00131 L 302.98084,544.00131 L 302.98084,541.94421 L 300.66715,541.94421 L 300.66715,544.00131 z"
       style="fill:#000000;fill-opacity:1;fill-rule:nonzero;stroke:none"
       id="path141" /><path
       d="M 302.98084,544.00131 L 332.48039,544.00131 L 332.48039,541.94421 L 302.98084,541.94421 L 302.98084,544.00131 z"
       style="fill:#000000;fill-opacity:1;fill-rule:nonzero;stroke:none"
       id="path143" /><path
       d="M 332.48039,544.00131 L 334.79408,544.00131 L 334.79408,541.94421 L 332.48039,541.94421 L 332.48039,544.00131 z"
       style="fill:#000000;fill-opacity:1;fill-rule:nonzero;stroke:none"
       id="path145" /><path
       d="M 334.79408,544.00131 L 364.48644,544.00131 L 364.48644,541.94421 L 334.79408,541.94421 L 334.79408,544.00131 z"
       style="fill:#000000;fill-opacity:1;fill-rule:nonzero;stroke:none"
       id="path147" /><path
       d="M 364.48644,544.00131 L 366.80013,544.00131 L 366.80013,541.94421 L 364.48644,541.94421 L 364.48644,544.00131 z"
       style="fill:#000000;fill-opacity:1;fill-rule:nonzero;stroke:none"
       id="path149" /><path
       d="M 366.80013,544.00131 L 396.29967,544.00131 L 396.29967,541.94421 L 366.80013,541.94421 L 366.80013,544.00131 z"
       style="fill:#000000;fill-opacity:1;fill-rule:nonzero;stroke:none"
       id="path151" /><path
       d="M 396.29967,544.00131 L 398.61336,544.00131 L 398.61336,541.94421 L 396.29967,541.94421 L 396.29967,544.00131 z"
       style="fill:#000000;fill-opacity:1;fill-rule:nonzero;stroke:none"
       id="path153" /><path
       d="M 398.61336,544.00131 L 428.30572,544.00131 L 428.30572,541.94421 L 398.61336,541.94421 L 398.61336,544.00131 z"
       style="fill:#000000;fill-opacity:1;fill-rule:nonzero;stroke:none"
       id="path155" /><path
       d="M 428.30572,544.00131 L 430.61941,544.00131 L 430.61941,541.94421 L 428.30572,541.94421 L 428.30572,544.00131 z"
       style="fill:#000000;fill-opacity:1;fill-rule:nonzero;stroke:none"
       id="path157" /><path
       d="M 430.61941,544.00131 L 460.11896,544.00131 L 460.11896,541.94421 L 430.61941,541.94421 L 430.61941,544.00131 z"
       style="fill:#000000;fill-opacity:1;fill-rule:nonzero;stroke:none"
       id="path159" /></g></svg>