<?xml version="1.0" encoding="UTF-8" standalone="no"?>
<!-- Created with Inkscape (http://www.inkscape.org/) -->
<svg
   xmlns:dc="http://purl.org/dc/elements/1.1/"
   xmlns:cc="http://creativecommons.org/ns#"
   xmlns:rdf="http://www.w3.org/1999/02/22-rdf-syntax-ns#"
   xmlns:svg="http://www.w3.org/2000/svg"
   xmlns="http://www.w3.org/2000/svg"
   xmlns:sodipodi="http://sodipodi.sourceforge.net/DTD/sodipodi-0.dtd"
   xmlns:inkscape="http://www.inkscape.org/namespaces/inkscape"
   id="svg2"
   sodipodi:version="0.32"
   inkscape:version="0.46"
   width="765"
   height="990"
   xml:space="preserve"
   sodipodi:docname="Karcius-rede12.svg"
   inkscape:output_extension="org.inkscape.output.svg.inkscape"><metadata
     id="metadata7"><rdf:RDF><cc:Work
         rdf:about=""><dc:format>image/svg+xml</dc:format><dc:type
           rdf:resource="http://purl.org/dc/dcmitype/StillImage" /></cc:Work></rdf:RDF></metadata><defs
     id="defs5"><inkscape:perspective
       sodipodi:type="inkscape:persp3d"
       inkscape:vp_x="0 : 526.18109 : 1"
       inkscape:vp_y="0 : 1000 : 0"
       inkscape:vp_z="744.09448 : 526.18109 : 1"
       inkscape:persp3d-origin="372.04724 : 350.78739 : 1"
       id="perspective9" /></defs><sodipodi:namedview
     inkscape:window-height="778"
     inkscape:window-width="1280"
     inkscape:pageshadow="2"
     inkscape:pageopacity="0.0"
     guidetolerance="10.0"
     gridtolerance="10.0"
     objecttolerance="10.0"
     borderopacity="1.0"
     bordercolor="#666666"
     pagecolor="#ffffff"
     id="base"
     showgrid="false"
     inkscape:zoom="1.6170604"
     inkscape:cx="394.4602"
     inkscape:cy="712.16008"
     inkscape:window-x="-4"
     inkscape:window-y="-3"
     inkscape:current-layer="g11" /><g
     id="g11"
     inkscape:groupmode="layer"
     inkscape:label="Karcius - 2004 - sbrt - Projeto Integrado"
     transform="matrix(1.25,0,0,-1.25,0,990)"><path
       d="M 212.201,622.68 L 212.321,623.88 L 212.561,624.96 L 213.041,626.04 L 213.521,627 L 214.241,627.84 L 215.201,628.68 L 216.041,629.28 L 217.121,629.88 L 218.201,630.12 L 219.401,630.36 L 220.481,630.36 L 221.681,630.12 L 222.761,629.88 L 223.841,629.28 L 224.801,628.68 L 225.641,627.84 L 226.361,627 L 226.961,626.04 L 227.321,624.96 L 227.561,623.88 L 227.681,622.68 L 227.561,621.48 L 227.321,620.4 L 226.961,619.32 L 226.361,618.36 L 225.641,617.4 L 224.801,616.68 L 223.841,615.96 L 222.761,615.48 L 221.681,615.12 L 220.481,615 L 219.401,615 L 218.201,615.12 L 217.121,615.48 L 216.041,615.96 L 215.201,616.68 L 214.241,617.4 L 213.521,618.36 L 213.041,619.32 L 212.561,620.4 L 212.321,621.48 L 212.201,622.68 z"
       style="fill:#ffffff;fill-opacity:1;fill-rule:evenodd;stroke:#000000;stroke-opacity:1;stroke-width:0.139;stroke-linecap:square;stroke-linejoin:miter;stroke-miterlimit:10;stroke-dasharray:none"
       id="path29" /><text
       transform="matrix(0.9978769,0,0,-1,213.7606,621.24)"
       id="text31"><tspan
         style="fill:#000000;fill-opacity:1;fill-rule:nonzero;stroke:none;font-family:ArialMT;font-variant:normal;font-weight:normal;font-size:4.6631;writing-mode:lr;-inkscape-font-specification:ArialMT"
         x="0 3.8843623 6.7335164 8.2863287 10.8790123"
         y="0"
         sodipodi:role="line"
         id="tspan33">MT(8)</tspan></text>
<path
       d="M 303.761,581.88 L 303.761,583.08 L 304.001,584.16 L 304.481,585.24 L 305.081,586.2 L 305.801,587.16 L 306.641,587.88 L 307.601,588.6 L 308.681,589.08 L 309.641,589.44 L 310.841,589.56 L 312.041,589.56 L 313.121,589.44 L 314.321,589.08 L 315.281,588.6 L 316.241,587.88 L 317.081,587.16 L 317.801,586.2 L 318.401,585.24 L 319.121,583.08 L 319.121,580.68 L 318.401,578.52 L 317.801,577.56 L 317.081,576.6 L 316.241,575.88 L 314.321,574.68 L 313.121,574.44 L 312.041,574.2 L 310.841,574.2 L 309.641,574.44 L 308.681,574.68 L 307.601,575.28 L 306.641,575.88 L 305.801,576.6 L 305.081,577.56 L 304.481,578.52 L 304.001,579.6 L 303.761,580.68 L 303.761,581.88 z"
       style="fill:#ffffff;fill-opacity:1;fill-rule:evenodd;stroke:#000000;stroke-opacity:1;stroke-width:0.12;stroke-linecap:square;stroke-linejoin:miter;stroke-miterlimit:10;stroke-dasharray:none"
       id="path35" /><text
       transform="matrix(1,0,0,-0.9893911,305.4406,580.5601)"
       id="text37"><tspan
         style="fill:#000000;fill-opacity:1;fill-rule:nonzero;stroke:none;font-family:ArialMT;font-variant:normal;font-weight:normal;font-size:4.336;writing-mode:lr;-inkscape-font-specification:ArialMT"
         x="0 3.611888 6.985296 8.429184 10.84"
         y="0"
         sodipodi:role="line"
         id="tspan39">MG(5)</tspan></text>
<path
       d="M 362.201,681 L 362.201,682.2 L 362.441,683.28 L 362.921,684.36 L 363.521,685.44 L 364.241,686.28 L 365.081,687.12 L 366.041,687.72 L 367.121,688.2 L 368.201,688.56 L 369.281,688.68 L 370.481,688.68 L 371.561,688.56 L 372.761,688.2 L 373.721,687.72 L 374.681,687.12 L 375.521,686.28 L 376.241,685.44 L 376.841,684.36 L 377.561,682.2 L 377.561,679.92 L 377.201,678.72 L 376.841,677.64 L 376.241,676.68 L 375.521,675.72 L 374.681,675 L 373.721,674.4 L 372.761,673.92 L 371.561,673.56 L 370.481,673.32 L 369.281,673.32 L 368.201,673.56 L 367.121,673.92 L 366.041,674.4 L 365.081,675 L 364.241,675.72 L 363.521,676.68 L 362.921,677.64 L 362.441,678.72 L 362.201,679.92 L 362.201,681 z"
       style="fill:#ffffff;fill-opacity:1;fill-rule:evenodd;stroke:#000000;stroke-opacity:1;stroke-width:0.12;stroke-linecap:square;stroke-linejoin:miter;stroke-miterlimit:10;stroke-dasharray:none"
       id="path41" /><text
       transform="matrix(0.9978769,0,0,-1,364.0006,679.6801)"
       id="text43"><tspan
         style="fill:#000000;fill-opacity:1;fill-rule:nonzero;stroke:none;font-family:ArialMT;font-variant:normal;font-weight:normal;font-size:4.6631;writing-mode:lr;-inkscape-font-specification:ArialMT"
         x="0 3.3667582 6.4770459 9.0697295"
         y="0"
         sodipodi:role="line"
         id="tspan45">CE10</tspan></text>
<path
       d="M 391.961,652.44 L 392.081,653.52 L 392.321,654.6 L 392.681,655.68 L 393.281,656.76 L 394.001,657.6 L 394.841,658.44 L 395.801,659.04 L 396.881,659.64 L 399.041,660.12 L 400.241,660.12 L 402.401,659.64 L 403.481,659.04 L 404.441,658.44 L 405.281,657.6 L 406.001,656.76 L 406.601,655.68 L 407.081,654.6 L 407.321,653.52 L 407.321,651.24 L 407.081,650.16 L 406.601,649.08 L 406.001,648.12 L 405.281,647.16 L 404.441,646.32 L 403.481,645.72 L 402.401,645.24 L 401.321,644.88 L 400.241,644.76 L 399.041,644.76 L 397.961,644.88 L 396.881,645.24 L 395.801,645.72 L 394.841,646.32 L 394.001,647.16 L 393.281,648.12 L 392.681,649.08 L 392.321,650.16 L 392.081,651.24 L 391.961,652.44 z"
       style="fill:#ffffff;fill-opacity:1;fill-rule:evenodd;stroke:#000000;stroke-opacity:1;stroke-width:0.12;stroke-linecap:square;stroke-linejoin:miter;stroke-miterlimit:10;stroke-dasharray:none"
       id="path47" /><text
       transform="matrix(0.9978769,0,0,-1,393.6406,651.0001)"
       id="text49"><tspan
         style="fill:#000000;fill-opacity:1;fill-rule:nonzero;stroke:none;font-family:ArialMT;font-variant:normal;font-weight:normal;font-size:4.6631;writing-mode:lr;-inkscape-font-specification:ArialMT"
         x="0 3.1102877 6.2205754 7.7733877 10.3660713"
         y="0"
         sodipodi:role="line"
         id="tspan51">PE(9)</tspan></text>
<path
       d="M 355.481,615 L 355.601,616.08 L 356.321,618.24 L 356.921,619.32 L 357.641,620.16 L 358.481,621 L 360.401,622.2 L 361.601,622.44 L 362.681,622.56 L 363.881,622.56 L 364.961,622.44 L 366.041,622.2 L 367.121,621.6 L 368.081,621 L 368.921,620.16 L 369.641,619.32 L 370.241,618.24 L 370.721,617.16 L 370.961,615 L 370.841,613.8 L 370.721,612.72 L 370.241,611.64 L 369.641,610.56 L 368.921,609.72 L 368.081,608.88 L 367.121,608.28 L 366.041,607.8 L 364.961,607.44 L 363.881,607.32 L 362.681,607.32 L 361.601,607.44 L 360.401,607.8 L 359.441,608.28 L 358.481,608.88 L 357.641,609.72 L 356.921,610.56 L 356.321,611.64 L 355.601,613.8 L 355.481,615 z"
       style="fill:#ffffff;fill-opacity:1;fill-rule:evenodd;stroke:#000000;stroke-opacity:1;stroke-width:0.12;stroke-linecap:square;stroke-linejoin:miter;stroke-miterlimit:10;stroke-dasharray:none"
       id="path53" /><text
       transform="matrix(0.9978769,0,0,-1,357.2806,613.5601)"
       id="text55"><tspan
         style="fill:#000000;fill-opacity:1;fill-rule:nonzero;stroke:none;font-family:ArialMT;font-variant:normal;font-weight:normal;font-size:4.6631;writing-mode:lr;-inkscape-font-specification:ArialMT"
         x="0 3.1102877 6.2205754 7.7733877 10.3660713"
         y="0"
         sodipodi:role="line"
         id="tspan57">BA(6)</tspan></text>
<path
       d="M 318.041,545.52 L 318.161,546.72 L 318.401,547.8 L 318.761,548.88 L 319.361,549.96 L 320.081,550.8 L 320.921,551.64 L 321.881,552.24 L 322.961,552.72 L 324.041,553.08 L 325.241,553.2 L 326.321,553.2 L 327.521,553.08 L 328.601,552.72 L 329.681,552.24 L 330.521,551.64 L 331.481,550.8 L 332.201,549.96 L 333.161,547.8 L 333.401,546.72 L 333.521,545.52 L 333.401,544.44 L 333.161,543.24 L 332.681,542.16 L 332.201,541.2 L 331.481,540.36 L 330.521,539.52 L 329.681,538.8 L 328.601,538.32 L 327.521,537.96 L 326.321,537.84 L 325.241,537.84 L 324.041,537.96 L 322.961,538.32 L 321.881,538.8 L 320.921,539.52 L 320.081,540.36 L 319.361,541.2 L 318.761,542.16 L 318.401,543.24 L 318.161,544.44 L 318.041,545.52 z"
       style="fill:#ffffff;fill-opacity:1;fill-rule:evenodd;stroke:#000000;stroke-opacity:1;stroke-width:0.12;stroke-linecap:square;stroke-linejoin:miter;stroke-miterlimit:10;stroke-dasharray:none"
       id="path59" /><text
       transform="matrix(0.9978769,0,0,-1,319.7206,544.08)"
       id="text61"><tspan
         style="fill:#000000;fill-opacity:1;fill-rule:nonzero;stroke:none;font-family:ArialMT;font-variant:normal;font-weight:normal;font-size:4.6631;writing-mode:lr;-inkscape-font-specification:ArialMT"
         x="0 3.1102877 6.2205754 7.7733877 10.3660713"
         y="0"
         sodipodi:role="line"
         id="tspan63">SP(3)</tspan></text>
<path
       d="M 281.681,688.68 L 281.801,689.88 L 282.041,691.08 L 282.521,692.04 L 283.001,693.12 L 284.681,694.8 L 285.521,695.4 L 286.601,695.88 L 287.681,696.24 L 288.881,696.48 L 289.961,696.48 L 291.161,696.24 L 292.241,695.88 L 293.321,695.4 L 294.281,694.8 L 295.121,693.96 L 295.721,693.12 L 296.321,692.04 L 296.801,691.08 L 297.041,689.88 L 297.041,687.6 L 296.801,686.52 L 296.321,685.44 L 295.721,684.36 L 295.121,683.52 L 294.281,682.68 L 293.321,682.08 L 292.241,681.6 L 291.161,681.24 L 289.961,681 L 288.881,681 L 287.681,681.24 L 286.601,681.6 L 285.521,682.08 L 284.681,682.68 L 283.001,684.36 L 282.041,686.52 L 281.801,687.6 L 281.681,688.68 z"
       style="fill:#ffffff;fill-opacity:1;fill-rule:evenodd;stroke:#000000;stroke-opacity:1;stroke-width:0.12;stroke-linecap:square;stroke-linejoin:miter;stroke-miterlimit:10;stroke-dasharray:none"
       id="path65" /><text
       transform="matrix(0.9978769,0,0,-1,281.8006,686.88)"
       id="text67"><tspan
         style="fill:#000000;fill-opacity:1;fill-rule:nonzero;stroke:none;font-family:ArialMT;font-variant:normal;font-weight:normal;font-size:4.6631;writing-mode:lr;-inkscape-font-specification:ArialMT"
         x="0 3.1102877 6.2205754 7.7733877 10.3660713 12.9587549"
         y="0"
         sodipodi:role="line"
         id="tspan69">PA(11)</tspan></text>
<path
       d="M 267.401,608.4 L 267.401,609.48 L 267.761,610.68 L 268.121,611.64 L 268.721,612.72 L 269.441,613.56 L 270.281,614.4 L 271.241,615 L 272.201,615.48 L 273.401,615.84 L 274.481,616.08 L 275.681,616.08 L 276.881,615.84 L 277.961,615.48 L 278.921,615 L 279.881,614.4 L 280.721,613.56 L 281.441,612.72 L 282.041,611.64 L 282.521,610.68 L 282.761,609.48 L 282.761,607.2 L 282.521,606 L 282.041,605.04 L 281.441,603.96 L 280.721,603.12 L 279.881,602.28 L 278.921,601.68 L 277.961,601.2 L 276.881,600.84 L 275.681,600.6 L 274.481,600.6 L 273.401,600.84 L 272.201,601.2 L 271.241,601.68 L 270.281,602.28 L 269.441,603.12 L 268.721,603.96 L 268.121,605.04 L 267.761,606 L 267.401,607.2 L 267.401,608.4 z"
       style="fill:#ffffff;fill-opacity:1;fill-rule:evenodd;stroke:#000000;stroke-opacity:1;stroke-width:0.12;stroke-linecap:square;stroke-linejoin:miter;stroke-miterlimit:10;stroke-dasharray:none"
       id="path71" /><text
       transform="matrix(1,0,0,-0.9893911,269.0806,607.08)"
       id="text73"><tspan
         style="fill:#000000;fill-opacity:1;fill-rule:nonzero;stroke:none;font-family:ArialMT;font-variant:normal;font-weight:normal;font-size:4.336;writing-mode:lr;-inkscape-font-specification:ArialMT"
         x="0 3.373408 6.746816 8.190704 10.60152"
         y="0"
         sodipodi:role="line"
         id="tspan75">GO(7)</tspan></text>
<path
       d="M 347.801,567.6 L 347.921,568.68 L 348.161,569.88 L 348.641,570.96 L 349.241,571.92 L 349.841,572.76 L 350.681,573.6 L 351.641,574.2 L 352.721,574.8 L 353.801,575.04 L 355.001,575.28 L 356.201,575.28 L 358.361,574.8 L 359.441,574.2 L 360.401,573.6 L 361.241,572.76 L 361.961,571.92 L 362.441,570.96 L 362.921,569.88 L 363.161,568.68 L 363.281,567.6 L 363.161,566.4 L 362.921,565.32 L 362.441,564.24 L 361.961,563.28 L 361.241,562.32 L 360.401,561.6 L 359.441,560.88 L 358.361,560.4 L 357.281,560.04 L 356.201,559.92 L 355.001,559.92 L 353.801,560.04 L 352.721,560.4 L 351.641,560.88 L 350.681,561.6 L 349.841,562.32 L 348.641,564.24 L 348.161,565.32 L 347.921,566.4 L 347.801,567.6 z"
       style="fill:#ffffff;fill-opacity:1;fill-rule:evenodd;stroke:#000000;stroke-opacity:1;stroke-width:0.12;stroke-linecap:square;stroke-linejoin:miter;stroke-miterlimit:10;stroke-dasharray:none"
       id="path77" /><text
       transform="matrix(0.9978769,0,0,-1,349.8406,566.16)"
       id="text79"><tspan
         style="fill:#000000;fill-opacity:1;fill-rule:nonzero;stroke:none;font-family:ArialMT;font-variant:normal;font-weight:normal;font-size:4.6631;writing-mode:lr;-inkscape-font-specification:ArialMT"
         x="0 3.3667582 5.6983082 7.2511205 9.8438041"
         y="0"
         sodipodi:role="line"
         id="tspan81">RJ(4)</tspan></text>
<path
       d="M 185.801,674.4 L 185.801,675.6 L 186.521,677.76 L 187.121,678.72 L 187.841,679.68 L 188.681,680.4 L 189.641,681.12 L 190.601,681.6 L 191.801,681.96 L 192.881,682.08 L 194.081,682.08 L 195.281,681.96 L 196.361,681.6 L 197.321,681.12 L 198.281,680.4 L 199.121,679.68 L 199.841,678.72 L 200.441,677.76 L 200.921,676.68 L 201.161,675.6 L 201.161,673.32 L 200.921,672.12 L 200.441,671.04 L 199.841,670.08 L 199.121,669.24 L 198.281,668.4 L 196.361,667.2 L 195.281,666.96 L 194.081,666.72 L 192.881,666.72 L 191.801,666.96 L 190.601,667.2 L 188.681,668.4 L 187.841,669.24 L 187.121,670.08 L 186.521,671.04 L 186.161,672.12 L 185.801,673.32 L 185.801,674.4 z"
       style="fill:#ffffff;fill-opacity:1;fill-rule:evenodd;stroke:#000000;stroke-opacity:1;stroke-width:0.12;stroke-linecap:square;stroke-linejoin:miter;stroke-miterlimit:10;stroke-dasharray:none"
       id="path83" /><text
       transform="matrix(0.9978769,0,0,-1,185.8006,673.08)"
       id="text85"><tspan
         style="fill:#000000;fill-opacity:1;fill-rule:nonzero;stroke:none;font-family:ArialMT;font-variant:normal;font-weight:normal;font-size:4.6631;writing-mode:lr;-inkscape-font-specification:ArialMT"
         x="0 3.1102877 6.99465 8.5474623 11.1401459 13.7328295"
         y="0"
         sodipodi:role="line"
         id="tspan87">AM(12)</tspan></text>
<path
       d="M 325.721,515.76 L 325.841,516.96 L 326.081,518.04 L 326.561,519.12 L 327.161,520.2 L 327.881,521.04 L 328.721,521.88 L 329.681,522.48 L 330.641,522.96 L 331.721,523.32 L 332.921,523.56 L 334.121,523.56 L 335.201,523.32 L 336.281,522.96 L 337.361,522.48 L 338.321,521.88 L 339.161,521.04 L 339.881,520.2 L 340.481,519.12 L 340.841,518.04 L 341.081,516.96 L 341.201,515.76 L 341.081,514.68 L 340.841,513.48 L 340.481,512.4 L 339.881,511.44 L 339.161,510.6 L 338.321,509.76 L 337.361,509.16 L 336.281,508.68 L 335.201,508.32 L 334.121,508.08 L 332.921,508.08 L 331.721,508.32 L 330.641,508.68 L 329.681,509.16 L 328.721,509.76 L 327.881,510.6 L 327.161,511.44 L 326.561,512.4 L 326.081,513.48 L 325.841,514.68 L 325.721,515.76 z"
       style="fill:#ffffff;fill-opacity:1;fill-rule:evenodd;stroke:#000000;stroke-opacity:1;stroke-width:0.12;stroke-linecap:square;stroke-linejoin:miter;stroke-miterlimit:10;stroke-dasharray:none"
       id="path89" /><text
       transform="matrix(0.9978769,0,0,-1,327.4006,514.4401)"
       id="text91"><tspan
         style="fill:#000000;fill-opacity:1;fill-rule:nonzero;stroke:none;font-family:ArialMT;font-variant:normal;font-weight:normal;font-size:4.6631;writing-mode:lr;-inkscape-font-specification:ArialMT"
         x="0 3.1102877 6.4770459 8.0298582 10.6225418"
         y="0"
         sodipodi:role="line"
         id="tspan93">PR(2)</tspan></text>
<path
       d="M 333.521,482.76 L 333.641,483.96 L 333.881,485.04 L 334.241,486.12 L 334.841,487.08 L 335.561,487.92 L 336.401,488.76 L 337.361,489.48 L 338.441,489.96 L 339.521,490.32 L 340.601,490.44 L 341.801,490.44 L 342.881,490.32 L 343.961,489.96 L 345.041,489.48 L 346.001,488.76 L 346.841,487.92 L 347.561,487.08 L 348.161,486.12 L 348.641,485.04 L 348.881,483.96 L 348.881,481.56 L 348.641,480.48 L 348.161,479.4 L 347.561,478.44 L 346.841,477.48 L 346.001,476.76 L 345.041,476.04 L 343.961,475.56 L 342.881,475.2 L 341.801,475.08 L 340.601,475.08 L 339.521,475.2 L 338.441,475.56 L 337.361,476.04 L 336.401,476.76 L 335.561,477.48 L 334.841,478.44 L 334.241,479.4 L 333.881,480.48 L 333.641,481.56 L 333.521,482.76 z"
       style="fill:#ffffff;fill-opacity:1;fill-rule:evenodd;stroke:#000000;stroke-opacity:1;stroke-width:0.12;stroke-linecap:square;stroke-linejoin:miter;stroke-miterlimit:10;stroke-dasharray:none"
       id="path95" /><text
       transform="matrix(0.9978769,0,0,-1,335.0806,481.32)"
       id="text97"><tspan
         style="fill:#000000;fill-opacity:1;fill-rule:nonzero;stroke:none;font-family:ArialMT;font-variant:normal;font-weight:normal;font-size:4.6631;writing-mode:lr;-inkscape-font-specification:ArialMT"
         x="0 3.3667582 6.4770459 8.0298582 10.6225418"
         y="0"
         sodipodi:role="line"
         id="tspan99">RS(1)</tspan></text>
<path
       d="M 341.201,490.44 L 333.521,508.08 M 346.721,488.16 L 355.481,559.8 M 333.521,523.56 L 325.721,537.84 M 338.921,521.28 L 355.481,559.8 M 331.241,550.92 L 350.081,562.08 M 320.321,550.92 L 311.441,574.2 M 316.841,576.48 L 347.801,567.6 M 363.281,607.2 L 355.481,575.28 M 316.841,587.4 L 357.881,609.48 M 305.921,587.4 L 280.601,602.88 M 282.761,608.4 L 355.481,615 M 220.001,615 L 318.041,545.52 M 193.481,666.72 L 214.481,628.08 M 201.161,674.4 L 281.681,688.68 M 297.041,688.68 L 362.201,681 M 375.281,675.6 L 394.241,657.84 M 363.281,622.68 L 369.881,673.32 M 370.961,615 L 399.641,644.64 M 227.681,622.68 L 267.401,608.4 M 275.081,616.08 L 289.481,681"
       style="fill:none;stroke:#000000;stroke-opacity:1;stroke-width:0.325;stroke-linecap:square;stroke-linejoin:miter;stroke-miterlimit:10;stroke-dasharray:none"
       id="path101" /><text
       transform="matrix(-0.4992604,0.8646278,0.866452,0.5003763,336.6406,496.32)"
       id="text103"><tspan
         style="fill:#000000;fill-opacity:1;fill-rule:nonzero;stroke:none;font-family:ArialMT;font-variant:normal;font-weight:normal;font-size:4.65969266;writing-mode:lr;-inkscape-font-specification:ArialMT"
         x="0"
         y="0"
         id="tspan105">7</tspan><tspan
         style="fill:#000000;fill-opacity:1;fill-rule:nonzero;stroke:none;font-family:ArialMT;font-variant:normal;font-weight:normal;font-size:4.65969266;writing-mode:lr;-inkscape-font-specification:ArialMT"
         x="2.5786739"
         y="0.10111533"
         id="tspan107">1</tspan><tspan
         style="fill:#000000;fill-opacity:1;fill-rule:nonzero;stroke:none;font-family:ArialMT;font-variant:normal;font-weight:normal;font-size:4.65969266;writing-mode:lr;-inkscape-font-specification:ArialMT"
         x="5.2174579"
         y="0.098319515"
         id="tspan109">1</tspan><tspan
         style="fill:#000000;fill-opacity:1;fill-rule:nonzero;stroke:none;font-family:ArialMT;font-variant:normal;font-weight:normal;font-size:4.65969266;writing-mode:lr;-inkscape-font-specification:ArialMT"
         x="28.785251"
         y="10.216376"
         id="tspan111">4</tspan><tspan
         style="fill:#000000;fill-opacity:1;fill-rule:nonzero;stroke:none;font-family:ArialMT;font-variant:normal;font-weight:normal;font-size:4.65969266;writing-mode:lr;-inkscape-font-specification:ArialMT"
         x="31.363925"
         y="10.317491"
         id="tspan113">0</tspan><tspan
         style="fill:#000000;fill-opacity:1;fill-rule:nonzero;stroke:none;font-family:ArialMT;font-variant:normal;font-weight:normal;font-size:4.65969266;writing-mode:lr;-inkscape-font-specification:ArialMT"
         x="33.898332"
         y="10.254586"
         id="tspan115">8</tspan></text>
<text
       transform="matrix(0.4991959,0.8646649,0.8664891,-0.5002905,342.0406,532.8)"
       id="text117"><tspan
         style="fill:#000000;fill-opacity:1;fill-rule:nonzero;stroke:none;font-family:ArialMT;font-variant:normal;font-weight:normal;font-size:4.65949297;writing-mode:lr;-inkscape-font-specification:ArialMT"
         x="0"
         y="0"
         id="tspan119">6</tspan><tspan
         style="fill:#000000;fill-opacity:1;fill-rule:nonzero;stroke:none;font-family:ArialMT;font-variant:normal;font-weight:normal;font-size:4.65949297;writing-mode:lr;-inkscape-font-specification:ArialMT"
         x="2.6386709"
         y="0.0032616451"
         id="tspan121">9</tspan><tspan
         style="fill:#000000;fill-opacity:1;fill-rule:nonzero;stroke:none;font-family:ArialMT;font-variant:normal;font-weight:normal;font-size:4.65949297;writing-mode:lr;-inkscape-font-specification:ArialMT"
         x="5.2773417"
         y="0.0065232902"
         id="tspan123">0</tspan></text>
<text
       transform="matrix(0.2582328,0.9640876,0.9660827,-0.2588549,355.3606,520.6801)"
       id="text125"><tspan
         style="fill:#000000;fill-opacity:1;fill-rule:nonzero;stroke:none;font-family:ArialMT;font-variant:normal;font-weight:normal;font-size:4.66129852;writing-mode:lr;-inkscape-font-specification:ArialMT"
         x="0"
         y="0"
         id="tspan127">1</tspan><tspan
         style="fill:#000000;fill-opacity:1;fill-rule:nonzero;stroke:none;font-family:ArialMT;font-variant:normal;font-weight:normal;font-size:4.66129852;writing-mode:lr;-inkscape-font-specification:ArialMT"
         x="2.5944788"
         y="-0.072250127"
         id="tspan129">1</tspan><tspan
         style="fill:#000000;fill-opacity:1;fill-rule:nonzero;stroke:none;font-family:ArialMT;font-variant:normal;font-weight:normal;font-size:4.66129852;writing-mode:lr;-inkscape-font-specification:ArialMT"
         x="5.2201882"
         y="-0.028900051"
         id="tspan131">2</tspan><tspan
         style="fill:#000000;fill-opacity:1;fill-rule:nonzero;stroke:none;font-family:ArialMT;font-variant:normal;font-weight:normal;font-size:4.66129852;writing-mode:lr;-inkscape-font-specification:ArialMT"
         x="7.6986006"
         y="-0.070385608"
         id="tspan133">7</tspan></text>
<text
       transform="matrix(0.8645205,0.4992604,0.500269,-0.866452,336.2806,555.12)"
       id="text135"><tspan
         style="fill:#000000;fill-opacity:1;fill-rule:nonzero;stroke:none;font-family:ArialMT;font-variant:normal;font-weight:normal;font-size:4.65969266;writing-mode:lr;-inkscape-font-specification:ArialMT"
         x="0"
         y="0"
         id="tspan137">4</tspan><tspan
         style="fill:#000000;fill-opacity:1;fill-rule:nonzero;stroke:none;font-family:ArialMT;font-variant:normal;font-weight:normal;font-size:4.65969266;writing-mode:lr;-inkscape-font-specification:ArialMT"
         x="2.5786739"
         y="0.10111533"
         id="tspan139">2</tspan><tspan
         style="fill:#000000;fill-opacity:1;fill-rule:nonzero;stroke:none;font-family:ArialMT;font-variant:normal;font-weight:normal;font-size:4.65969266;writing-mode:lr;-inkscape-font-specification:ArialMT"
         x="5.2174579"
         y="0.098319515"
         id="tspan141">9</tspan></text>
<text
       transform="matrix(0.9639803,-0.2582328,-0.2589622,-0.9660827,331.9606,573)"
       id="text143"><tspan
         style="fill:#000000;fill-opacity:1;fill-rule:nonzero;stroke:none;font-family:ArialMT;font-variant:normal;font-weight:normal;font-size:4.66129852;writing-mode:lr;-inkscape-font-specification:ArialMT"
         x="0"
         y="0"
         id="tspan145">3</tspan><tspan
         style="fill:#000000;fill-opacity:1;fill-rule:nonzero;stroke:none;font-family:ArialMT;font-variant:normal;font-weight:normal;font-size:4.66129852;writing-mode:lr;-inkscape-font-specification:ArialMT"
         x="2.5096431"
         y="0.074580776"
         id="tspan147">5</tspan><tspan
         style="fill:#000000;fill-opacity:1;fill-rule:nonzero;stroke:none;font-family:ArialMT;font-variant:normal;font-weight:normal;font-size:4.66129852;writing-mode:lr;-inkscape-font-specification:ArialMT"
         x="5.1041219"
         y="0.0018645194"
         id="tspan149">3</tspan></text>
<text
       transform="matrix(0.2582328,0.9640876,0.9660827,-0.2588549,363.5206,584.16)"
       id="text151"><tspan
         style="fill:#000000;fill-opacity:1;fill-rule:nonzero;stroke:none;font-family:ArialMT;font-variant:normal;font-weight:normal;font-size:4.66129852;writing-mode:lr;-inkscape-font-specification:ArialMT"
         x="0"
         y="0"
         id="tspan153">1</tspan><tspan
         style="fill:#000000;fill-opacity:1;fill-rule:nonzero;stroke:none;font-family:ArialMT;font-variant:normal;font-weight:normal;font-size:4.66129852;writing-mode:lr;-inkscape-font-specification:ArialMT"
         x="2.6257095"
         y="0.043350076"
         id="tspan155">2</tspan><tspan
         style="fill:#000000;fill-opacity:1;fill-rule:nonzero;stroke:none;font-family:ArialMT;font-variant:normal;font-weight:normal;font-size:4.66129852;writing-mode:lr;-inkscape-font-specification:ArialMT"
         x="5.2201882"
         y="-0.028900051"
         id="tspan157">9</tspan><tspan
         style="fill:#000000;fill-opacity:1;fill-rule:nonzero;stroke:none;font-family:ArialMT;font-variant:normal;font-weight:normal;font-size:4.66129852;writing-mode:lr;-inkscape-font-specification:ArialMT"
         x="7.8458977"
         y="0.014450025"
         id="tspan159">8</tspan></text>
<text
       transform="matrix(0.8645205,0.4992604,0.500269,-0.866452,333.8806,599.16)"
       id="text161"><tspan
         style="fill:#000000;fill-opacity:1;fill-rule:nonzero;stroke:none;font-family:ArialMT;font-variant:normal;font-weight:normal;font-size:4.65969266;writing-mode:lr;-inkscape-font-specification:ArialMT"
         x="0"
         y="0"
         id="tspan163">9</tspan><tspan
         style="fill:#000000;fill-opacity:1;fill-rule:nonzero;stroke:none;font-family:ArialMT;font-variant:normal;font-weight:normal;font-size:4.65969266;writing-mode:lr;-inkscape-font-specification:ArialMT"
         x="2.638784"
         y="-0.0027958156"
         id="tspan165">8</tspan><tspan
         style="fill:#000000;fill-opacity:1;fill-rule:nonzero;stroke:none;font-family:ArialMT;font-variant:normal;font-weight:normal;font-size:4.65969266;writing-mode:lr;-inkscape-font-specification:ArialMT"
         x="5.2775679"
         y="-0.0055916312"
         id="tspan167">0</tspan></text>
<text
       transform="matrix(0.9978769,0,0,-1,319.4806,614.16)"
       id="text169"><tspan
         style="fill:#000000;fill-opacity:1;fill-rule:nonzero;stroke:none;font-family:ArialMT;font-variant:normal;font-weight:normal;font-size:4.6631;writing-mode:lr;-inkscape-font-specification:ArialMT"
         x="0 2.5926836 5.1853672 7.7780508"
         y="0"
         sodipodi:role="line"
         id="tspan171">1053</tspan></text>
<text
       transform="matrix(0.7063121,0.706398,0.7078148,-0.7078148,386.8006,622.6801)"
       id="text173"><tspan
         style="fill:#000000;fill-opacity:1;fill-rule:nonzero;stroke:none;font-family:ArialMT;font-variant:normal;font-weight:normal;font-size:4.65828039;writing-mode:lr;-inkscape-font-specification:ArialMT"
         x="0"
         y="0"
         id="tspan175">6</tspan><tspan
         style="fill:#000000;fill-opacity:1;fill-rule:nonzero;stroke:none;font-family:ArialMT;font-variant:normal;font-weight:normal;font-size:4.65828039;writing-mode:lr;-inkscape-font-specification:ArialMT"
         x="2.6333259"
         y="0.084780703"
         id="tspan177">3</tspan><tspan
         style="fill:#000000;fill-opacity:1;fill-rule:nonzero;stroke:none;font-family:ArialMT;font-variant:normal;font-weight:normal;font-size:4.65828039;writing-mode:lr;-inkscape-font-specification:ArialMT"
         x="5.2666518"
         y="0"
         id="tspan179">9</tspan></text>
<text
       transform="matrix(0.2582328,0.9640876,0.9660827,-0.2588549,361.2406,639.24)"
       id="text181"><tspan
         style="fill:#000000;fill-opacity:1;fill-rule:nonzero;stroke:none;font-family:ArialMT;font-variant:normal;font-weight:normal;font-size:4.66129852;writing-mode:lr;-inkscape-font-specification:ArialMT"
         x="0"
         y="0"
         id="tspan183">1</tspan><tspan
         style="fill:#000000;fill-opacity:1;fill-rule:nonzero;stroke:none;font-family:ArialMT;font-variant:normal;font-weight:normal;font-size:4.66129852;writing-mode:lr;-inkscape-font-specification:ArialMT"
         x="2.6257095"
         y="0.043350076"
         id="tspan185">3</tspan><tspan
         style="fill:#000000;fill-opacity:1;fill-rule:nonzero;stroke:none;font-family:ArialMT;font-variant:normal;font-weight:normal;font-size:4.66129852;writing-mode:lr;-inkscape-font-specification:ArialMT"
         x="5.2514189"
         y="0.086700153"
         id="tspan187">8</tspan><tspan
         style="fill:#000000;fill-opacity:1;fill-rule:nonzero;stroke:none;font-family:ArialMT;font-variant:normal;font-weight:normal;font-size:4.66129852;writing-mode:lr;-inkscape-font-specification:ArialMT"
         x="7.8458977"
         y="0.014450025"
         id="tspan189">9</tspan></text>
<text
       transform="matrix(0.8645576,-0.4991959,-0.5003978,-0.8664891,384.5206,670.32)"
       id="text191"><tspan
         style="fill:#000000;fill-opacity:1;fill-rule:nonzero;stroke:none;font-family:ArialMT;font-variant:normal;font-weight:normal;font-size:4.65949297;writing-mode:lr;-inkscape-font-specification:ArialMT"
         x="0"
         y="0"
         id="tspan193">8</tspan><tspan
         style="fill:#000000;fill-opacity:1;fill-rule:nonzero;stroke:none;font-family:ArialMT;font-variant:normal;font-weight:normal;font-size:4.65949297;writing-mode:lr;-inkscape-font-specification:ArialMT"
         x="2.6391368"
         y="0.0032616451"
         id="tspan195">0</tspan><tspan
         style="fill:#000000;fill-opacity:1;fill-rule:nonzero;stroke:none;font-family:ArialMT;font-variant:normal;font-weight:normal;font-size:4.65949297;writing-mode:lr;-inkscape-font-specification:ArialMT"
         x="5.173901"
         y="0.0661648"
         id="tspan197">0</tspan></text>
<text
       transform="matrix(0.9978769,0,0,-1,325.0006,687.36)"
       id="text199"><tspan
         style="fill:#000000;fill-opacity:1;fill-rule:nonzero;stroke:none;font-family:ArialMT;font-variant:normal;font-weight:normal;font-size:4.6631;writing-mode:lr;-inkscape-font-specification:ArialMT"
         x="0 2.5926836 5.1853672 7.7780508"
         y="0"
         sodipodi:role="line"
         id="tspan201">1138</tspan><tspan
         style="fill:#000000;fill-opacity:1;fill-rule:nonzero;stroke:none;font-family:ArialMT;font-variant:normal;font-weight:normal;font-size:4.6631;writing-mode:lr;-inkscape-font-specification:ArialMT"
         x="-90.55133997 -87.95865637 -85.36597277 -82.77328917"
         y="3.8400628"
         sodipodi:role="line"
         id="tspan203">1293</tspan></text>
<text
       transform="matrix(-0.4992604,0.8646278,0.866452,0.5003763,203.3206,640.8)"
       id="text205"><tspan
         style="fill:#000000;fill-opacity:1;fill-rule:nonzero;stroke:none;font-family:ArialMT;font-variant:normal;font-weight:normal;font-size:4.65969266;writing-mode:lr;-inkscape-font-specification:ArialMT"
         x="0"
         y="0"
         id="tspan207">1</tspan><tspan
         style="fill:#000000;fill-opacity:1;fill-rule:nonzero;stroke:none;font-family:ArialMT;font-variant:normal;font-weight:normal;font-size:4.65969266;writing-mode:lr;-inkscape-font-specification:ArialMT"
         x="2.638784"
         y="-0.0027958156"
         id="tspan209">4</tspan><tspan
         style="fill:#000000;fill-opacity:1;fill-rule:nonzero;stroke:none;font-family:ArialMT;font-variant:normal;font-weight:normal;font-size:4.65969266;writing-mode:lr;-inkscape-font-specification:ArialMT"
         x="5.2775679"
         y="-0.0055916312"
         id="tspan211">6</tspan><tspan
         style="fill:#000000;fill-opacity:1;fill-rule:nonzero;stroke:none;font-family:ArialMT;font-variant:normal;font-weight:normal;font-size:4.65969266;writing-mode:lr;-inkscape-font-specification:ArialMT"
         x="7.7518647"
         y="0.035413664"
         id="tspan213">3</tspan></text>
<text
       transform="matrix(-0.7063551,0.7063551,0.7077718,0.7078577,272.0806,573.12)"
       id="text215"><tspan
         style="fill:#000000;fill-opacity:1;fill-rule:nonzero;stroke:none;font-family:ArialMT;font-variant:normal;font-weight:normal;font-size:4.65856353;writing-mode:lr;-inkscape-font-specification:ArialMT"
         x="0"
         y="0"
         id="tspan217">1</tspan><tspan
         style="fill:#000000;fill-opacity:1;fill-rule:nonzero;stroke:none;font-family:ArialMT;font-variant:normal;font-weight:normal;font-size:4.65856353;writing-mode:lr;-inkscape-font-specification:ArialMT"
         x="2.6330201"
         y="0.084785856"
         id="tspan219">6</tspan><tspan
         style="fill:#000000;fill-opacity:1;fill-rule:nonzero;stroke:none;font-family:ArialMT;font-variant:normal;font-weight:normal;font-size:4.65856353;writing-mode:lr;-inkscape-font-specification:ArialMT"
         x="5.26604021 7.8138086"
         y="0"
         sodipodi:role="line"
         id="tspan221">14</tspan></text>
<text
       transform="matrix(0.9639803,-0.2582328,-0.2589622,-0.9660827,242.4406,619.32)"
       id="text223"><tspan
         style="fill:#000000;fill-opacity:1;fill-rule:nonzero;stroke:none;font-family:ArialMT;font-variant:normal;font-weight:normal;font-size:4.66129852;writing-mode:lr;-inkscape-font-specification:ArialMT"
         x="0"
         y="0"
         id="tspan225">1</tspan><tspan
         style="fill:#000000;fill-opacity:1;fill-rule:nonzero;stroke:none;font-family:ArialMT;font-variant:normal;font-weight:normal;font-size:4.66129852;writing-mode:lr;-inkscape-font-specification:ArialMT"
         x="2.6257095"
         y="0.043350076"
         id="tspan227">1</tspan><tspan
         style="fill:#000000;fill-opacity:1;fill-rule:nonzero;stroke:none;font-family:ArialMT;font-variant:normal;font-weight:normal;font-size:4.66129852;writing-mode:lr;-inkscape-font-specification:ArialMT"
         x="5.2206543"
         y="-0.028900051"
         id="tspan229">3</tspan><tspan
         style="fill:#000000;fill-opacity:1;fill-rule:nonzero;stroke:none;font-family:ArialMT;font-variant:normal;font-weight:normal;font-size:4.66129852;writing-mode:lr;-inkscape-font-specification:ArialMT"
         x="7.8463638"
         y="0.014450025"
         id="tspan231">3</tspan></text>
<text
       transform="matrix(0.8645576,-0.4991959,-0.5003978,-0.8664891,290.8006,597.6)"
       id="text233"><tspan
         style="fill:#000000;fill-opacity:1;fill-rule:nonzero;stroke:none;font-family:ArialMT;font-variant:normal;font-weight:normal;font-size:4.65949297;writing-mode:lr;-inkscape-font-specification:ArialMT"
         x="0"
         y="0"
         id="tspan235">5</tspan><tspan
         style="fill:#000000;fill-opacity:1;fill-rule:nonzero;stroke:none;font-family:ArialMT;font-variant:normal;font-weight:normal;font-size:4.65949297;writing-mode:lr;-inkscape-font-specification:ArialMT"
         x="2.6391368"
         y="0.0032616451"
         id="tspan237">8</tspan><tspan
         style="fill:#000000;fill-opacity:1;fill-rule:nonzero;stroke:none;font-family:ArialMT;font-variant:normal;font-weight:normal;font-size:4.65949297;writing-mode:lr;-inkscape-font-specification:ArialMT"
         x="5.2782736"
         y="0.0065232902"
         id="tspan239">9</tspan></text>
<text
       transform="matrix(0.2582328,0.9640876,0.9660827,-0.2588549,278.6806,644.76)"
       id="text241"><tspan
         style="fill:#000000;fill-opacity:1;fill-rule:nonzero;stroke:none;font-family:ArialMT;font-variant:normal;font-weight:normal;font-size:4.66129852;writing-mode:lr;-inkscape-font-specification:ArialMT"
         x="0"
         y="0"
         id="tspan243">1</tspan><tspan
         style="fill:#000000;fill-opacity:1;fill-rule:nonzero;stroke:none;font-family:ArialMT;font-variant:normal;font-weight:normal;font-size:4.66129852;writing-mode:lr;-inkscape-font-specification:ArialMT"
         x="2.5944788"
         y="-0.072250127"
         id="tspan245">6</tspan><tspan
         style="fill:#000000;fill-opacity:1;fill-rule:nonzero;stroke:none;font-family:ArialMT;font-variant:normal;font-weight:normal;font-size:4.66129852;writing-mode:lr;-inkscape-font-specification:ArialMT"
         x="5.2201882"
         y="-0.028900051"
         id="tspan247">2</tspan><tspan
         style="fill:#000000;fill-opacity:1;fill-rule:nonzero;stroke:none;font-family:ArialMT;font-variant:normal;font-weight:normal;font-size:4.66129852;writing-mode:lr;-inkscape-font-specification:ArialMT"
         x="7.8458977"
         y="0.014450025"
         id="tspan249">7</tspan></text>
<text
       transform="matrix(0.9639803,-0.2582328,-0.2589622,-0.9660827,305.6806,562.44)"
       id="text251"><tspan
         style="fill:#000000;fill-opacity:1;fill-rule:nonzero;stroke:none;font-family:ArialMT;font-variant:normal;font-weight:normal;font-size:4.66129852;writing-mode:lr;-inkscape-font-specification:ArialMT"
         x="0"
         y="0"
         id="tspan253">5</tspan><tspan
         style="fill:#000000;fill-opacity:1;fill-rule:nonzero;stroke:none;font-family:ArialMT;font-variant:normal;font-weight:normal;font-size:4.66129852;writing-mode:lr;-inkscape-font-specification:ArialMT"
         x="2.5096431"
         y="0.074580776"
         id="tspan255">8</tspan><tspan
         style="fill:#000000;fill-opacity:1;fill-rule:nonzero;stroke:none;font-family:ArialMT;font-variant:normal;font-weight:normal;font-size:4.66129852;writing-mode:lr;-inkscape-font-specification:ArialMT"
         x="5.1041219"
         y="0.0023306493"
         id="tspan257">6</tspan></text>
</g></svg>