<?xml version="1.0" encoding="UTF-8" standalone="no"?>
<!-- Created with Inkscape (http://www.inkscape.org/) -->
<svg
   xmlns:dc="http://purl.org/dc/elements/1.1/"
   xmlns:cc="http://creativecommons.org/ns#"
   xmlns:rdf="http://www.w3.org/1999/02/22-rdf-syntax-ns#"
   xmlns:svg="http://www.w3.org/2000/svg"
   xmlns="http://www.w3.org/2000/svg"
   xmlns:sodipodi="http://sodipodi.sourceforge.net/DTD/sodipodi-0.dtd"
   xmlns:inkscape="http://www.inkscape.org/namespaces/inkscape"
   id="svg2"
   sodipodi:version="0.32"
   inkscape:version="0.46"
   width="765"
   height="990"
   xml:space="preserve"
   sodipodi:docname="Karcius-rede6.svg"
   inkscape:output_extension="org.inkscape.output.svg.inkscape"><metadata
     id="metadata7"><rdf:RDF><cc:Work
         rdf:about=""><dc:format>image/svg+xml</dc:format><dc:type
           rdf:resource="http://purl.org/dc/dcmitype/StillImage" /></cc:Work></rdf:RDF></metadata><defs
     id="defs5"><inkscape:perspective
       sodipodi:type="inkscape:persp3d"
       inkscape:vp_x="0 : 526.18109 : 1"
       inkscape:vp_y="0 : 1000 : 0"
       inkscape:vp_z="744.09448 : 526.18109 : 1"
       inkscape:persp3d-origin="372.04724 : 350.78739 : 1"
       id="perspective9" /><clipPath
       clipPathUnits="userSpaceOnUse"
       id="clipPath89"><path
         d="M 357.641,691.8 L 487.961,691.8 L 487.961,700.44 L 357.641,700.44 L 357.641,691.8 z"
         id="path91" /></clipPath><clipPath
       clipPathUnits="userSpaceOnUse"
       id="clipPath99"><path
         d="M 362.681,696.12 L 482.801,696.12 L 482.801,700.44 L 362.681,700.44 L 362.681,696.12 z"
         id="path101" /></clipPath></defs><sodipodi:namedview
     inkscape:window-height="778"
     inkscape:window-width="1280"
     inkscape:pageshadow="2"
     inkscape:pageopacity="0.0"
     guidetolerance="10.0"
     gridtolerance="10.0"
     objecttolerance="10.0"
     borderopacity="1.0"
     bordercolor="#666666"
     pagecolor="#ffffff"
     id="base"
     showgrid="false"
     inkscape:zoom="1.2436838"
     inkscape:cx="392.53452"
     inkscape:cy="817.77488"
     inkscape:window-x="-4"
     inkscape:window-y="-3"
     inkscape:current-layer="g11" /><g
     id="g11"
     inkscape:groupmode="layer"
     inkscape:label="Karcius - 2004 - sbrt - Projeto Integrado"
     transform="matrix(1.25,0,0,-1.25,0,990)"><path
       d="M 134.441,626.76 L 138.521,626.76 L 136.481,622.68 L 134.441,626.76 z M 134.441,682.44 L 138.521,682.44 L 136.481,686.28 L 134.441,682.44 z"
       style="fill:#000000;fill-opacity:1;fill-rule:evenodd;stroke:#000000;stroke-opacity:1;stroke-width:0.318;stroke-linecap:square;stroke-linejoin:miter;stroke-miterlimit:10;stroke-dasharray:none"
       id="path13" /><path
       d="M 136.481,626.76 L 136.481,682.44"
       style="fill:none;stroke:#000000;stroke-opacity:1;stroke-width:0.318;stroke-linecap:square;stroke-linejoin:miter;stroke-miterlimit:10;stroke-dasharray:none"
       id="path15" /><path
       d="M 140.441,688.32 L 140.441,684.48 L 136.481,686.28 L 140.441,688.32 z M 196.121,688.32 L 196.121,684.48 L 200.201,686.28 L 196.121,688.32 z"
       style="fill:#000000;fill-opacity:1;fill-rule:evenodd;stroke:#000000;stroke-opacity:1;stroke-width:0.318;stroke-linecap:square;stroke-linejoin:miter;stroke-miterlimit:10;stroke-dasharray:none"
       id="path17" /><path
       d="M 140.441,686.28 L 196.121,686.28"
       style="fill:none;stroke:#000000;stroke-opacity:1;stroke-width:0.318;stroke-linecap:square;stroke-linejoin:miter;stroke-miterlimit:10;stroke-dasharray:none"
       id="path19" /><path
       d="M 261.761,626.76 L 265.841,626.76 L 263.801,622.68 L 261.761,626.76 z M 261.761,682.44 L 265.841,682.44 L 263.801,686.28 L 261.761,682.44 z"
       style="fill:#000000;fill-opacity:1;fill-rule:evenodd;stroke:#000000;stroke-opacity:1;stroke-width:0.318;stroke-linecap:square;stroke-linejoin:miter;stroke-miterlimit:10;stroke-dasharray:none"
       id="path21" /><path
       d="M 263.801,626.76 L 263.801,682.44"
       style="fill:none;stroke:#000000;stroke-opacity:1;stroke-width:0.318;stroke-linecap:square;stroke-linejoin:miter;stroke-miterlimit:10;stroke-dasharray:none"
       id="path23" /><path
       d="M 198.161,626.76 L 202.121,626.76 L 200.201,622.68 L 198.161,626.76 z M 198.161,682.44 L 202.121,682.44 L 200.201,686.28 L 198.161,682.44 z"
       style="fill:#000000;fill-opacity:1;fill-rule:evenodd;stroke:#000000;stroke-opacity:1;stroke-width:0.318;stroke-linecap:square;stroke-linejoin:miter;stroke-miterlimit:10;stroke-dasharray:none"
       id="path25" /><path
       d="M 200.201,626.76 L 200.201,682.44"
       style="fill:none;stroke:#000000;stroke-opacity:1;stroke-width:0.318;stroke-linecap:square;stroke-linejoin:miter;stroke-miterlimit:10;stroke-dasharray:none"
       id="path27" /><path
       d="M 204.041,624.72 L 204.041,620.88 L 200.201,622.68 L 204.041,624.72 z M 259.721,624.72 L 259.721,620.88 L 263.801,622.68 L 259.721,624.72 z"
       style="fill:#000000;fill-opacity:1;fill-rule:evenodd;stroke:#000000;stroke-opacity:1;stroke-width:0.318;stroke-linecap:square;stroke-linejoin:miter;stroke-miterlimit:10;stroke-dasharray:none"
       id="path29" /><path
       d="M 204.041,622.68 L 259.721,622.68"
       style="fill:none;stroke:#000000;stroke-opacity:1;stroke-width:0.318;stroke-linecap:square;stroke-linejoin:miter;stroke-miterlimit:10;stroke-dasharray:none"
       id="path31" /><path
       d="M 140.441,624.72 L 140.441,620.88 L 136.481,622.68 L 140.441,624.72 z M 196.121,624.72 L 196.121,620.88 L 200.201,622.68 L 196.121,624.72 z"
       style="fill:#000000;fill-opacity:1;fill-rule:evenodd;stroke:#000000;stroke-opacity:1;stroke-width:0.318;stroke-linecap:square;stroke-linejoin:miter;stroke-miterlimit:10;stroke-dasharray:none"
       id="path33" /><path
       d="M 140.441,622.68 L 196.121,622.68"
       style="fill:none;stroke:#000000;stroke-opacity:1;stroke-width:0.318;stroke-linecap:square;stroke-linejoin:miter;stroke-miterlimit:10;stroke-dasharray:none"
       id="path35" /><path
       d="M 204.041,688.32 L 204.041,684.48 L 200.201,686.28 L 204.041,688.32 z M 259.721,688.32 L 259.721,684.48 L 263.801,686.28 L 259.721,688.32 z"
       style="fill:#000000;fill-opacity:1;fill-rule:evenodd;stroke:#000000;stroke-opacity:1;stroke-width:0.318;stroke-linecap:square;stroke-linejoin:miter;stroke-miterlimit:10;stroke-dasharray:none"
       id="path37" /><path
       d="M 204.041,686.28 L 259.721,686.28"
       style="fill:none;stroke:#000000;stroke-opacity:1;stroke-width:0.318;stroke-linecap:square;stroke-linejoin:miter;stroke-miterlimit:10;stroke-dasharray:none"
       id="path39" /><path
       d="M 143.081,632.16 L 145.841,629.28 L 141.641,627.96 L 143.081,632.16 z M 191.441,680.52 L 194.201,677.64 L 195.641,681.84 L 191.441,680.52 z"
       style="fill:#000000;fill-opacity:1;fill-rule:evenodd;stroke:#000000;stroke-opacity:1;stroke-width:0.318;stroke-linecap:square;stroke-linejoin:miter;stroke-miterlimit:10;stroke-dasharray:none"
       id="path41" /><path
       d="M 144.401,630.72 L 192.881,679.08"
       style="fill:none;stroke:#000000;stroke-opacity:1;stroke-width:0.318;stroke-linecap:square;stroke-linejoin:miter;stroke-miterlimit:10;stroke-dasharray:none"
       id="path43" /><path
       d="M 207.521,632.88 L 210.281,630.12 L 206.081,628.8 L 207.521,632.88 z M 255.881,681.24 L 258.761,678.48 L 260.081,682.68 L 255.881,681.24 z"
       style="fill:#000000;fill-opacity:1;fill-rule:evenodd;stroke:#000000;stroke-opacity:1;stroke-width:0.318;stroke-linecap:square;stroke-linejoin:miter;stroke-miterlimit:10;stroke-dasharray:none"
       id="path45" /><path
       d="M 208.961,631.56 L 257.321,679.92"
       style="fill:none;stroke:#000000;stroke-opacity:1;stroke-width:0.318;stroke-linecap:square;stroke-linejoin:miter;stroke-miterlimit:10;stroke-dasharray:none"
       id="path47" /><text
       transform="matrix(0.9975849,0,0,-1,134.3206,690.96)"
       id="text49"><tspan
         style="fill:#000000;fill-opacity:1;fill-rule:nonzero;stroke:none;font-family:ArialMT;font-variant:normal;font-weight:normal;font-size:7.95;writing-mode:lr;-inkscape-font-specification:ArialMT"
         x="0"
         y="0"
         id="tspan51">0</tspan><tspan
         style="fill:#000000;fill-opacity:1;fill-rule:nonzero;stroke:none;font-family:ArialMT;font-variant:normal;font-weight:normal;font-size:7.95;writing-mode:lr;-inkscape-font-specification:ArialMT"
         x="63.75423 0 127.50687"
         y="77.6397"
         sodipodi:role="line"
         id="tspan53">453</tspan><tspan
         style="fill:#000000;fill-opacity:1;fill-rule:nonzero;stroke:none;font-family:ArialMT;font-variant:normal;font-weight:normal;font-size:7.95;writing-mode:lr;-inkscape-font-specification:ArialMT"
         x="127.507665 63.753435"
         y="0"
         sodipodi:role="line"
         id="tspan55">21</tspan></text>
</g></svg>